%TF.GenerationSoftware,KiCad,Pcbnew,6.0.11-2627ca5db0~126~ubuntu20.04.1*%
%TF.CreationDate,2023-03-17T11:38:59+01:00*%
%TF.ProjectId,shield_a,73686965-6c64-45f6-912e-6b696361645f,2.0.1*%
%TF.SameCoordinates,Original*%
%TF.FileFunction,Soldermask,Bot*%
%TF.FilePolarity,Negative*%
%FSLAX46Y46*%
G04 Gerber Fmt 4.6, Leading zero omitted, Abs format (unit mm)*
G04 Created by KiCad (PCBNEW 6.0.11-2627ca5db0~126~ubuntu20.04.1) date 2023-03-17 11:38:59*
%MOMM*%
%LPD*%
G01*
G04 APERTURE LIST*
G04 Aperture macros list*
%AMRoundRect*
0 Rectangle with rounded corners*
0 $1 Rounding radius*
0 $2 $3 $4 $5 $6 $7 $8 $9 X,Y pos of 4 corners*
0 Add a 4 corners polygon primitive as box body*
4,1,4,$2,$3,$4,$5,$6,$7,$8,$9,$2,$3,0*
0 Add four circle primitives for the rounded corners*
1,1,$1+$1,$2,$3*
1,1,$1+$1,$4,$5*
1,1,$1+$1,$6,$7*
1,1,$1+$1,$8,$9*
0 Add four rect primitives between the rounded corners*
20,1,$1+$1,$2,$3,$4,$5,0*
20,1,$1+$1,$4,$5,$6,$7,0*
20,1,$1+$1,$6,$7,$8,$9,0*
20,1,$1+$1,$8,$9,$2,$3,0*%
G04 Aperture macros list end*
%ADD10C,1.840000*%
%ADD11RoundRect,0.200000X-1.000000X-1.000000X1.000000X-1.000000X1.000000X1.000000X-1.000000X1.000000X0*%
%ADD12C,2.400000*%
%ADD13RoundRect,0.200000X0.850000X-0.850000X0.850000X0.850000X-0.850000X0.850000X-0.850000X-0.850000X0*%
%ADD14O,2.100000X2.100000*%
%ADD15RoundRect,0.200000X0.850000X0.850000X-0.850000X0.850000X-0.850000X-0.850000X0.850000X-0.850000X0*%
%ADD16RoundRect,0.200000X-0.800000X0.800000X-0.800000X-0.800000X0.800000X-0.800000X0.800000X0.800000X0*%
%ADD17O,2.000000X2.000000*%
G04 APERTURE END LIST*
D10*
X125000000Y-111125000D03*
X127540000Y-113665000D03*
X130080000Y-111125000D03*
D11*
X112395000Y-98425000D03*
X111125000Y-98425000D03*
D12*
X117475000Y-98425000D03*
X118725000Y-98425000D03*
D10*
X111125000Y-111125000D03*
X113665000Y-113665000D03*
X116205000Y-111125000D03*
D13*
X111760000Y-70485000D03*
D14*
X114300000Y-70485000D03*
X116840000Y-70485000D03*
X119380000Y-70485000D03*
X121920000Y-70485000D03*
X124460000Y-70485000D03*
X127000000Y-70485000D03*
X129540000Y-70485000D03*
X132080000Y-70485000D03*
X134620000Y-70485000D03*
X137160000Y-70485000D03*
X139700000Y-70485000D03*
X142240000Y-70485000D03*
X144780000Y-70485000D03*
X147320000Y-70485000D03*
X149860000Y-70485000D03*
D15*
X166370000Y-93920000D03*
D14*
X166370000Y-91380000D03*
X166370000Y-88840000D03*
X166370000Y-86300000D03*
D16*
X135890000Y-114300000D03*
D17*
X138430000Y-114300000D03*
X140970000Y-114300000D03*
X143510000Y-114300000D03*
X146050000Y-114300000D03*
X148590000Y-114300000D03*
X151130000Y-114300000D03*
X153670000Y-114300000D03*
X158750000Y-114300000D03*
X161290000Y-114300000D03*
X163830000Y-114300000D03*
X166370000Y-114300000D03*
X168910000Y-114300000D03*
X171450000Y-114300000D03*
X171450000Y-66040000D03*
X168910000Y-66040000D03*
X166370000Y-66040000D03*
X163830000Y-66040000D03*
X161290000Y-66040000D03*
X158750000Y-66040000D03*
X156210000Y-66040000D03*
X153670000Y-66040000D03*
X149610000Y-66040000D03*
X147070000Y-66040000D03*
X144530000Y-66040000D03*
X141990000Y-66040000D03*
X139450000Y-66040000D03*
X136910000Y-66040000D03*
X134370000Y-66040000D03*
X131830000Y-66040000D03*
X129290000Y-66040000D03*
X126750000Y-66040000D03*
M02*
