%TF.GenerationSoftware,KiCad,Pcbnew,6.0.11-2627ca5db0~126~ubuntu20.04.1*%
%TF.CreationDate,2023-03-17T11:38:59+01:00*%
%TF.ProjectId,shield_a,73686965-6c64-45f6-912e-6b696361645f,2.0.1*%
%TF.SameCoordinates,Original*%
%TF.FileFunction,Copper,L2,Bot*%
%TF.FilePolarity,Positive*%
%FSLAX46Y46*%
G04 Gerber Fmt 4.6, Leading zero omitted, Abs format (unit mm)*
G04 Created by KiCad (PCBNEW 6.0.11-2627ca5db0~126~ubuntu20.04.1) date 2023-03-17 11:38:59*
%MOMM*%
%LPD*%
G01*
G04 APERTURE LIST*
%TA.AperFunction,ComponentPad*%
%ADD10C,1.440000*%
%TD*%
%TA.AperFunction,ComponentPad*%
%ADD11R,2.000000X2.000000*%
%TD*%
%TA.AperFunction,ComponentPad*%
%ADD12C,2.000000*%
%TD*%
%TA.AperFunction,ComponentPad*%
%ADD13R,1.700000X1.700000*%
%TD*%
%TA.AperFunction,ComponentPad*%
%ADD14O,1.700000X1.700000*%
%TD*%
%TA.AperFunction,ComponentPad*%
%ADD15R,1.600000X1.600000*%
%TD*%
%TA.AperFunction,ComponentPad*%
%ADD16O,1.600000X1.600000*%
%TD*%
%TA.AperFunction,ViaPad*%
%ADD17C,0.800000*%
%TD*%
%TA.AperFunction,Conductor*%
%ADD18C,0.500000*%
%TD*%
G04 APERTURE END LIST*
D10*
X125000000Y-111125000D03*
X127540000Y-113665000D03*
X130080000Y-111125000D03*
D11*
X112395000Y-98425000D03*
X111125000Y-98425000D03*
D12*
X117475000Y-98425000D03*
X118725000Y-98425000D03*
D10*
X111125000Y-111125000D03*
X113665000Y-113665000D03*
X116205000Y-111125000D03*
D13*
X111760000Y-70485000D03*
D14*
X114300000Y-70485000D03*
X116840000Y-70485000D03*
X119380000Y-70485000D03*
X121920000Y-70485000D03*
X124460000Y-70485000D03*
X127000000Y-70485000D03*
X129540000Y-70485000D03*
X132080000Y-70485000D03*
X134620000Y-70485000D03*
X137160000Y-70485000D03*
X139700000Y-70485000D03*
X142240000Y-70485000D03*
X144780000Y-70485000D03*
X147320000Y-70485000D03*
X149860000Y-70485000D03*
D13*
X166370000Y-93920000D03*
D14*
X166370000Y-91380000D03*
X166370000Y-88840000D03*
X166370000Y-86300000D03*
D15*
X135890000Y-114300000D03*
D16*
X138430000Y-114300000D03*
X140970000Y-114300000D03*
X143510000Y-114300000D03*
X146050000Y-114300000D03*
X148590000Y-114300000D03*
X151130000Y-114300000D03*
X153670000Y-114300000D03*
X158750000Y-114300000D03*
X161290000Y-114300000D03*
X163830000Y-114300000D03*
X166370000Y-114300000D03*
X168910000Y-114300000D03*
X171450000Y-114300000D03*
X171450000Y-66040000D03*
X168910000Y-66040000D03*
X166370000Y-66040000D03*
X163830000Y-66040000D03*
X161290000Y-66040000D03*
X158750000Y-66040000D03*
X156210000Y-66040000D03*
X153670000Y-66040000D03*
X149610000Y-66040000D03*
X147070000Y-66040000D03*
X144530000Y-66040000D03*
X141990000Y-66040000D03*
X139450000Y-66040000D03*
X136910000Y-66040000D03*
X134370000Y-66040000D03*
X131830000Y-66040000D03*
X129290000Y-66040000D03*
X126750000Y-66040000D03*
D17*
X135636000Y-85000000D03*
X173750000Y-111252000D03*
X148082000Y-101854000D03*
X119888000Y-65786000D03*
X140462000Y-85000000D03*
X149683109Y-91577109D03*
X115945400Y-90400000D03*
X153924000Y-111252000D03*
X115945400Y-91500000D03*
X126228100Y-82550000D03*
X158355700Y-101670000D03*
X117475000Y-91500000D03*
X156210000Y-82550000D03*
X166250000Y-99650000D03*
X150368000Y-111252000D03*
X173750000Y-104140000D03*
X123952000Y-77343000D03*
X117475000Y-90400000D03*
X162560000Y-111252000D03*
X115945400Y-108966000D03*
X158355700Y-108966000D03*
X158048900Y-68072000D03*
X145542000Y-85000000D03*
X148082000Y-76448100D03*
X141605000Y-91500000D03*
X152022100Y-94500000D03*
X140970000Y-99568000D03*
X130600000Y-89550500D03*
X128817400Y-91500000D03*
X119380000Y-73786000D03*
X125436400Y-67241100D03*
X132000000Y-78032200D03*
X126228100Y-76017800D03*
X136236900Y-78032200D03*
X137697300Y-76402300D03*
X141134700Y-76448100D03*
X153500000Y-93000000D03*
X151000000Y-95500000D03*
X155720500Y-104950000D03*
X125537500Y-90400000D03*
X123495312Y-81250000D03*
X119908000Y-90400000D03*
X119908000Y-81947100D03*
X173750000Y-97250000D03*
X158048900Y-69771900D03*
D18*
X115945400Y-88430000D02*
X115965400Y-88450000D01*
X158355700Y-108598300D02*
X158355700Y-101670000D01*
X117475000Y-90805000D02*
X117475000Y-90375000D01*
X117475000Y-92075000D02*
X117475000Y-90805000D01*
X117475000Y-107436400D02*
X115945400Y-108966000D01*
X113097527Y-115035000D02*
X111125000Y-113062473D01*
X165040000Y-91380000D02*
X156210000Y-82550000D01*
X126228100Y-79619100D02*
X123952000Y-77343000D01*
X125000000Y-111125000D02*
X121090000Y-115035000D01*
X126228100Y-82550000D02*
X126228100Y-79619100D01*
X156210000Y-82550000D02*
X156210000Y-69910900D01*
X149683109Y-91577109D02*
X148082000Y-89976000D01*
X142053000Y-91948000D02*
X141605000Y-91500000D01*
X117475000Y-89959600D02*
X115965400Y-88450000D01*
X149312218Y-91948000D02*
X142053000Y-91948000D01*
X128678100Y-85000000D02*
X126228100Y-82550000D01*
X148082000Y-89976000D02*
X148082000Y-76448100D01*
X141605000Y-89535000D02*
X145542000Y-85598000D01*
X117475000Y-98425000D02*
X117106900Y-98793100D01*
X156210000Y-69910900D02*
X158048900Y-68072000D01*
X145542000Y-85000000D02*
X128678100Y-85000000D01*
X121090000Y-115035000D02*
X113097527Y-115035000D01*
X111760000Y-84244600D02*
X115945400Y-88430000D01*
X117475000Y-90400000D02*
X115945400Y-90400000D01*
X111760000Y-70485000D02*
X111760000Y-84244600D01*
X123952000Y-77343000D02*
X123952000Y-72517000D01*
X117475000Y-98425000D02*
X117475000Y-107436400D01*
X117475000Y-98425000D02*
X117475000Y-92075000D01*
X141605000Y-91500000D02*
X141605000Y-89535000D01*
X145542000Y-85598000D02*
X145542000Y-85000000D01*
X115945400Y-91500000D02*
X117475000Y-91500000D01*
X115945400Y-90400000D02*
X115945400Y-91500000D01*
X117475000Y-90375000D02*
X117475000Y-89959600D01*
X111125000Y-113062473D02*
X111125000Y-111125000D01*
X123952000Y-72517000D02*
X121920000Y-70485000D01*
X149683109Y-91577109D02*
X149312218Y-91948000D01*
X166370000Y-91380000D02*
X165040000Y-91380000D01*
X152500000Y-94022100D02*
X152022100Y-94500000D01*
X152500000Y-70015100D02*
X152500000Y-94022100D01*
X150535381Y-68050481D02*
X152500000Y-70015100D01*
X149080480Y-68050480D02*
X150535381Y-68050481D01*
X147070000Y-66040000D02*
X149080480Y-68050480D01*
X116205000Y-111125000D02*
X122072700Y-105257300D01*
X147320000Y-70485000D02*
X150732620Y-73897620D01*
X114300000Y-70485000D02*
X114300000Y-71985300D01*
X122072700Y-79758000D02*
X122072700Y-104140000D01*
X130080000Y-109252000D02*
X126085300Y-105257300D01*
X166370000Y-93920000D02*
X164170000Y-93920000D01*
X149750000Y-93977886D02*
X149750000Y-95750000D01*
X146050000Y-112825198D02*
X146050000Y-114300000D01*
X114300000Y-71985300D02*
X122072700Y-79758000D01*
X155625000Y-101578086D02*
X163283086Y-93920000D01*
X126085300Y-105257300D02*
X122072700Y-105257300D01*
X149750000Y-95750000D02*
X155625000Y-101625000D01*
X150732620Y-73897620D02*
X150732620Y-92995266D01*
X122072700Y-105257300D02*
X122072700Y-104140000D01*
X150732620Y-92995266D02*
X149750000Y-93977886D01*
X130080000Y-111125000D02*
X130080000Y-109252000D01*
X155625000Y-101578086D02*
X155625000Y-103250198D01*
X163283086Y-93920000D02*
X164170000Y-93920000D01*
X155625000Y-103250198D02*
X146050000Y-112825198D01*
X129679900Y-115804900D02*
X155794800Y-115804900D01*
X157299700Y-114300000D02*
X158750000Y-114300000D01*
X127540000Y-113665000D02*
X129679900Y-115804900D01*
X155794800Y-115804900D02*
X157299700Y-114300000D01*
X140970000Y-114300000D02*
X140970000Y-99568000D01*
X135405000Y-64535000D02*
X113749200Y-64535000D01*
X112395000Y-98425000D02*
X112395000Y-88542800D01*
X136910000Y-66040000D02*
X135405000Y-64535000D01*
X109312200Y-68972000D02*
X109312200Y-85460000D01*
X112395000Y-88542800D02*
X109312200Y-85460000D01*
X113749200Y-64535000D02*
X109312200Y-68972000D01*
X170386800Y-115776800D02*
X168910000Y-114300000D01*
X172042610Y-112169504D02*
X172943200Y-113070094D01*
X172943200Y-114921200D02*
X172087600Y-115776800D01*
X172042900Y-95342900D02*
X172042900Y-91972900D01*
X172042610Y-100957390D02*
X172042610Y-112169504D01*
X172087600Y-115776800D02*
X170386800Y-115776800D01*
X172943200Y-113070094D02*
X172943200Y-114921200D01*
X172042900Y-100957100D02*
X172042610Y-100957390D01*
X172042900Y-95342900D02*
X172042900Y-100957100D01*
X172042900Y-91972900D02*
X166370000Y-86300000D01*
X130600000Y-89550500D02*
X128817400Y-91333100D01*
X128817400Y-91333100D02*
X128817400Y-91500000D01*
X119380000Y-70485000D02*
X119380000Y-73786000D01*
X141990000Y-66040000D02*
X140493700Y-67536300D01*
X125731600Y-67536300D02*
X125436400Y-67241100D01*
X140493700Y-67536300D02*
X125731600Y-67536300D01*
X144040310Y-71224690D02*
X144040310Y-77589796D01*
X144040310Y-77589796D02*
X143979506Y-77650600D01*
X133294200Y-79326400D02*
X142304200Y-79326400D01*
X142304200Y-79326400D02*
X143980000Y-77650600D01*
X144780000Y-70485000D02*
X144040310Y-71224690D01*
X132000000Y-78032200D02*
X133294200Y-79326400D01*
X143979506Y-77650600D02*
X143980000Y-77650600D01*
X136236900Y-78032200D02*
X136630800Y-78426100D01*
X134222500Y-76017800D02*
X136236900Y-78032200D01*
X141931200Y-78426100D02*
X143140300Y-77217000D01*
X136630800Y-78426100D02*
X141931200Y-78426100D01*
X143140300Y-72885600D02*
X142240000Y-71985300D01*
X126228100Y-76017800D02*
X134222500Y-76017800D01*
X142240000Y-70485000D02*
X142240000Y-71985300D01*
X143140300Y-77217000D02*
X143140300Y-72885600D01*
X138807400Y-77512400D02*
X141571600Y-77512400D01*
X141571600Y-77512400D02*
X142240000Y-76844000D01*
X139700000Y-70485000D02*
X139700000Y-71985300D01*
X137697300Y-76402300D02*
X138807400Y-77512400D01*
X142240000Y-74525300D02*
X139700000Y-71985300D01*
X142240000Y-76844000D02*
X142240000Y-74525300D01*
X141134700Y-74894700D02*
X141134700Y-76448100D01*
X137160000Y-70485000D02*
X138009999Y-71334999D01*
X138009999Y-71769999D02*
X141134700Y-74894700D01*
X138009999Y-71334999D02*
X138009999Y-71769999D01*
X114075000Y-113255000D02*
X113665000Y-113665000D01*
X116840000Y-70485000D02*
X115301800Y-68946800D01*
X110623200Y-68946800D02*
X110259600Y-69310400D01*
X110259600Y-85133800D02*
X114075000Y-88949200D01*
X114075000Y-88949200D02*
X114075000Y-113255000D01*
X110259600Y-69310400D02*
X110259600Y-85133800D01*
X115301800Y-68946800D02*
X110623200Y-68946800D01*
X153500000Y-93000000D02*
X153543000Y-92957000D01*
X153543000Y-92957000D02*
X153543000Y-69973000D01*
X153543000Y-69973000D02*
X149610000Y-66040000D01*
X151750000Y-93250000D02*
X151000000Y-94000000D01*
X147239999Y-68749999D02*
X150245630Y-68750000D01*
X150245630Y-68750000D02*
X151750000Y-70254370D01*
X144530000Y-66040000D02*
X147239999Y-68749999D01*
X151000000Y-94000000D02*
X151000000Y-95500000D01*
X151750000Y-70254370D02*
X151750000Y-93250000D01*
X171142600Y-92345406D02*
X167637194Y-88840000D01*
X171142600Y-112542300D02*
X171142600Y-92345406D01*
X171450000Y-114300000D02*
X171450000Y-112849700D01*
X171450000Y-112849700D02*
X171142600Y-112542300D01*
X167637194Y-88840000D02*
X166370000Y-88840000D01*
X155708400Y-108718400D02*
X161290000Y-114300000D01*
X155708400Y-104962100D02*
X155708400Y-108718400D01*
X155720500Y-104950000D02*
X155708400Y-104962100D01*
X123495312Y-81250000D02*
X123476500Y-81268812D01*
X123476500Y-88151500D02*
X125537500Y-90212500D01*
X125537500Y-90212500D02*
X125604000Y-90279000D01*
X123476500Y-81268812D02*
X123476500Y-88151500D01*
X119908000Y-90400000D02*
X119908000Y-81947100D01*
X173750000Y-97250000D02*
X173990000Y-97010000D01*
X173990000Y-97010000D02*
X173990000Y-85713000D01*
X173990000Y-85713000D02*
X158048900Y-69771900D01*
%TA.AperFunction,Conductor*%
G36*
X125524669Y-65313502D02*
G01*
X125571162Y-65367158D01*
X125581266Y-65437432D01*
X125570743Y-65472749D01*
X125560273Y-65495203D01*
X125515716Y-65590757D01*
X125456457Y-65811913D01*
X125436502Y-66040000D01*
X125436981Y-66045475D01*
X125436981Y-66045476D01*
X125450265Y-66197318D01*
X125436276Y-66266923D01*
X125386876Y-66317915D01*
X125341063Y-66332600D01*
X125340913Y-66332600D01*
X125154112Y-66372306D01*
X125148082Y-66374991D01*
X125148081Y-66374991D01*
X124985678Y-66447297D01*
X124985676Y-66447298D01*
X124979648Y-66449982D01*
X124825147Y-66562234D01*
X124820726Y-66567144D01*
X124820725Y-66567145D01*
X124708520Y-66691762D01*
X124697360Y-66704156D01*
X124601873Y-66869544D01*
X124542858Y-67051172D01*
X124522896Y-67241100D01*
X124523586Y-67247665D01*
X124542100Y-67423812D01*
X124542858Y-67431028D01*
X124601873Y-67612656D01*
X124697360Y-67778044D01*
X124825147Y-67919966D01*
X124979648Y-68032218D01*
X124985676Y-68034902D01*
X124985678Y-68034903D01*
X125148081Y-68107209D01*
X125154112Y-68109894D01*
X125160567Y-68111266D01*
X125160570Y-68111267D01*
X125231146Y-68126268D01*
X125286530Y-68153491D01*
X125307885Y-68171633D01*
X125314400Y-68174960D01*
X125319450Y-68178328D01*
X125324579Y-68181495D01*
X125330316Y-68186034D01*
X125396475Y-68216955D01*
X125400369Y-68218858D01*
X125465408Y-68252069D01*
X125472517Y-68253808D01*
X125478151Y-68255904D01*
X125483921Y-68257823D01*
X125490550Y-68260922D01*
X125497713Y-68262412D01*
X125497716Y-68262413D01*
X125548430Y-68272961D01*
X125562035Y-68275791D01*
X125566301Y-68276757D01*
X125637210Y-68294108D01*
X125642812Y-68294456D01*
X125642815Y-68294456D01*
X125648364Y-68294800D01*
X125648362Y-68294835D01*
X125652334Y-68295075D01*
X125656555Y-68295452D01*
X125663715Y-68296941D01*
X125741142Y-68294846D01*
X125744550Y-68294800D01*
X140426630Y-68294800D01*
X140445580Y-68296233D01*
X140459815Y-68298399D01*
X140459819Y-68298399D01*
X140467049Y-68299499D01*
X140474341Y-68298906D01*
X140474344Y-68298906D01*
X140519718Y-68295215D01*
X140529933Y-68294800D01*
X140537993Y-68294800D01*
X140555380Y-68292773D01*
X140566207Y-68291511D01*
X140570582Y-68291078D01*
X140636039Y-68285754D01*
X140636042Y-68285753D01*
X140643337Y-68285160D01*
X140650301Y-68282904D01*
X140656260Y-68281713D01*
X140662115Y-68280329D01*
X140669381Y-68279482D01*
X140738027Y-68254565D01*
X140742155Y-68253148D01*
X140804636Y-68232907D01*
X140804638Y-68232906D01*
X140811599Y-68230651D01*
X140817854Y-68226855D01*
X140823328Y-68224349D01*
X140828758Y-68221630D01*
X140835637Y-68219133D01*
X140879573Y-68190327D01*
X140896676Y-68179114D01*
X140900380Y-68176777D01*
X140962807Y-68138895D01*
X140971184Y-68131497D01*
X140971208Y-68131524D01*
X140974200Y-68128871D01*
X140977433Y-68126168D01*
X140983552Y-68122156D01*
X141036828Y-68065917D01*
X141039206Y-68063475D01*
X141727010Y-67375671D01*
X141789322Y-67341645D01*
X141827087Y-67339245D01*
X141984525Y-67353019D01*
X141990000Y-67353498D01*
X142218087Y-67333543D01*
X142223400Y-67332119D01*
X142223402Y-67332119D01*
X142433933Y-67275707D01*
X142433935Y-67275706D01*
X142439243Y-67274284D01*
X142444225Y-67271961D01*
X142641762Y-67179849D01*
X142641767Y-67179846D01*
X142646749Y-67177523D01*
X142817824Y-67057735D01*
X142829789Y-67049357D01*
X142829792Y-67049355D01*
X142834300Y-67046198D01*
X142996198Y-66884300D01*
X143002130Y-66875829D01*
X143070770Y-66777800D01*
X143127523Y-66696749D01*
X143129846Y-66691767D01*
X143129849Y-66691762D01*
X143145805Y-66657543D01*
X143192722Y-66604258D01*
X143260999Y-66584797D01*
X143328959Y-66605339D01*
X143374195Y-66657543D01*
X143390151Y-66691762D01*
X143390154Y-66691767D01*
X143392477Y-66696749D01*
X143449230Y-66777800D01*
X143517871Y-66875829D01*
X143523802Y-66884300D01*
X143685700Y-67046198D01*
X143690208Y-67049355D01*
X143690211Y-67049357D01*
X143702176Y-67057735D01*
X143873251Y-67177523D01*
X143878233Y-67179846D01*
X143878238Y-67179849D01*
X144075775Y-67271961D01*
X144080757Y-67274284D01*
X144086065Y-67275706D01*
X144086067Y-67275707D01*
X144296598Y-67332119D01*
X144296600Y-67332119D01*
X144301913Y-67333543D01*
X144530000Y-67353498D01*
X144535475Y-67353019D01*
X144692913Y-67339245D01*
X144762518Y-67353234D01*
X144792990Y-67375671D01*
X146579589Y-69162270D01*
X146613615Y-69224582D01*
X146608550Y-69295397D01*
X146566148Y-69352124D01*
X146414965Y-69465635D01*
X146260629Y-69627138D01*
X146153201Y-69784621D01*
X146098293Y-69829621D01*
X146027768Y-69837792D01*
X145964021Y-69806538D01*
X145943324Y-69782054D01*
X145862822Y-69657617D01*
X145862820Y-69657614D01*
X145860014Y-69653277D01*
X145709670Y-69488051D01*
X145705619Y-69484852D01*
X145705615Y-69484848D01*
X145538414Y-69352800D01*
X145538410Y-69352798D01*
X145534359Y-69349598D01*
X145498028Y-69329542D01*
X145482136Y-69320769D01*
X145338789Y-69241638D01*
X145333920Y-69239914D01*
X145333916Y-69239912D01*
X145133087Y-69168795D01*
X145133083Y-69168794D01*
X145128212Y-69167069D01*
X145123119Y-69166162D01*
X145123116Y-69166161D01*
X144913373Y-69128800D01*
X144913367Y-69128799D01*
X144908284Y-69127894D01*
X144834452Y-69126992D01*
X144690081Y-69125228D01*
X144690079Y-69125228D01*
X144684911Y-69125165D01*
X144464091Y-69158955D01*
X144251756Y-69228357D01*
X144218529Y-69245654D01*
X144122974Y-69295397D01*
X144053607Y-69331507D01*
X144049474Y-69334610D01*
X144049471Y-69334612D01*
X143879100Y-69462530D01*
X143874965Y-69465635D01*
X143720629Y-69627138D01*
X143613201Y-69784621D01*
X143558293Y-69829621D01*
X143487768Y-69837792D01*
X143424021Y-69806538D01*
X143403324Y-69782054D01*
X143322822Y-69657617D01*
X143322820Y-69657614D01*
X143320014Y-69653277D01*
X143169670Y-69488051D01*
X143165619Y-69484852D01*
X143165615Y-69484848D01*
X142998414Y-69352800D01*
X142998410Y-69352798D01*
X142994359Y-69349598D01*
X142958028Y-69329542D01*
X142942136Y-69320769D01*
X142798789Y-69241638D01*
X142793920Y-69239914D01*
X142793916Y-69239912D01*
X142593087Y-69168795D01*
X142593083Y-69168794D01*
X142588212Y-69167069D01*
X142583119Y-69166162D01*
X142583116Y-69166161D01*
X142373373Y-69128800D01*
X142373367Y-69128799D01*
X142368284Y-69127894D01*
X142294452Y-69126992D01*
X142150081Y-69125228D01*
X142150079Y-69125228D01*
X142144911Y-69125165D01*
X141924091Y-69158955D01*
X141711756Y-69228357D01*
X141678529Y-69245654D01*
X141582974Y-69295397D01*
X141513607Y-69331507D01*
X141509474Y-69334610D01*
X141509471Y-69334612D01*
X141339100Y-69462530D01*
X141334965Y-69465635D01*
X141180629Y-69627138D01*
X141073201Y-69784621D01*
X141018293Y-69829621D01*
X140947768Y-69837792D01*
X140884021Y-69806538D01*
X140863324Y-69782054D01*
X140782822Y-69657617D01*
X140782820Y-69657614D01*
X140780014Y-69653277D01*
X140629670Y-69488051D01*
X140625619Y-69484852D01*
X140625615Y-69484848D01*
X140458414Y-69352800D01*
X140458410Y-69352798D01*
X140454359Y-69349598D01*
X140418028Y-69329542D01*
X140402136Y-69320769D01*
X140258789Y-69241638D01*
X140253920Y-69239914D01*
X140253916Y-69239912D01*
X140053087Y-69168795D01*
X140053083Y-69168794D01*
X140048212Y-69167069D01*
X140043119Y-69166162D01*
X140043116Y-69166161D01*
X139833373Y-69128800D01*
X139833367Y-69128799D01*
X139828284Y-69127894D01*
X139754452Y-69126992D01*
X139610081Y-69125228D01*
X139610079Y-69125228D01*
X139604911Y-69125165D01*
X139384091Y-69158955D01*
X139171756Y-69228357D01*
X139138529Y-69245654D01*
X139042974Y-69295397D01*
X138973607Y-69331507D01*
X138969474Y-69334610D01*
X138969471Y-69334612D01*
X138799100Y-69462530D01*
X138794965Y-69465635D01*
X138640629Y-69627138D01*
X138533201Y-69784621D01*
X138478293Y-69829621D01*
X138407768Y-69837792D01*
X138344021Y-69806538D01*
X138323324Y-69782054D01*
X138242822Y-69657617D01*
X138242820Y-69657614D01*
X138240014Y-69653277D01*
X138089670Y-69488051D01*
X138085619Y-69484852D01*
X138085615Y-69484848D01*
X137918414Y-69352800D01*
X137918410Y-69352798D01*
X137914359Y-69349598D01*
X137878028Y-69329542D01*
X137862136Y-69320769D01*
X137718789Y-69241638D01*
X137713920Y-69239914D01*
X137713916Y-69239912D01*
X137513087Y-69168795D01*
X137513083Y-69168794D01*
X137508212Y-69167069D01*
X137503119Y-69166162D01*
X137503116Y-69166161D01*
X137293373Y-69128800D01*
X137293367Y-69128799D01*
X137288284Y-69127894D01*
X137214452Y-69126992D01*
X137070081Y-69125228D01*
X137070079Y-69125228D01*
X137064911Y-69125165D01*
X136844091Y-69158955D01*
X136631756Y-69228357D01*
X136598529Y-69245654D01*
X136502974Y-69295397D01*
X136433607Y-69331507D01*
X136429474Y-69334610D01*
X136429471Y-69334612D01*
X136259100Y-69462530D01*
X136254965Y-69465635D01*
X136100629Y-69627138D01*
X135993201Y-69784621D01*
X135938293Y-69829621D01*
X135867768Y-69837792D01*
X135804021Y-69806538D01*
X135783324Y-69782054D01*
X135702822Y-69657617D01*
X135702820Y-69657614D01*
X135700014Y-69653277D01*
X135549670Y-69488051D01*
X135545619Y-69484852D01*
X135545615Y-69484848D01*
X135378414Y-69352800D01*
X135378410Y-69352798D01*
X135374359Y-69349598D01*
X135338028Y-69329542D01*
X135322136Y-69320769D01*
X135178789Y-69241638D01*
X135173920Y-69239914D01*
X135173916Y-69239912D01*
X134973087Y-69168795D01*
X134973083Y-69168794D01*
X134968212Y-69167069D01*
X134963119Y-69166162D01*
X134963116Y-69166161D01*
X134753373Y-69128800D01*
X134753367Y-69128799D01*
X134748284Y-69127894D01*
X134674452Y-69126992D01*
X134530081Y-69125228D01*
X134530079Y-69125228D01*
X134524911Y-69125165D01*
X134304091Y-69158955D01*
X134091756Y-69228357D01*
X134058529Y-69245654D01*
X133962974Y-69295397D01*
X133893607Y-69331507D01*
X133889474Y-69334610D01*
X133889471Y-69334612D01*
X133719100Y-69462530D01*
X133714965Y-69465635D01*
X133560629Y-69627138D01*
X133453201Y-69784621D01*
X133398293Y-69829621D01*
X133327768Y-69837792D01*
X133264021Y-69806538D01*
X133243324Y-69782054D01*
X133162822Y-69657617D01*
X133162820Y-69657614D01*
X133160014Y-69653277D01*
X133009670Y-69488051D01*
X133005619Y-69484852D01*
X133005615Y-69484848D01*
X132838414Y-69352800D01*
X132838410Y-69352798D01*
X132834359Y-69349598D01*
X132798028Y-69329542D01*
X132782136Y-69320769D01*
X132638789Y-69241638D01*
X132633920Y-69239914D01*
X132633916Y-69239912D01*
X132433087Y-69168795D01*
X132433083Y-69168794D01*
X132428212Y-69167069D01*
X132423119Y-69166162D01*
X132423116Y-69166161D01*
X132213373Y-69128800D01*
X132213367Y-69128799D01*
X132208284Y-69127894D01*
X132134452Y-69126992D01*
X131990081Y-69125228D01*
X131990079Y-69125228D01*
X131984911Y-69125165D01*
X131764091Y-69158955D01*
X131551756Y-69228357D01*
X131518529Y-69245654D01*
X131422974Y-69295397D01*
X131353607Y-69331507D01*
X131349474Y-69334610D01*
X131349471Y-69334612D01*
X131179100Y-69462530D01*
X131174965Y-69465635D01*
X131020629Y-69627138D01*
X130913201Y-69784621D01*
X130858293Y-69829621D01*
X130787768Y-69837792D01*
X130724021Y-69806538D01*
X130703324Y-69782054D01*
X130622822Y-69657617D01*
X130622820Y-69657614D01*
X130620014Y-69653277D01*
X130469670Y-69488051D01*
X130465619Y-69484852D01*
X130465615Y-69484848D01*
X130298414Y-69352800D01*
X130298410Y-69352798D01*
X130294359Y-69349598D01*
X130258028Y-69329542D01*
X130242136Y-69320769D01*
X130098789Y-69241638D01*
X130093920Y-69239914D01*
X130093916Y-69239912D01*
X129893087Y-69168795D01*
X129893083Y-69168794D01*
X129888212Y-69167069D01*
X129883119Y-69166162D01*
X129883116Y-69166161D01*
X129673373Y-69128800D01*
X129673367Y-69128799D01*
X129668284Y-69127894D01*
X129594452Y-69126992D01*
X129450081Y-69125228D01*
X129450079Y-69125228D01*
X129444911Y-69125165D01*
X129224091Y-69158955D01*
X129011756Y-69228357D01*
X128978529Y-69245654D01*
X128882974Y-69295397D01*
X128813607Y-69331507D01*
X128809474Y-69334610D01*
X128809471Y-69334612D01*
X128639100Y-69462530D01*
X128634965Y-69465635D01*
X128480629Y-69627138D01*
X128373201Y-69784621D01*
X128318293Y-69829621D01*
X128247768Y-69837792D01*
X128184021Y-69806538D01*
X128163324Y-69782054D01*
X128082822Y-69657617D01*
X128082820Y-69657614D01*
X128080014Y-69653277D01*
X127929670Y-69488051D01*
X127925619Y-69484852D01*
X127925615Y-69484848D01*
X127758414Y-69352800D01*
X127758410Y-69352798D01*
X127754359Y-69349598D01*
X127718028Y-69329542D01*
X127702136Y-69320769D01*
X127558789Y-69241638D01*
X127553920Y-69239914D01*
X127553916Y-69239912D01*
X127353087Y-69168795D01*
X127353083Y-69168794D01*
X127348212Y-69167069D01*
X127343119Y-69166162D01*
X127343116Y-69166161D01*
X127133373Y-69128800D01*
X127133367Y-69128799D01*
X127128284Y-69127894D01*
X127054452Y-69126992D01*
X126910081Y-69125228D01*
X126910079Y-69125228D01*
X126904911Y-69125165D01*
X126684091Y-69158955D01*
X126471756Y-69228357D01*
X126438529Y-69245654D01*
X126342974Y-69295397D01*
X126273607Y-69331507D01*
X126269474Y-69334610D01*
X126269471Y-69334612D01*
X126099100Y-69462530D01*
X126094965Y-69465635D01*
X125940629Y-69627138D01*
X125833201Y-69784621D01*
X125778293Y-69829621D01*
X125707768Y-69837792D01*
X125644021Y-69806538D01*
X125623324Y-69782054D01*
X125542822Y-69657617D01*
X125542820Y-69657614D01*
X125540014Y-69653277D01*
X125389670Y-69488051D01*
X125385619Y-69484852D01*
X125385615Y-69484848D01*
X125218414Y-69352800D01*
X125218410Y-69352798D01*
X125214359Y-69349598D01*
X125178028Y-69329542D01*
X125162136Y-69320769D01*
X125018789Y-69241638D01*
X125013920Y-69239914D01*
X125013916Y-69239912D01*
X124813087Y-69168795D01*
X124813083Y-69168794D01*
X124808212Y-69167069D01*
X124803119Y-69166162D01*
X124803116Y-69166161D01*
X124593373Y-69128800D01*
X124593367Y-69128799D01*
X124588284Y-69127894D01*
X124514452Y-69126992D01*
X124370081Y-69125228D01*
X124370079Y-69125228D01*
X124364911Y-69125165D01*
X124144091Y-69158955D01*
X123931756Y-69228357D01*
X123898529Y-69245654D01*
X123802974Y-69295397D01*
X123733607Y-69331507D01*
X123729474Y-69334610D01*
X123729471Y-69334612D01*
X123559100Y-69462530D01*
X123554965Y-69465635D01*
X123400629Y-69627138D01*
X123293204Y-69784618D01*
X123292898Y-69785066D01*
X123237987Y-69830069D01*
X123167462Y-69838240D01*
X123103715Y-69806986D01*
X123083018Y-69782502D01*
X123002426Y-69657926D01*
X122996136Y-69649757D01*
X122852806Y-69492240D01*
X122845273Y-69485215D01*
X122678139Y-69353222D01*
X122669552Y-69347517D01*
X122483117Y-69244599D01*
X122473705Y-69240369D01*
X122272959Y-69169280D01*
X122262988Y-69166646D01*
X122191837Y-69153972D01*
X122178540Y-69155432D01*
X122174000Y-69169989D01*
X122174000Y-71803517D01*
X122178064Y-71817359D01*
X122191478Y-71819393D01*
X122198184Y-71818534D01*
X122208262Y-71816392D01*
X122412255Y-71755191D01*
X122421842Y-71751433D01*
X122613095Y-71657739D01*
X122621945Y-71652464D01*
X122795328Y-71528792D01*
X122803200Y-71522139D01*
X122954052Y-71371812D01*
X122960730Y-71363965D01*
X123088022Y-71186819D01*
X123089279Y-71187722D01*
X123136373Y-71144362D01*
X123206311Y-71132145D01*
X123271751Y-71159678D01*
X123299579Y-71191511D01*
X123359987Y-71290088D01*
X123506250Y-71458938D01*
X123678126Y-71601632D01*
X123871000Y-71714338D01*
X124079692Y-71794030D01*
X124084760Y-71795061D01*
X124084763Y-71795062D01*
X124179862Y-71814410D01*
X124298597Y-71838567D01*
X124303772Y-71838757D01*
X124303774Y-71838757D01*
X124516673Y-71846564D01*
X124516677Y-71846564D01*
X124521837Y-71846753D01*
X124526957Y-71846097D01*
X124526959Y-71846097D01*
X124738288Y-71819025D01*
X124738289Y-71819025D01*
X124743416Y-71818368D01*
X124748366Y-71816883D01*
X124952429Y-71755661D01*
X124952434Y-71755659D01*
X124957384Y-71754174D01*
X125157994Y-71655896D01*
X125339860Y-71526173D01*
X125498096Y-71368489D01*
X125628453Y-71187077D01*
X125629776Y-71188028D01*
X125676645Y-71144857D01*
X125746580Y-71132625D01*
X125812026Y-71160144D01*
X125839875Y-71191994D01*
X125899987Y-71290088D01*
X126046250Y-71458938D01*
X126218126Y-71601632D01*
X126411000Y-71714338D01*
X126619692Y-71794030D01*
X126624760Y-71795061D01*
X126624763Y-71795062D01*
X126719862Y-71814410D01*
X126838597Y-71838567D01*
X126843772Y-71838757D01*
X126843774Y-71838757D01*
X127056673Y-71846564D01*
X127056677Y-71846564D01*
X127061837Y-71846753D01*
X127066957Y-71846097D01*
X127066959Y-71846097D01*
X127278288Y-71819025D01*
X127278289Y-71819025D01*
X127283416Y-71818368D01*
X127288366Y-71816883D01*
X127492429Y-71755661D01*
X127492434Y-71755659D01*
X127497384Y-71754174D01*
X127697994Y-71655896D01*
X127879860Y-71526173D01*
X128038096Y-71368489D01*
X128168453Y-71187077D01*
X128169776Y-71188028D01*
X128216645Y-71144857D01*
X128286580Y-71132625D01*
X128352026Y-71160144D01*
X128379875Y-71191994D01*
X128439987Y-71290088D01*
X128586250Y-71458938D01*
X128758126Y-71601632D01*
X128951000Y-71714338D01*
X129159692Y-71794030D01*
X129164760Y-71795061D01*
X129164763Y-71795062D01*
X129259862Y-71814410D01*
X129378597Y-71838567D01*
X129383772Y-71838757D01*
X129383774Y-71838757D01*
X129596673Y-71846564D01*
X129596677Y-71846564D01*
X129601837Y-71846753D01*
X129606957Y-71846097D01*
X129606959Y-71846097D01*
X129818288Y-71819025D01*
X129818289Y-71819025D01*
X129823416Y-71818368D01*
X129828366Y-71816883D01*
X130032429Y-71755661D01*
X130032434Y-71755659D01*
X130037384Y-71754174D01*
X130237994Y-71655896D01*
X130419860Y-71526173D01*
X130578096Y-71368489D01*
X130708453Y-71187077D01*
X130709776Y-71188028D01*
X130756645Y-71144857D01*
X130826580Y-71132625D01*
X130892026Y-71160144D01*
X130919875Y-71191994D01*
X130979987Y-71290088D01*
X131126250Y-71458938D01*
X131298126Y-71601632D01*
X131491000Y-71714338D01*
X131699692Y-71794030D01*
X131704760Y-71795061D01*
X131704763Y-71795062D01*
X131799862Y-71814410D01*
X131918597Y-71838567D01*
X131923772Y-71838757D01*
X131923774Y-71838757D01*
X132136673Y-71846564D01*
X132136677Y-71846564D01*
X132141837Y-71846753D01*
X132146957Y-71846097D01*
X132146959Y-71846097D01*
X132358288Y-71819025D01*
X132358289Y-71819025D01*
X132363416Y-71818368D01*
X132368366Y-71816883D01*
X132572429Y-71755661D01*
X132572434Y-71755659D01*
X132577384Y-71754174D01*
X132777994Y-71655896D01*
X132959860Y-71526173D01*
X133118096Y-71368489D01*
X133248453Y-71187077D01*
X133249776Y-71188028D01*
X133296645Y-71144857D01*
X133366580Y-71132625D01*
X133432026Y-71160144D01*
X133459875Y-71191994D01*
X133519987Y-71290088D01*
X133666250Y-71458938D01*
X133838126Y-71601632D01*
X134031000Y-71714338D01*
X134239692Y-71794030D01*
X134244760Y-71795061D01*
X134244763Y-71795062D01*
X134339862Y-71814410D01*
X134458597Y-71838567D01*
X134463772Y-71838757D01*
X134463774Y-71838757D01*
X134676673Y-71846564D01*
X134676677Y-71846564D01*
X134681837Y-71846753D01*
X134686957Y-71846097D01*
X134686959Y-71846097D01*
X134898288Y-71819025D01*
X134898289Y-71819025D01*
X134903416Y-71818368D01*
X134908366Y-71816883D01*
X135112429Y-71755661D01*
X135112434Y-71755659D01*
X135117384Y-71754174D01*
X135317994Y-71655896D01*
X135499860Y-71526173D01*
X135658096Y-71368489D01*
X135788453Y-71187077D01*
X135789776Y-71188028D01*
X135836645Y-71144857D01*
X135906580Y-71132625D01*
X135972026Y-71160144D01*
X135999875Y-71191994D01*
X136059987Y-71290088D01*
X136206250Y-71458938D01*
X136378126Y-71601632D01*
X136571000Y-71714338D01*
X136779692Y-71794030D01*
X136784760Y-71795061D01*
X136784763Y-71795062D01*
X136879862Y-71814410D01*
X136998597Y-71838567D01*
X137003771Y-71838757D01*
X137003773Y-71838757D01*
X137148578Y-71844067D01*
X137215919Y-71866552D01*
X137260415Y-71921875D01*
X137266096Y-71939493D01*
X137266817Y-71945680D01*
X137269312Y-71952553D01*
X137269312Y-71952554D01*
X137273160Y-71963154D01*
X137291734Y-72014326D01*
X137293151Y-72018454D01*
X137306608Y-72059992D01*
X137315648Y-72087898D01*
X137319444Y-72094153D01*
X137321950Y-72099627D01*
X137324669Y-72105057D01*
X137327166Y-72111936D01*
X137331179Y-72118056D01*
X137331179Y-72118057D01*
X137367185Y-72172975D01*
X137369522Y-72176679D01*
X137407404Y-72239106D01*
X137411120Y-72243314D01*
X137411121Y-72243315D01*
X137414802Y-72247483D01*
X137414775Y-72247507D01*
X137417428Y-72250499D01*
X137420131Y-72253732D01*
X137424143Y-72259851D01*
X137429455Y-72264883D01*
X137480382Y-72313127D01*
X137482824Y-72315505D01*
X140339295Y-75171976D01*
X140373321Y-75234288D01*
X140376200Y-75261071D01*
X140376200Y-75911101D01*
X140359319Y-75974100D01*
X140300173Y-76076544D01*
X140241158Y-76258172D01*
X140221196Y-76448100D01*
X140221886Y-76454665D01*
X140238709Y-76614730D01*
X140225937Y-76684568D01*
X140177435Y-76736415D01*
X140113399Y-76753900D01*
X139173771Y-76753900D01*
X139105650Y-76733898D01*
X139084676Y-76716995D01*
X138617425Y-76249744D01*
X138586687Y-76199585D01*
X138548751Y-76082829D01*
X138531827Y-76030744D01*
X138520564Y-76011235D01*
X138439641Y-75871074D01*
X138436340Y-75865356D01*
X138308553Y-75723434D01*
X138154052Y-75611182D01*
X138148024Y-75608498D01*
X138148022Y-75608497D01*
X137985619Y-75536191D01*
X137985618Y-75536191D01*
X137979588Y-75533506D01*
X137886188Y-75513653D01*
X137799244Y-75495172D01*
X137799239Y-75495172D01*
X137792787Y-75493800D01*
X137601813Y-75493800D01*
X137595361Y-75495172D01*
X137595356Y-75495172D01*
X137508412Y-75513653D01*
X137415012Y-75533506D01*
X137408982Y-75536191D01*
X137408981Y-75536191D01*
X137246578Y-75608497D01*
X137246576Y-75608498D01*
X137240548Y-75611182D01*
X137086047Y-75723434D01*
X136958260Y-75865356D01*
X136954959Y-75871074D01*
X136874037Y-76011235D01*
X136862773Y-76030744D01*
X136803758Y-76212372D01*
X136783796Y-76402300D01*
X136803758Y-76592228D01*
X136862773Y-76773856D01*
X136866076Y-76779578D01*
X136866077Y-76779579D01*
X136869526Y-76785552D01*
X136958260Y-76939244D01*
X137086047Y-77081166D01*
X137240548Y-77193418D01*
X137246576Y-77196102D01*
X137246578Y-77196103D01*
X137408981Y-77268409D01*
X137415012Y-77271094D01*
X137421467Y-77272466D01*
X137421476Y-77272469D01*
X137478072Y-77284499D01*
X137540969Y-77318650D01*
X137674824Y-77452505D01*
X137708850Y-77514817D01*
X137703785Y-77585632D01*
X137661238Y-77642468D01*
X137594718Y-77667279D01*
X137585729Y-77667600D01*
X137148189Y-77667600D01*
X137080068Y-77647598D01*
X137039070Y-77604600D01*
X137023046Y-77576846D01*
X136975940Y-77495256D01*
X136848153Y-77353334D01*
X136693652Y-77241082D01*
X136687624Y-77238398D01*
X136687622Y-77238397D01*
X136525219Y-77166091D01*
X136525218Y-77166091D01*
X136519188Y-77163406D01*
X136512733Y-77162034D01*
X136512724Y-77162031D01*
X136456128Y-77150001D01*
X136393231Y-77115850D01*
X134806270Y-75528889D01*
X134793884Y-75514477D01*
X134785351Y-75502882D01*
X134785346Y-75502877D01*
X134781008Y-75496982D01*
X134775430Y-75492243D01*
X134775427Y-75492240D01*
X134740732Y-75462765D01*
X134733216Y-75455835D01*
X134727521Y-75450140D01*
X134721380Y-75445282D01*
X134705249Y-75432519D01*
X134701845Y-75429728D01*
X134651797Y-75387209D01*
X134651795Y-75387208D01*
X134646215Y-75382467D01*
X134639699Y-75379139D01*
X134634650Y-75375772D01*
X134629521Y-75372605D01*
X134623784Y-75368066D01*
X134557625Y-75337145D01*
X134553725Y-75335239D01*
X134553357Y-75335051D01*
X134488692Y-75302031D01*
X134481584Y-75300292D01*
X134475941Y-75298193D01*
X134470178Y-75296276D01*
X134463550Y-75293178D01*
X134392083Y-75278313D01*
X134387799Y-75277343D01*
X134316890Y-75259992D01*
X134311288Y-75259644D01*
X134311285Y-75259644D01*
X134305736Y-75259300D01*
X134305738Y-75259264D01*
X134301745Y-75259025D01*
X134297553Y-75258651D01*
X134290385Y-75257160D01*
X134224175Y-75258951D01*
X134212979Y-75259254D01*
X134209572Y-75259300D01*
X126770687Y-75259300D01*
X126696628Y-75235237D01*
X126690198Y-75230565D01*
X126690191Y-75230561D01*
X126684852Y-75226682D01*
X126678824Y-75223998D01*
X126678822Y-75223997D01*
X126516419Y-75151691D01*
X126516418Y-75151691D01*
X126510388Y-75149006D01*
X126416987Y-75129153D01*
X126330044Y-75110672D01*
X126330039Y-75110672D01*
X126323587Y-75109300D01*
X126132613Y-75109300D01*
X126126161Y-75110672D01*
X126126156Y-75110672D01*
X126039213Y-75129153D01*
X125945812Y-75149006D01*
X125939782Y-75151691D01*
X125939781Y-75151691D01*
X125777378Y-75223997D01*
X125777376Y-75223998D01*
X125771348Y-75226682D01*
X125766007Y-75230562D01*
X125766006Y-75230563D01*
X125760879Y-75234288D01*
X125616847Y-75338934D01*
X125612426Y-75343844D01*
X125612425Y-75343845D01*
X125508329Y-75459456D01*
X125489060Y-75480856D01*
X125393573Y-75646244D01*
X125334558Y-75827872D01*
X125314596Y-76017800D01*
X125334558Y-76207728D01*
X125393573Y-76389356D01*
X125396876Y-76395078D01*
X125396877Y-76395079D01*
X125407108Y-76412800D01*
X125489060Y-76554744D01*
X125493478Y-76559651D01*
X125493479Y-76559652D01*
X125564049Y-76638028D01*
X125616847Y-76696666D01*
X125695623Y-76753900D01*
X125766004Y-76805035D01*
X125771348Y-76808918D01*
X125777376Y-76811602D01*
X125777378Y-76811603D01*
X125939781Y-76883909D01*
X125945812Y-76886594D01*
X126039212Y-76906447D01*
X126126156Y-76924928D01*
X126126161Y-76924928D01*
X126132613Y-76926300D01*
X126323587Y-76926300D01*
X126330039Y-76924928D01*
X126330044Y-76924928D01*
X126416988Y-76906447D01*
X126510388Y-76886594D01*
X126516419Y-76883909D01*
X126678822Y-76811603D01*
X126678824Y-76811602D01*
X126684852Y-76808918D01*
X126690191Y-76805039D01*
X126690198Y-76805035D01*
X126696628Y-76800363D01*
X126770687Y-76776300D01*
X133856129Y-76776300D01*
X133924250Y-76796302D01*
X133945224Y-76813205D01*
X135316775Y-78184756D01*
X135347512Y-78234912D01*
X135402116Y-78402965D01*
X135404144Y-78473931D01*
X135367481Y-78534729D01*
X135303769Y-78566055D01*
X135282283Y-78567900D01*
X133660571Y-78567900D01*
X133592450Y-78547898D01*
X133571476Y-78530995D01*
X132920125Y-77879644D01*
X132889387Y-77829485D01*
X132836569Y-77666929D01*
X132834527Y-77660644D01*
X132739040Y-77495256D01*
X132611253Y-77353334D01*
X132456752Y-77241082D01*
X132450724Y-77238398D01*
X132450722Y-77238397D01*
X132288319Y-77166091D01*
X132288318Y-77166091D01*
X132282288Y-77163406D01*
X132188887Y-77143553D01*
X132101944Y-77125072D01*
X132101939Y-77125072D01*
X132095487Y-77123700D01*
X131904513Y-77123700D01*
X131898061Y-77125072D01*
X131898056Y-77125072D01*
X131811113Y-77143553D01*
X131717712Y-77163406D01*
X131711682Y-77166091D01*
X131711681Y-77166091D01*
X131549278Y-77238397D01*
X131549276Y-77238398D01*
X131543248Y-77241082D01*
X131388747Y-77353334D01*
X131260960Y-77495256D01*
X131165473Y-77660644D01*
X131106458Y-77842272D01*
X131086496Y-78032200D01*
X131106458Y-78222128D01*
X131165473Y-78403756D01*
X131260960Y-78569144D01*
X131388747Y-78711066D01*
X131543248Y-78823318D01*
X131549276Y-78826002D01*
X131549278Y-78826003D01*
X131648841Y-78870331D01*
X131717712Y-78900994D01*
X131724167Y-78902366D01*
X131724176Y-78902369D01*
X131780772Y-78914399D01*
X131843669Y-78948550D01*
X132710430Y-79815311D01*
X132722816Y-79829723D01*
X132731349Y-79841318D01*
X132731354Y-79841323D01*
X132735692Y-79847218D01*
X132741270Y-79851957D01*
X132741273Y-79851960D01*
X132775968Y-79881435D01*
X132783484Y-79888365D01*
X132789179Y-79894060D01*
X132792061Y-79896340D01*
X132811451Y-79911681D01*
X132814855Y-79914472D01*
X132864903Y-79956991D01*
X132870485Y-79961733D01*
X132877001Y-79965061D01*
X132882050Y-79968428D01*
X132887179Y-79971595D01*
X132892916Y-79976134D01*
X132959075Y-80007055D01*
X132962969Y-80008958D01*
X133028008Y-80042169D01*
X133035116Y-80043908D01*
X133040759Y-80046007D01*
X133046522Y-80047924D01*
X133053150Y-80051022D01*
X133060312Y-80052512D01*
X133060313Y-80052512D01*
X133124612Y-80065886D01*
X133128896Y-80066856D01*
X133199810Y-80084208D01*
X133205412Y-80084556D01*
X133205415Y-80084556D01*
X133210964Y-80084900D01*
X133210962Y-80084936D01*
X133214955Y-80085175D01*
X133219147Y-80085549D01*
X133226315Y-80087040D01*
X133303720Y-80084946D01*
X133307128Y-80084900D01*
X142237130Y-80084900D01*
X142256080Y-80086333D01*
X142270315Y-80088499D01*
X142270319Y-80088499D01*
X142277549Y-80089599D01*
X142284841Y-80089006D01*
X142284844Y-80089006D01*
X142330218Y-80085315D01*
X142340433Y-80084900D01*
X142348493Y-80084900D01*
X142365880Y-80082873D01*
X142376707Y-80081611D01*
X142381082Y-80081178D01*
X142446539Y-80075854D01*
X142446542Y-80075853D01*
X142453837Y-80075260D01*
X142460801Y-80073004D01*
X142466760Y-80071813D01*
X142472615Y-80070429D01*
X142479881Y-80069582D01*
X142548527Y-80044665D01*
X142552655Y-80043248D01*
X142615136Y-80023007D01*
X142615138Y-80023006D01*
X142622099Y-80020751D01*
X142628354Y-80016955D01*
X142633828Y-80014449D01*
X142639258Y-80011730D01*
X142646137Y-80009233D01*
X142652258Y-80005220D01*
X142707176Y-79969214D01*
X142710880Y-79966877D01*
X142773307Y-79928995D01*
X142781684Y-79921597D01*
X142781708Y-79921624D01*
X142784700Y-79918971D01*
X142787933Y-79916268D01*
X142794052Y-79912256D01*
X142847328Y-79856017D01*
X142849706Y-79853575D01*
X144454150Y-78249131D01*
X144462423Y-78241563D01*
X144463732Y-78240468D01*
X144469852Y-78236456D01*
X144523128Y-78180217D01*
X144525506Y-78177775D01*
X144531095Y-78172186D01*
X144545508Y-78159799D01*
X144555229Y-78152645D01*
X144561128Y-78148304D01*
X144595345Y-78108028D01*
X144602275Y-78100512D01*
X144607970Y-78094817D01*
X144625591Y-78072545D01*
X144628382Y-78069141D01*
X144670901Y-78019093D01*
X144670902Y-78019091D01*
X144675643Y-78013511D01*
X144678971Y-78006995D01*
X144682338Y-78001946D01*
X144685505Y-77996817D01*
X144690044Y-77991080D01*
X144720965Y-77924921D01*
X144722871Y-77921021D01*
X144756079Y-77855988D01*
X144757818Y-77848879D01*
X144759914Y-77843245D01*
X144761833Y-77837475D01*
X144764932Y-77830846D01*
X144779801Y-77759361D01*
X144780771Y-77755078D01*
X144796783Y-77689640D01*
X144798118Y-77684186D01*
X144798810Y-77673032D01*
X144798845Y-77673034D01*
X144799085Y-77669062D01*
X144799462Y-77664841D01*
X144800951Y-77657681D01*
X144798856Y-77580254D01*
X144798810Y-77576846D01*
X144798810Y-71963154D01*
X144818812Y-71895033D01*
X144872468Y-71848540D01*
X144908800Y-71838175D01*
X145058288Y-71819025D01*
X145058289Y-71819025D01*
X145063416Y-71818368D01*
X145068366Y-71816883D01*
X145272429Y-71755661D01*
X145272434Y-71755659D01*
X145277384Y-71754174D01*
X145477994Y-71655896D01*
X145659860Y-71526173D01*
X145818096Y-71368489D01*
X145948453Y-71187077D01*
X145949776Y-71188028D01*
X145996645Y-71144857D01*
X146066580Y-71132625D01*
X146132026Y-71160144D01*
X146159875Y-71191994D01*
X146219987Y-71290088D01*
X146366250Y-71458938D01*
X146538126Y-71601632D01*
X146731000Y-71714338D01*
X146939692Y-71794030D01*
X146944760Y-71795061D01*
X146944763Y-71795062D01*
X147039862Y-71814410D01*
X147158597Y-71838567D01*
X147163772Y-71838757D01*
X147163774Y-71838757D01*
X147376673Y-71846564D01*
X147376677Y-71846564D01*
X147381837Y-71846753D01*
X147521908Y-71828809D01*
X147592017Y-71839993D01*
X147627012Y-71864693D01*
X149937215Y-74174896D01*
X149971241Y-74237208D01*
X149974120Y-74263991D01*
X149974120Y-92628895D01*
X149954118Y-92697016D01*
X149937215Y-92717990D01*
X149261089Y-93394116D01*
X149246677Y-93406502D01*
X149235082Y-93415035D01*
X149235077Y-93415040D01*
X149229182Y-93419378D01*
X149224443Y-93424956D01*
X149224440Y-93424959D01*
X149194965Y-93459654D01*
X149188035Y-93467170D01*
X149182340Y-93472865D01*
X149180060Y-93475747D01*
X149164719Y-93495137D01*
X149161928Y-93498541D01*
X149125133Y-93541852D01*
X149114667Y-93554171D01*
X149111339Y-93560687D01*
X149107972Y-93565736D01*
X149104805Y-93570865D01*
X149100266Y-93576602D01*
X149069345Y-93642761D01*
X149067442Y-93646655D01*
X149034231Y-93711694D01*
X149032492Y-93718802D01*
X149030393Y-93724445D01*
X149028476Y-93730208D01*
X149025378Y-93736836D01*
X149023888Y-93743998D01*
X149023888Y-93743999D01*
X149010514Y-93808298D01*
X149009544Y-93812582D01*
X148992192Y-93883496D01*
X148991500Y-93894650D01*
X148991464Y-93894648D01*
X148991225Y-93898641D01*
X148990851Y-93902833D01*
X148989360Y-93910001D01*
X148989558Y-93917318D01*
X148991454Y-93987407D01*
X148991500Y-93990814D01*
X148991500Y-95682930D01*
X148990067Y-95701880D01*
X148986801Y-95723349D01*
X148987394Y-95730641D01*
X148987394Y-95730644D01*
X148991085Y-95776018D01*
X148991500Y-95786233D01*
X148991500Y-95794293D01*
X148991925Y-95797937D01*
X148994789Y-95822507D01*
X148995222Y-95826882D01*
X148998345Y-95865271D01*
X149001140Y-95899637D01*
X149003396Y-95906601D01*
X149004587Y-95912560D01*
X149005971Y-95918415D01*
X149006818Y-95925681D01*
X149031735Y-95994327D01*
X149033152Y-95998455D01*
X149055649Y-96067899D01*
X149059445Y-96074154D01*
X149061951Y-96079628D01*
X149064670Y-96085058D01*
X149067167Y-96091937D01*
X149071180Y-96098057D01*
X149071180Y-96098058D01*
X149107186Y-96152976D01*
X149109523Y-96156680D01*
X149147405Y-96219107D01*
X149151121Y-96223315D01*
X149151122Y-96223316D01*
X149154803Y-96227484D01*
X149154776Y-96227508D01*
X149157429Y-96230500D01*
X149160132Y-96233733D01*
X149164144Y-96239852D01*
X149169456Y-96244884D01*
X149220383Y-96293128D01*
X149222825Y-96295506D01*
X154829595Y-101902276D01*
X154863621Y-101964588D01*
X154866500Y-101991371D01*
X154866500Y-102883827D01*
X154846498Y-102951948D01*
X154829595Y-102972922D01*
X145561089Y-112241428D01*
X145546677Y-112253814D01*
X145535082Y-112262347D01*
X145535077Y-112262352D01*
X145529182Y-112266690D01*
X145524443Y-112272268D01*
X145524440Y-112272271D01*
X145494965Y-112306966D01*
X145488035Y-112314482D01*
X145482340Y-112320177D01*
X145480060Y-112323059D01*
X145464719Y-112342449D01*
X145461928Y-112345853D01*
X145422901Y-112391791D01*
X145414667Y-112401483D01*
X145411339Y-112407999D01*
X145407972Y-112413048D01*
X145404805Y-112418177D01*
X145400266Y-112423914D01*
X145369345Y-112490073D01*
X145367442Y-112493967D01*
X145334231Y-112559006D01*
X145332492Y-112566114D01*
X145330393Y-112571757D01*
X145328476Y-112577520D01*
X145325378Y-112584148D01*
X145323888Y-112591310D01*
X145323888Y-112591311D01*
X145310514Y-112655610D01*
X145309544Y-112659894D01*
X145292192Y-112730808D01*
X145291500Y-112741962D01*
X145291464Y-112741960D01*
X145291225Y-112745953D01*
X145290851Y-112750145D01*
X145289360Y-112757313D01*
X145289558Y-112764630D01*
X145291454Y-112834719D01*
X145291500Y-112838126D01*
X145291500Y-113168133D01*
X145271498Y-113236254D01*
X145237772Y-113271345D01*
X145205700Y-113293802D01*
X145043802Y-113455700D01*
X144912477Y-113643251D01*
X144910154Y-113648233D01*
X144910151Y-113648238D01*
X144894195Y-113682457D01*
X144847278Y-113735742D01*
X144779001Y-113755203D01*
X144711041Y-113734661D01*
X144665805Y-113682457D01*
X144649849Y-113648238D01*
X144649846Y-113648233D01*
X144647523Y-113643251D01*
X144516198Y-113455700D01*
X144354300Y-113293802D01*
X144349790Y-113290644D01*
X144349789Y-113290643D01*
X144243030Y-113215890D01*
X144166749Y-113162477D01*
X144161767Y-113160154D01*
X144161762Y-113160151D01*
X143964225Y-113068039D01*
X143964224Y-113068039D01*
X143959243Y-113065716D01*
X143953935Y-113064294D01*
X143953933Y-113064293D01*
X143743402Y-113007881D01*
X143743400Y-113007881D01*
X143738087Y-113006457D01*
X143510000Y-112986502D01*
X143281913Y-113006457D01*
X143276600Y-113007881D01*
X143276598Y-113007881D01*
X143066067Y-113064293D01*
X143066065Y-113064294D01*
X143060757Y-113065716D01*
X143055776Y-113068039D01*
X143055775Y-113068039D01*
X142858238Y-113160151D01*
X142858233Y-113160154D01*
X142853251Y-113162477D01*
X142776970Y-113215890D01*
X142670211Y-113290643D01*
X142670210Y-113290644D01*
X142665700Y-113293802D01*
X142503802Y-113455700D01*
X142372477Y-113643251D01*
X142370154Y-113648233D01*
X142370151Y-113648238D01*
X142354195Y-113682457D01*
X142307278Y-113735742D01*
X142239001Y-113755203D01*
X142171041Y-113734661D01*
X142125805Y-113682457D01*
X142109849Y-113648238D01*
X142109846Y-113648233D01*
X142107523Y-113643251D01*
X141976198Y-113455700D01*
X141814300Y-113293802D01*
X141782229Y-113271345D01*
X141737901Y-113215890D01*
X141728500Y-113168133D01*
X141728500Y-100104999D01*
X141745381Y-100041999D01*
X141801223Y-99945279D01*
X141801224Y-99945278D01*
X141804527Y-99939556D01*
X141863542Y-99757928D01*
X141874080Y-99657670D01*
X141882814Y-99574565D01*
X141883504Y-99568000D01*
X141863542Y-99378072D01*
X141804527Y-99196444D01*
X141709040Y-99031056D01*
X141581253Y-98889134D01*
X141426752Y-98776882D01*
X141420724Y-98774198D01*
X141420722Y-98774197D01*
X141258319Y-98701891D01*
X141258318Y-98701891D01*
X141252288Y-98699206D01*
X141158888Y-98679353D01*
X141071944Y-98660872D01*
X141071939Y-98660872D01*
X141065487Y-98659500D01*
X140874513Y-98659500D01*
X140868061Y-98660872D01*
X140868056Y-98660872D01*
X140781112Y-98679353D01*
X140687712Y-98699206D01*
X140681682Y-98701891D01*
X140681681Y-98701891D01*
X140519278Y-98774197D01*
X140519276Y-98774198D01*
X140513248Y-98776882D01*
X140358747Y-98889134D01*
X140230960Y-99031056D01*
X140135473Y-99196444D01*
X140076458Y-99378072D01*
X140056496Y-99568000D01*
X140057186Y-99574565D01*
X140065921Y-99657670D01*
X140076458Y-99757928D01*
X140135473Y-99939556D01*
X140138776Y-99945278D01*
X140138777Y-99945279D01*
X140194619Y-100041999D01*
X140211500Y-100104999D01*
X140211500Y-113168133D01*
X140191498Y-113236254D01*
X140157772Y-113271345D01*
X140125700Y-113293802D01*
X139963802Y-113455700D01*
X139832477Y-113643251D01*
X139830154Y-113648233D01*
X139830151Y-113648238D01*
X139814195Y-113682457D01*
X139767278Y-113735742D01*
X139699001Y-113755203D01*
X139631041Y-113734661D01*
X139585805Y-113682457D01*
X139569849Y-113648238D01*
X139569846Y-113648233D01*
X139567523Y-113643251D01*
X139436198Y-113455700D01*
X139274300Y-113293802D01*
X139269790Y-113290644D01*
X139269789Y-113290643D01*
X139163030Y-113215890D01*
X139086749Y-113162477D01*
X139081767Y-113160154D01*
X139081762Y-113160151D01*
X138884225Y-113068039D01*
X138884224Y-113068039D01*
X138879243Y-113065716D01*
X138873935Y-113064294D01*
X138873933Y-113064293D01*
X138663402Y-113007881D01*
X138663400Y-113007881D01*
X138658087Y-113006457D01*
X138430000Y-112986502D01*
X138201913Y-113006457D01*
X138196600Y-113007881D01*
X138196598Y-113007881D01*
X137986067Y-113064293D01*
X137986065Y-113064294D01*
X137980757Y-113065716D01*
X137975776Y-113068039D01*
X137975775Y-113068039D01*
X137778238Y-113160151D01*
X137778233Y-113160154D01*
X137773251Y-113162477D01*
X137696970Y-113215890D01*
X137590211Y-113290643D01*
X137590210Y-113290644D01*
X137585700Y-113293802D01*
X137423802Y-113455700D01*
X137420645Y-113460209D01*
X137417108Y-113464424D01*
X137415974Y-113463473D01*
X137365929Y-113503471D01*
X137295310Y-113510776D01*
X137231951Y-113478742D01*
X137195970Y-113417538D01*
X137192918Y-113400483D01*
X137191745Y-113389684D01*
X137140615Y-113253295D01*
X137053261Y-113136739D01*
X136936705Y-113049385D01*
X136800316Y-112998255D01*
X136738134Y-112991500D01*
X135041866Y-112991500D01*
X134979684Y-112998255D01*
X134843295Y-113049385D01*
X134726739Y-113136739D01*
X134639385Y-113253295D01*
X134588255Y-113389684D01*
X134581500Y-113451866D01*
X134581500Y-114920400D01*
X134561498Y-114988521D01*
X134507842Y-115035014D01*
X134455500Y-115046400D01*
X130046271Y-115046400D01*
X129978150Y-115026398D01*
X129957176Y-115009495D01*
X128801827Y-113854146D01*
X128767801Y-113791834D01*
X128765401Y-113754070D01*
X128772714Y-113670475D01*
X128773193Y-113665000D01*
X128754458Y-113450858D01*
X128740957Y-113400471D01*
X128700245Y-113248533D01*
X128700244Y-113248531D01*
X128698822Y-113243223D01*
X128626350Y-113087806D01*
X128610299Y-113053385D01*
X128610297Y-113053382D01*
X128607976Y-113048404D01*
X128484681Y-112872319D01*
X128332681Y-112720319D01*
X128156597Y-112597024D01*
X128151619Y-112594703D01*
X128151616Y-112594701D01*
X127966759Y-112508501D01*
X127966758Y-112508500D01*
X127961777Y-112506178D01*
X127956469Y-112504756D01*
X127956467Y-112504755D01*
X127759457Y-112451966D01*
X127759455Y-112451966D01*
X127754142Y-112450542D01*
X127540000Y-112431807D01*
X127325858Y-112450542D01*
X127320545Y-112451966D01*
X127320543Y-112451966D01*
X127123533Y-112504755D01*
X127123531Y-112504756D01*
X127118223Y-112506178D01*
X127113243Y-112508500D01*
X127113241Y-112508501D01*
X126928385Y-112594701D01*
X126928382Y-112594703D01*
X126923404Y-112597024D01*
X126747319Y-112720319D01*
X126595319Y-112872319D01*
X126472024Y-113048404D01*
X126469703Y-113053382D01*
X126469701Y-113053385D01*
X126453650Y-113087806D01*
X126381178Y-113243223D01*
X126379756Y-113248531D01*
X126379755Y-113248533D01*
X126339043Y-113400471D01*
X126325542Y-113450858D01*
X126306807Y-113665000D01*
X126325542Y-113879142D01*
X126326966Y-113884455D01*
X126326966Y-113884457D01*
X126378664Y-114077393D01*
X126381178Y-114086777D01*
X126472024Y-114281596D01*
X126595319Y-114457681D01*
X126747319Y-114609681D01*
X126923403Y-114732976D01*
X126928381Y-114735297D01*
X126928384Y-114735299D01*
X126971090Y-114755213D01*
X127118223Y-114823822D01*
X127123531Y-114825244D01*
X127123533Y-114825245D01*
X127320543Y-114878034D01*
X127320545Y-114878034D01*
X127325858Y-114879458D01*
X127540000Y-114898193D01*
X127545475Y-114897714D01*
X127629070Y-114890401D01*
X127698675Y-114904391D01*
X127729146Y-114926827D01*
X129045724Y-116243405D01*
X129079750Y-116305717D01*
X129074685Y-116376532D01*
X129032138Y-116433368D01*
X128965618Y-116458179D01*
X128956629Y-116458500D01*
X108457500Y-116458500D01*
X108389379Y-116438498D01*
X108342886Y-116384842D01*
X108331500Y-116332500D01*
X108331500Y-112153621D01*
X110460933Y-112153621D01*
X110470227Y-112165635D01*
X110504146Y-112189385D01*
X110513641Y-112194868D01*
X110698413Y-112281028D01*
X110708705Y-112284774D01*
X110905632Y-112337540D01*
X110916425Y-112339443D01*
X111119525Y-112357212D01*
X111130475Y-112357212D01*
X111333575Y-112339443D01*
X111344368Y-112337540D01*
X111541295Y-112284774D01*
X111551587Y-112281028D01*
X111736359Y-112194868D01*
X111745854Y-112189385D01*
X111780607Y-112165051D01*
X111788983Y-112154572D01*
X111781916Y-112141127D01*
X111137811Y-111497021D01*
X111123868Y-111489408D01*
X111122034Y-111489539D01*
X111115420Y-111493790D01*
X110467360Y-112141851D01*
X110460933Y-112153621D01*
X108331500Y-112153621D01*
X108331500Y-111130475D01*
X109892788Y-111130475D01*
X109910557Y-111333575D01*
X109912460Y-111344368D01*
X109965226Y-111541295D01*
X109968972Y-111551587D01*
X110055135Y-111736364D01*
X110060613Y-111745850D01*
X110084949Y-111780607D01*
X110095428Y-111788983D01*
X110108872Y-111781917D01*
X110752979Y-111137811D01*
X110759356Y-111126132D01*
X111489408Y-111126132D01*
X111489539Y-111127966D01*
X111493790Y-111134580D01*
X112141851Y-111782640D01*
X112153621Y-111789067D01*
X112165635Y-111779772D01*
X112189387Y-111745850D01*
X112194865Y-111736364D01*
X112281028Y-111551587D01*
X112284774Y-111541295D01*
X112337540Y-111344368D01*
X112339443Y-111333575D01*
X112357212Y-111130475D01*
X112357212Y-111119525D01*
X112339443Y-110916425D01*
X112337540Y-110905632D01*
X112284774Y-110708705D01*
X112281028Y-110698413D01*
X112194865Y-110513636D01*
X112189387Y-110504150D01*
X112165051Y-110469393D01*
X112154572Y-110461017D01*
X112141128Y-110468083D01*
X111497021Y-111112189D01*
X111489408Y-111126132D01*
X110759356Y-111126132D01*
X110760592Y-111123868D01*
X110760461Y-111122034D01*
X110756210Y-111115420D01*
X110108149Y-110467360D01*
X110096379Y-110460933D01*
X110084365Y-110470228D01*
X110060613Y-110504150D01*
X110055135Y-110513636D01*
X109968972Y-110698413D01*
X109965226Y-110708705D01*
X109912460Y-110905632D01*
X109910557Y-110916425D01*
X109892788Y-111119525D01*
X109892788Y-111130475D01*
X108331500Y-111130475D01*
X108331500Y-110095428D01*
X110461017Y-110095428D01*
X110468083Y-110108872D01*
X111112189Y-110752979D01*
X111126132Y-110760592D01*
X111127966Y-110760461D01*
X111134580Y-110756210D01*
X111782640Y-110108149D01*
X111789067Y-110096379D01*
X111779773Y-110084365D01*
X111745854Y-110060615D01*
X111736359Y-110055132D01*
X111551587Y-109968972D01*
X111541295Y-109965226D01*
X111344368Y-109912460D01*
X111333575Y-109910557D01*
X111130475Y-109892788D01*
X111119525Y-109892788D01*
X110916425Y-109910557D01*
X110905632Y-109912460D01*
X110708705Y-109965226D01*
X110698413Y-109968972D01*
X110513636Y-110055135D01*
X110504150Y-110060613D01*
X110469393Y-110084949D01*
X110461017Y-110095428D01*
X108331500Y-110095428D01*
X108331500Y-85697739D01*
X108351502Y-85629618D01*
X108405158Y-85583125D01*
X108475432Y-85573021D01*
X108540012Y-85602515D01*
X108575938Y-85654746D01*
X108593935Y-85704327D01*
X108595352Y-85708455D01*
X108617849Y-85777899D01*
X108621645Y-85784154D01*
X108624151Y-85789628D01*
X108626870Y-85795058D01*
X108629367Y-85801937D01*
X108633380Y-85808057D01*
X108633380Y-85808058D01*
X108669386Y-85862976D01*
X108671723Y-85866680D01*
X108709605Y-85929107D01*
X108713321Y-85933315D01*
X108713322Y-85933316D01*
X108717003Y-85937484D01*
X108716976Y-85937508D01*
X108719629Y-85940500D01*
X108722332Y-85943733D01*
X108726344Y-85949852D01*
X108731656Y-85954884D01*
X108782583Y-86003128D01*
X108785025Y-86005506D01*
X111599595Y-88820076D01*
X111633621Y-88882388D01*
X111636500Y-88909171D01*
X111636500Y-96790500D01*
X111616498Y-96858621D01*
X111562842Y-96905114D01*
X111510500Y-96916500D01*
X110076866Y-96916500D01*
X110014684Y-96923255D01*
X109878295Y-96974385D01*
X109761739Y-97061739D01*
X109674385Y-97178295D01*
X109623255Y-97314684D01*
X109616500Y-97376866D01*
X109616500Y-99473134D01*
X109623255Y-99535316D01*
X109674385Y-99671705D01*
X109761739Y-99788261D01*
X109878295Y-99875615D01*
X110014684Y-99926745D01*
X110076866Y-99933500D01*
X113190500Y-99933500D01*
X113258621Y-99953502D01*
X113305114Y-100007158D01*
X113316500Y-100059500D01*
X113316500Y-112391791D01*
X113296498Y-112459912D01*
X113243189Y-112506105D01*
X113243223Y-112506178D01*
X113242965Y-112506298D01*
X113242964Y-112506299D01*
X113203743Y-112524588D01*
X113053385Y-112594701D01*
X113053382Y-112594703D01*
X113048404Y-112597024D01*
X112872319Y-112720319D01*
X112720319Y-112872319D01*
X112597024Y-113048404D01*
X112594703Y-113053382D01*
X112594701Y-113053385D01*
X112578650Y-113087806D01*
X112506178Y-113243223D01*
X112504756Y-113248531D01*
X112504755Y-113248533D01*
X112464043Y-113400471D01*
X112450542Y-113450858D01*
X112431807Y-113665000D01*
X112450542Y-113879142D01*
X112451966Y-113884455D01*
X112451966Y-113884457D01*
X112503664Y-114077393D01*
X112506178Y-114086777D01*
X112597024Y-114281596D01*
X112720319Y-114457681D01*
X112872319Y-114609681D01*
X113048403Y-114732976D01*
X113053381Y-114735297D01*
X113053384Y-114735299D01*
X113096090Y-114755213D01*
X113243223Y-114823822D01*
X113248531Y-114825244D01*
X113248533Y-114825245D01*
X113445543Y-114878034D01*
X113445545Y-114878034D01*
X113450858Y-114879458D01*
X113665000Y-114898193D01*
X113879142Y-114879458D01*
X113884455Y-114878034D01*
X113884457Y-114878034D01*
X114081467Y-114825245D01*
X114081469Y-114825244D01*
X114086777Y-114823822D01*
X114233910Y-114755213D01*
X114276616Y-114735299D01*
X114276619Y-114735297D01*
X114281597Y-114732976D01*
X114457681Y-114609681D01*
X114609681Y-114457681D01*
X114732976Y-114281596D01*
X114823822Y-114086777D01*
X114826337Y-114077393D01*
X114878034Y-113884457D01*
X114878034Y-113884455D01*
X114879458Y-113879142D01*
X114898193Y-113665000D01*
X114879458Y-113450858D01*
X114865172Y-113397540D01*
X114838416Y-113297688D01*
X114834169Y-113268485D01*
X114833546Y-113245458D01*
X114833500Y-113242050D01*
X114833500Y-111659037D01*
X114853502Y-111590916D01*
X114907158Y-111544423D01*
X114977432Y-111534319D01*
X115042012Y-111563813D01*
X115073695Y-111605787D01*
X115123819Y-111713277D01*
X115137024Y-111741596D01*
X115260319Y-111917681D01*
X115412319Y-112069681D01*
X115588403Y-112192976D01*
X115593381Y-112195297D01*
X115593384Y-112195299D01*
X115771218Y-112278224D01*
X115783223Y-112283822D01*
X115788531Y-112285244D01*
X115788533Y-112285245D01*
X115985543Y-112338034D01*
X115985545Y-112338034D01*
X115990858Y-112339458D01*
X116205000Y-112358193D01*
X116419142Y-112339458D01*
X116424455Y-112338034D01*
X116424457Y-112338034D01*
X116621467Y-112285245D01*
X116621469Y-112285244D01*
X116626777Y-112283822D01*
X116638782Y-112278224D01*
X116816616Y-112195299D01*
X116816619Y-112195297D01*
X116821597Y-112192976D01*
X116877802Y-112153621D01*
X124335933Y-112153621D01*
X124345227Y-112165635D01*
X124379146Y-112189385D01*
X124388641Y-112194868D01*
X124573413Y-112281028D01*
X124583705Y-112284774D01*
X124780632Y-112337540D01*
X124791425Y-112339443D01*
X124994525Y-112357212D01*
X125005475Y-112357212D01*
X125208575Y-112339443D01*
X125219368Y-112337540D01*
X125416295Y-112284774D01*
X125426587Y-112281028D01*
X125611359Y-112194868D01*
X125620854Y-112189385D01*
X125655607Y-112165051D01*
X125663983Y-112154572D01*
X125656916Y-112141127D01*
X125012811Y-111497021D01*
X124998868Y-111489408D01*
X124997034Y-111489539D01*
X124990420Y-111493790D01*
X124342360Y-112141851D01*
X124335933Y-112153621D01*
X116877802Y-112153621D01*
X116997681Y-112069681D01*
X117149681Y-111917681D01*
X117272976Y-111741596D01*
X117286182Y-111713277D01*
X117361499Y-111551759D01*
X117361500Y-111551757D01*
X117363822Y-111546777D01*
X117419458Y-111339142D01*
X117437714Y-111130475D01*
X123767788Y-111130475D01*
X123785557Y-111333575D01*
X123787460Y-111344368D01*
X123840226Y-111541295D01*
X123843972Y-111551587D01*
X123930135Y-111736364D01*
X123935613Y-111745850D01*
X123959949Y-111780607D01*
X123970428Y-111788983D01*
X123983872Y-111781917D01*
X124627979Y-111137811D01*
X124634356Y-111126132D01*
X125364408Y-111126132D01*
X125364539Y-111127966D01*
X125368790Y-111134580D01*
X126016851Y-111782640D01*
X126028621Y-111789067D01*
X126040635Y-111779772D01*
X126064387Y-111745850D01*
X126069865Y-111736364D01*
X126156028Y-111551587D01*
X126159774Y-111541295D01*
X126212540Y-111344368D01*
X126214443Y-111333575D01*
X126232212Y-111130475D01*
X126232212Y-111119525D01*
X126214443Y-110916425D01*
X126212540Y-110905632D01*
X126159774Y-110708705D01*
X126156028Y-110698413D01*
X126069865Y-110513636D01*
X126064387Y-110504150D01*
X126040051Y-110469393D01*
X126029572Y-110461017D01*
X126016128Y-110468083D01*
X125372021Y-111112189D01*
X125364408Y-111126132D01*
X124634356Y-111126132D01*
X124635592Y-111123868D01*
X124635461Y-111122034D01*
X124631210Y-111115420D01*
X123983149Y-110467360D01*
X123971379Y-110460933D01*
X123959365Y-110470228D01*
X123935613Y-110504150D01*
X123930135Y-110513636D01*
X123843972Y-110698413D01*
X123840226Y-110708705D01*
X123787460Y-110905632D01*
X123785557Y-110916425D01*
X123767788Y-111119525D01*
X123767788Y-111130475D01*
X117437714Y-111130475D01*
X117438193Y-111125000D01*
X117430401Y-111035930D01*
X117444391Y-110966325D01*
X117466827Y-110935854D01*
X118307253Y-110095428D01*
X124336017Y-110095428D01*
X124343083Y-110108872D01*
X124987189Y-110752979D01*
X125001132Y-110760592D01*
X125002966Y-110760461D01*
X125009580Y-110756210D01*
X125657640Y-110108149D01*
X125664067Y-110096379D01*
X125654773Y-110084365D01*
X125620854Y-110060615D01*
X125611359Y-110055132D01*
X125426587Y-109968972D01*
X125416295Y-109965226D01*
X125219368Y-109912460D01*
X125208575Y-109910557D01*
X125005475Y-109892788D01*
X124994525Y-109892788D01*
X124791425Y-109910557D01*
X124780632Y-109912460D01*
X124583705Y-109965226D01*
X124573413Y-109968972D01*
X124388636Y-110055135D01*
X124379150Y-110060613D01*
X124344393Y-110084949D01*
X124336017Y-110095428D01*
X118307253Y-110095428D01*
X122349976Y-106052705D01*
X122412288Y-106018679D01*
X122439071Y-106015800D01*
X125718929Y-106015800D01*
X125787050Y-106035802D01*
X125808024Y-106052705D01*
X129284595Y-109529276D01*
X129318621Y-109591588D01*
X129321500Y-109618371D01*
X129321500Y-110093948D01*
X129301498Y-110162069D01*
X129284595Y-110183043D01*
X129135319Y-110332319D01*
X129012024Y-110508404D01*
X129009703Y-110513382D01*
X129009701Y-110513385D01*
X128923501Y-110698241D01*
X128921178Y-110703223D01*
X128865542Y-110910858D01*
X128846807Y-111125000D01*
X128865542Y-111339142D01*
X128921178Y-111546777D01*
X128923500Y-111551757D01*
X128923501Y-111551759D01*
X128998819Y-111713277D01*
X129012024Y-111741596D01*
X129135319Y-111917681D01*
X129287319Y-112069681D01*
X129463403Y-112192976D01*
X129468381Y-112195297D01*
X129468384Y-112195299D01*
X129646218Y-112278224D01*
X129658223Y-112283822D01*
X129663531Y-112285244D01*
X129663533Y-112285245D01*
X129860543Y-112338034D01*
X129860545Y-112338034D01*
X129865858Y-112339458D01*
X130080000Y-112358193D01*
X130294142Y-112339458D01*
X130299455Y-112338034D01*
X130299457Y-112338034D01*
X130496467Y-112285245D01*
X130496469Y-112285244D01*
X130501777Y-112283822D01*
X130513782Y-112278224D01*
X130691616Y-112195299D01*
X130691619Y-112195297D01*
X130696597Y-112192976D01*
X130872681Y-112069681D01*
X131024681Y-111917681D01*
X131147976Y-111741596D01*
X131161182Y-111713277D01*
X131236499Y-111551759D01*
X131236500Y-111551757D01*
X131238822Y-111546777D01*
X131294458Y-111339142D01*
X131313193Y-111125000D01*
X131294458Y-110910858D01*
X131238822Y-110703223D01*
X131236499Y-110698241D01*
X131150299Y-110513385D01*
X131150297Y-110513382D01*
X131147976Y-110508404D01*
X131024681Y-110332319D01*
X130875405Y-110183043D01*
X130841379Y-110120731D01*
X130838500Y-110093948D01*
X130838500Y-109319070D01*
X130839933Y-109300120D01*
X130842099Y-109285885D01*
X130842099Y-109285881D01*
X130843199Y-109278651D01*
X130841807Y-109261528D01*
X130838915Y-109225982D01*
X130838500Y-109215767D01*
X130838500Y-109207707D01*
X130837125Y-109195908D01*
X130835211Y-109179497D01*
X130834778Y-109175121D01*
X130830709Y-109125095D01*
X130828860Y-109102364D01*
X130826605Y-109095403D01*
X130825418Y-109089463D01*
X130824029Y-109083588D01*
X130823182Y-109076319D01*
X130798264Y-109007670D01*
X130796847Y-109003542D01*
X130776607Y-108941064D01*
X130776606Y-108941062D01*
X130774351Y-108934101D01*
X130770555Y-108927846D01*
X130768049Y-108922372D01*
X130765330Y-108916942D01*
X130762833Y-108910063D01*
X130743752Y-108880960D01*
X130722814Y-108849024D01*
X130720467Y-108845305D01*
X130682595Y-108782893D01*
X130675197Y-108774516D01*
X130675224Y-108774492D01*
X130672571Y-108771500D01*
X130669868Y-108768267D01*
X130665856Y-108762148D01*
X130609617Y-108708872D01*
X130607175Y-108706494D01*
X126669070Y-104768389D01*
X126656684Y-104753977D01*
X126648151Y-104742382D01*
X126648146Y-104742377D01*
X126643808Y-104736482D01*
X126638230Y-104731743D01*
X126638227Y-104731740D01*
X126603532Y-104702265D01*
X126596016Y-104695335D01*
X126590321Y-104689640D01*
X126584180Y-104684782D01*
X126568049Y-104672019D01*
X126564645Y-104669228D01*
X126514597Y-104626709D01*
X126514595Y-104626708D01*
X126509015Y-104621967D01*
X126502499Y-104618639D01*
X126497450Y-104615272D01*
X126492321Y-104612105D01*
X126486584Y-104607566D01*
X126420425Y-104576645D01*
X126416525Y-104574739D01*
X126412573Y-104572721D01*
X126351492Y-104541531D01*
X126344384Y-104539792D01*
X126338741Y-104537693D01*
X126332978Y-104535776D01*
X126326350Y-104532678D01*
X126254883Y-104517813D01*
X126250599Y-104516843D01*
X126179690Y-104499492D01*
X126174088Y-104499144D01*
X126174085Y-104499144D01*
X126168536Y-104498800D01*
X126168538Y-104498764D01*
X126164545Y-104498525D01*
X126160353Y-104498151D01*
X126153185Y-104496660D01*
X126086975Y-104498451D01*
X126075779Y-104498754D01*
X126072372Y-104498800D01*
X122957200Y-104498800D01*
X122889079Y-104478798D01*
X122842586Y-104425142D01*
X122831200Y-104372800D01*
X122831200Y-91500000D01*
X127903896Y-91500000D01*
X127904586Y-91506565D01*
X127921011Y-91662837D01*
X127923858Y-91689928D01*
X127982873Y-91871556D01*
X127986176Y-91877278D01*
X127986177Y-91877279D01*
X127999522Y-91900393D01*
X128078360Y-92036944D01*
X128206147Y-92178866D01*
X128360648Y-92291118D01*
X128366676Y-92293802D01*
X128366678Y-92293803D01*
X128529081Y-92366109D01*
X128535112Y-92368794D01*
X128628513Y-92388647D01*
X128715456Y-92407128D01*
X128715461Y-92407128D01*
X128721913Y-92408500D01*
X128912887Y-92408500D01*
X128919339Y-92407128D01*
X128919344Y-92407128D01*
X129006287Y-92388647D01*
X129099688Y-92368794D01*
X129105719Y-92366109D01*
X129268122Y-92293803D01*
X129268124Y-92293802D01*
X129274152Y-92291118D01*
X129428653Y-92178866D01*
X129556440Y-92036944D01*
X129635278Y-91900393D01*
X129648623Y-91877279D01*
X129648624Y-91877278D01*
X129651927Y-91871556D01*
X129710942Y-91689928D01*
X129727147Y-91535743D01*
X129754160Y-91470087D01*
X129763362Y-91459819D01*
X130756331Y-90466850D01*
X130819228Y-90432699D01*
X130875824Y-90420669D01*
X130875833Y-90420666D01*
X130882288Y-90419294D01*
X130910878Y-90406565D01*
X131050722Y-90344303D01*
X131050724Y-90344302D01*
X131056752Y-90341618D01*
X131211253Y-90229366D01*
X131222716Y-90216635D01*
X131334621Y-90092352D01*
X131334622Y-90092351D01*
X131339040Y-90087444D01*
X131413058Y-89959242D01*
X131431223Y-89927779D01*
X131431224Y-89927778D01*
X131434527Y-89922056D01*
X131493542Y-89740428D01*
X131495323Y-89723489D01*
X131512814Y-89557065D01*
X131513504Y-89550500D01*
X131493542Y-89360572D01*
X131434527Y-89178944D01*
X131339040Y-89013556D01*
X131332898Y-89006734D01*
X131215675Y-88876545D01*
X131215674Y-88876544D01*
X131211253Y-88871634D01*
X131069243Y-88768457D01*
X131062094Y-88763263D01*
X131062093Y-88763262D01*
X131056752Y-88759382D01*
X131050724Y-88756698D01*
X131050722Y-88756697D01*
X130888319Y-88684391D01*
X130888318Y-88684391D01*
X130882288Y-88681706D01*
X130788888Y-88661853D01*
X130701944Y-88643372D01*
X130701939Y-88643372D01*
X130695487Y-88642000D01*
X130504513Y-88642000D01*
X130498061Y-88643372D01*
X130498056Y-88643372D01*
X130411112Y-88661853D01*
X130317712Y-88681706D01*
X130311682Y-88684391D01*
X130311681Y-88684391D01*
X130149278Y-88756697D01*
X130149276Y-88756698D01*
X130143248Y-88759382D01*
X130137907Y-88763262D01*
X130137906Y-88763263D01*
X130130757Y-88768457D01*
X129988747Y-88871634D01*
X129984326Y-88876544D01*
X129984325Y-88876545D01*
X129867103Y-89006734D01*
X129860960Y-89013556D01*
X129765473Y-89178944D01*
X129741598Y-89252425D01*
X129710613Y-89347785D01*
X129679875Y-89397944D01*
X128390105Y-90687714D01*
X128365106Y-90706897D01*
X128360648Y-90708882D01*
X128355306Y-90712764D01*
X128355303Y-90712765D01*
X128283397Y-90765008D01*
X128206147Y-90821134D01*
X128201726Y-90826044D01*
X128201725Y-90826045D01*
X128102610Y-90936124D01*
X128078360Y-90963056D01*
X128075059Y-90968774D01*
X127991107Y-91114183D01*
X127982873Y-91128444D01*
X127923858Y-91310072D01*
X127903896Y-91500000D01*
X122831200Y-91500000D01*
X122831200Y-88883071D01*
X122851202Y-88814950D01*
X122904858Y-88768457D01*
X122975132Y-88758353D01*
X123039712Y-88787847D01*
X123046295Y-88793976D01*
X124589118Y-90336799D01*
X124623144Y-90399111D01*
X124625333Y-90412723D01*
X124636474Y-90518717D01*
X124643958Y-90589928D01*
X124702973Y-90771556D01*
X124798460Y-90936944D01*
X124926247Y-91078866D01*
X125080748Y-91191118D01*
X125086776Y-91193802D01*
X125086778Y-91193803D01*
X125249181Y-91266109D01*
X125255212Y-91268794D01*
X125348613Y-91288647D01*
X125435556Y-91307128D01*
X125435561Y-91307128D01*
X125442013Y-91308500D01*
X125632987Y-91308500D01*
X125639439Y-91307128D01*
X125639444Y-91307128D01*
X125726387Y-91288647D01*
X125819788Y-91268794D01*
X125825819Y-91266109D01*
X125988222Y-91193803D01*
X125988224Y-91193802D01*
X125994252Y-91191118D01*
X126148753Y-91078866D01*
X126276540Y-90936944D01*
X126372027Y-90771556D01*
X126431042Y-90589928D01*
X126438527Y-90518717D01*
X126450314Y-90406565D01*
X126451004Y-90400000D01*
X126435052Y-90248222D01*
X126431732Y-90216635D01*
X126431732Y-90216633D01*
X126431042Y-90210072D01*
X126372027Y-90028444D01*
X126276540Y-89863056D01*
X126166126Y-89740428D01*
X126153175Y-89726045D01*
X126153174Y-89726044D01*
X126148753Y-89721134D01*
X126047291Y-89647417D01*
X126032258Y-89634577D01*
X124271905Y-87874224D01*
X124237879Y-87811912D01*
X124235000Y-87785129D01*
X124235000Y-81819583D01*
X124251881Y-81756583D01*
X124326535Y-81627279D01*
X124326536Y-81627278D01*
X124329839Y-81621556D01*
X124388854Y-81439928D01*
X124408816Y-81250000D01*
X124399342Y-81159863D01*
X124389544Y-81066635D01*
X124389544Y-81066633D01*
X124388854Y-81060072D01*
X124329839Y-80878444D01*
X124234352Y-80713056D01*
X124106565Y-80571134D01*
X123992202Y-80488044D01*
X123957406Y-80462763D01*
X123957405Y-80462762D01*
X123952064Y-80458882D01*
X123946036Y-80456198D01*
X123946034Y-80456197D01*
X123783631Y-80383891D01*
X123783630Y-80383891D01*
X123777600Y-80381206D01*
X123684200Y-80361353D01*
X123597256Y-80342872D01*
X123597251Y-80342872D01*
X123590799Y-80341500D01*
X123399825Y-80341500D01*
X123393373Y-80342872D01*
X123393368Y-80342872D01*
X123306424Y-80361353D01*
X123213024Y-80381206D01*
X123206994Y-80383891D01*
X123206993Y-80383891D01*
X123044590Y-80456197D01*
X123044588Y-80456198D01*
X123038560Y-80458882D01*
X123033219Y-80462762D01*
X123033218Y-80462763D01*
X123031261Y-80464185D01*
X123029937Y-80464657D01*
X123027501Y-80466064D01*
X123027244Y-80465618D01*
X122964393Y-80488044D01*
X122895241Y-80471963D01*
X122845761Y-80421049D01*
X122831200Y-80362249D01*
X122831200Y-79825070D01*
X122832633Y-79806120D01*
X122834799Y-79791885D01*
X122834799Y-79791881D01*
X122835899Y-79784651D01*
X122831615Y-79731982D01*
X122831200Y-79721767D01*
X122831200Y-79713707D01*
X122827909Y-79685480D01*
X122827478Y-79681121D01*
X122822153Y-79615660D01*
X122821560Y-79608364D01*
X122819305Y-79601403D01*
X122818118Y-79595463D01*
X122816729Y-79589588D01*
X122815882Y-79582319D01*
X122790964Y-79513670D01*
X122789547Y-79509542D01*
X122769307Y-79447064D01*
X122769306Y-79447062D01*
X122767051Y-79440101D01*
X122763255Y-79433846D01*
X122760749Y-79428372D01*
X122758030Y-79422942D01*
X122755533Y-79416063D01*
X122715514Y-79355024D01*
X122713167Y-79351305D01*
X122675295Y-79288893D01*
X122667897Y-79280516D01*
X122667924Y-79280492D01*
X122665271Y-79277500D01*
X122662568Y-79274267D01*
X122658556Y-79268148D01*
X122602317Y-79214872D01*
X122599875Y-79212494D01*
X115129669Y-71742288D01*
X115095643Y-71679976D01*
X115100708Y-71609161D01*
X115145594Y-71550615D01*
X115157865Y-71541862D01*
X115179860Y-71526173D01*
X115338096Y-71368489D01*
X115468453Y-71187077D01*
X115469776Y-71188028D01*
X115516645Y-71144857D01*
X115586580Y-71132625D01*
X115652026Y-71160144D01*
X115679875Y-71191994D01*
X115739987Y-71290088D01*
X115886250Y-71458938D01*
X116058126Y-71601632D01*
X116251000Y-71714338D01*
X116459692Y-71794030D01*
X116464760Y-71795061D01*
X116464763Y-71795062D01*
X116559862Y-71814410D01*
X116678597Y-71838567D01*
X116683772Y-71838757D01*
X116683774Y-71838757D01*
X116896673Y-71846564D01*
X116896677Y-71846564D01*
X116901837Y-71846753D01*
X116906957Y-71846097D01*
X116906959Y-71846097D01*
X117118288Y-71819025D01*
X117118289Y-71819025D01*
X117123416Y-71818368D01*
X117128366Y-71816883D01*
X117332429Y-71755661D01*
X117332434Y-71755659D01*
X117337384Y-71754174D01*
X117537994Y-71655896D01*
X117719860Y-71526173D01*
X117878096Y-71368489D01*
X118008453Y-71187077D01*
X118009776Y-71188028D01*
X118056645Y-71144857D01*
X118126580Y-71132625D01*
X118192026Y-71160144D01*
X118219875Y-71191994D01*
X118279987Y-71290088D01*
X118426250Y-71458938D01*
X118575668Y-71582987D01*
X118575985Y-71583250D01*
X118615620Y-71642152D01*
X118621500Y-71680194D01*
X118621500Y-73249001D01*
X118604619Y-73312000D01*
X118545473Y-73414444D01*
X118486458Y-73596072D01*
X118466496Y-73786000D01*
X118486458Y-73975928D01*
X118545473Y-74157556D01*
X118640960Y-74322944D01*
X118768747Y-74464866D01*
X118923248Y-74577118D01*
X118929276Y-74579802D01*
X118929278Y-74579803D01*
X119091681Y-74652109D01*
X119097712Y-74654794D01*
X119191113Y-74674647D01*
X119278056Y-74693128D01*
X119278061Y-74693128D01*
X119284513Y-74694500D01*
X119475487Y-74694500D01*
X119481939Y-74693128D01*
X119481944Y-74693128D01*
X119568887Y-74674647D01*
X119662288Y-74654794D01*
X119668319Y-74652109D01*
X119830722Y-74579803D01*
X119830724Y-74579802D01*
X119836752Y-74577118D01*
X119991253Y-74464866D01*
X120119040Y-74322944D01*
X120214527Y-74157556D01*
X120273542Y-73975928D01*
X120293504Y-73786000D01*
X120273542Y-73596072D01*
X120214527Y-73414444D01*
X120155381Y-73312000D01*
X120138500Y-73249001D01*
X120138500Y-71677632D01*
X120158502Y-71609511D01*
X120191331Y-71575054D01*
X120259860Y-71526173D01*
X120418096Y-71368489D01*
X120548453Y-71187077D01*
X120549640Y-71187930D01*
X120596960Y-71144362D01*
X120666897Y-71132145D01*
X120732338Y-71159678D01*
X120760166Y-71191511D01*
X120817694Y-71285388D01*
X120823777Y-71293699D01*
X120963213Y-71454667D01*
X120970580Y-71461883D01*
X121134434Y-71597916D01*
X121142881Y-71603831D01*
X121326756Y-71711279D01*
X121336042Y-71715729D01*
X121535001Y-71791703D01*
X121544899Y-71794579D01*
X121648250Y-71815606D01*
X121662299Y-71814410D01*
X121666000Y-71804065D01*
X121666000Y-69168102D01*
X121662082Y-69154758D01*
X121647806Y-69152771D01*
X121609324Y-69158660D01*
X121599288Y-69161051D01*
X121396868Y-69227212D01*
X121387359Y-69231209D01*
X121198463Y-69329542D01*
X121189738Y-69335036D01*
X121019433Y-69462905D01*
X121011726Y-69469748D01*
X120864590Y-69623717D01*
X120858109Y-69631722D01*
X120753498Y-69785074D01*
X120698587Y-69830076D01*
X120628062Y-69838247D01*
X120564315Y-69806993D01*
X120543618Y-69782509D01*
X120462822Y-69657617D01*
X120462820Y-69657614D01*
X120460014Y-69653277D01*
X120309670Y-69488051D01*
X120305619Y-69484852D01*
X120305615Y-69484848D01*
X120138414Y-69352800D01*
X120138410Y-69352798D01*
X120134359Y-69349598D01*
X120098028Y-69329542D01*
X120082136Y-69320769D01*
X119938789Y-69241638D01*
X119933920Y-69239914D01*
X119933916Y-69239912D01*
X119733087Y-69168795D01*
X119733083Y-69168794D01*
X119728212Y-69167069D01*
X119723119Y-69166162D01*
X119723116Y-69166161D01*
X119513373Y-69128800D01*
X119513367Y-69128799D01*
X119508284Y-69127894D01*
X119434452Y-69126992D01*
X119290081Y-69125228D01*
X119290079Y-69125228D01*
X119284911Y-69125165D01*
X119064091Y-69158955D01*
X118851756Y-69228357D01*
X118818529Y-69245654D01*
X118722974Y-69295397D01*
X118653607Y-69331507D01*
X118649474Y-69334610D01*
X118649471Y-69334612D01*
X118479100Y-69462530D01*
X118474965Y-69465635D01*
X118320629Y-69627138D01*
X118213201Y-69784621D01*
X118158293Y-69829621D01*
X118087768Y-69837792D01*
X118024021Y-69806538D01*
X118003324Y-69782054D01*
X117922822Y-69657617D01*
X117922820Y-69657614D01*
X117920014Y-69653277D01*
X117769670Y-69488051D01*
X117765619Y-69484852D01*
X117765615Y-69484848D01*
X117598414Y-69352800D01*
X117598410Y-69352798D01*
X117594359Y-69349598D01*
X117558028Y-69329542D01*
X117542136Y-69320769D01*
X117398789Y-69241638D01*
X117393920Y-69239914D01*
X117393916Y-69239912D01*
X117193087Y-69168795D01*
X117193083Y-69168794D01*
X117188212Y-69167069D01*
X117183119Y-69166162D01*
X117183116Y-69166161D01*
X116973373Y-69128800D01*
X116973367Y-69128799D01*
X116968284Y-69127894D01*
X116897770Y-69127033D01*
X116750082Y-69125228D01*
X116750080Y-69125228D01*
X116744911Y-69125165D01*
X116721156Y-69128800D01*
X116641385Y-69141006D01*
X116571023Y-69131538D01*
X116533232Y-69105551D01*
X115885570Y-68457889D01*
X115873184Y-68443477D01*
X115864651Y-68431882D01*
X115864646Y-68431877D01*
X115860308Y-68425982D01*
X115854730Y-68421243D01*
X115854727Y-68421240D01*
X115820032Y-68391765D01*
X115812516Y-68384835D01*
X115806821Y-68379140D01*
X115800680Y-68374282D01*
X115784549Y-68361519D01*
X115781145Y-68358728D01*
X115731097Y-68316209D01*
X115731095Y-68316208D01*
X115725515Y-68311467D01*
X115718999Y-68308139D01*
X115713950Y-68304772D01*
X115708821Y-68301605D01*
X115703084Y-68297066D01*
X115636925Y-68266145D01*
X115633025Y-68264239D01*
X115615427Y-68255253D01*
X115567992Y-68231031D01*
X115560884Y-68229292D01*
X115555241Y-68227193D01*
X115549478Y-68225276D01*
X115542850Y-68222178D01*
X115522139Y-68217870D01*
X115471388Y-68207314D01*
X115467099Y-68206343D01*
X115396190Y-68188992D01*
X115390588Y-68188644D01*
X115390585Y-68188644D01*
X115385036Y-68188300D01*
X115385038Y-68188264D01*
X115381045Y-68188025D01*
X115376853Y-68187651D01*
X115369685Y-68186160D01*
X115303475Y-68187951D01*
X115292279Y-68188254D01*
X115288872Y-68188300D01*
X111472771Y-68188300D01*
X111404650Y-68168298D01*
X111358157Y-68114642D01*
X111348053Y-68044368D01*
X111377547Y-67979788D01*
X111383676Y-67973205D01*
X114026476Y-65330405D01*
X114088788Y-65296379D01*
X114115571Y-65293500D01*
X125456548Y-65293500D01*
X125524669Y-65313502D01*
G37*
%TD.AperFunction*%
%TA.AperFunction,Conductor*%
G36*
X154810034Y-105242011D02*
G01*
X154866870Y-105284558D01*
X154879964Y-105309814D01*
X154881247Y-105309243D01*
X154883931Y-105315271D01*
X154885973Y-105321556D01*
X154889276Y-105327278D01*
X154889277Y-105327279D01*
X154933019Y-105403042D01*
X154949900Y-105466042D01*
X154949900Y-108651330D01*
X154948467Y-108670280D01*
X154945201Y-108691749D01*
X154945794Y-108699041D01*
X154945794Y-108699044D01*
X154949485Y-108744418D01*
X154949900Y-108754633D01*
X154949900Y-108762693D01*
X154950325Y-108766337D01*
X154953189Y-108790907D01*
X154953622Y-108795282D01*
X154959540Y-108868037D01*
X154961796Y-108875001D01*
X154962987Y-108880960D01*
X154964371Y-108886815D01*
X154965218Y-108894081D01*
X154990135Y-108962727D01*
X154991552Y-108966855D01*
X155014049Y-109036299D01*
X155017845Y-109042554D01*
X155020351Y-109048028D01*
X155023070Y-109053458D01*
X155025567Y-109060337D01*
X155029580Y-109066457D01*
X155029580Y-109066458D01*
X155065586Y-109121376D01*
X155067923Y-109125080D01*
X155105805Y-109187507D01*
X155109521Y-109191715D01*
X155109522Y-109191716D01*
X155113203Y-109195884D01*
X155113176Y-109195908D01*
X155115829Y-109198900D01*
X155118532Y-109202133D01*
X155122544Y-109208252D01*
X155127856Y-109213284D01*
X155178783Y-109261528D01*
X155181225Y-109263906D01*
X158700380Y-112783061D01*
X158734406Y-112845373D01*
X158729341Y-112916188D01*
X158686794Y-112973024D01*
X158622267Y-112997677D01*
X158595209Y-113000044D01*
X158521913Y-113006457D01*
X158516600Y-113007881D01*
X158516598Y-113007881D01*
X158306067Y-113064293D01*
X158306065Y-113064294D01*
X158300757Y-113065716D01*
X158295776Y-113068039D01*
X158295775Y-113068039D01*
X158098238Y-113160151D01*
X158098233Y-113160154D01*
X158093251Y-113162477D01*
X158016970Y-113215890D01*
X157910211Y-113290643D01*
X157910210Y-113290644D01*
X157905700Y-113293802D01*
X157743802Y-113455700D01*
X157721345Y-113487771D01*
X157665890Y-113532099D01*
X157618133Y-113541500D01*
X157366770Y-113541500D01*
X157347820Y-113540067D01*
X157333585Y-113537901D01*
X157333581Y-113537901D01*
X157326351Y-113536801D01*
X157319059Y-113537394D01*
X157319056Y-113537394D01*
X157273682Y-113541085D01*
X157263467Y-113541500D01*
X157255407Y-113541500D01*
X157242117Y-113543049D01*
X157227193Y-113544789D01*
X157222818Y-113545222D01*
X157157361Y-113550546D01*
X157157358Y-113550547D01*
X157150063Y-113551140D01*
X157143099Y-113553396D01*
X157137140Y-113554587D01*
X157131285Y-113555971D01*
X157124019Y-113556818D01*
X157055373Y-113581735D01*
X157051245Y-113583152D01*
X156988764Y-113603393D01*
X156988762Y-113603394D01*
X156981801Y-113605649D01*
X156975546Y-113609445D01*
X156970072Y-113611951D01*
X156964642Y-113614670D01*
X156957763Y-113617167D01*
X156951643Y-113621180D01*
X156951642Y-113621180D01*
X156896724Y-113657186D01*
X156893020Y-113659523D01*
X156830593Y-113697405D01*
X156822216Y-113704803D01*
X156822192Y-113704776D01*
X156819200Y-113707429D01*
X156815967Y-113710132D01*
X156809848Y-113714144D01*
X156804816Y-113719456D01*
X156756572Y-113770383D01*
X156754194Y-113772825D01*
X155517524Y-115009495D01*
X155455212Y-115043521D01*
X155428429Y-115046400D01*
X154963498Y-115046400D01*
X154895377Y-115026398D01*
X154848884Y-114972742D01*
X154838780Y-114902468D01*
X154849303Y-114867150D01*
X154850148Y-114865339D01*
X154904284Y-114749243D01*
X154940834Y-114612840D01*
X154962119Y-114533402D01*
X154962119Y-114533400D01*
X154963543Y-114528087D01*
X154983498Y-114300000D01*
X154963543Y-114071913D01*
X154953860Y-114035776D01*
X154905707Y-113856067D01*
X154905706Y-113856065D01*
X154904284Y-113850757D01*
X154867372Y-113771598D01*
X154809849Y-113648238D01*
X154809846Y-113648233D01*
X154807523Y-113643251D01*
X154676198Y-113455700D01*
X154514300Y-113293802D01*
X154509790Y-113290644D01*
X154509789Y-113290643D01*
X154403030Y-113215890D01*
X154326749Y-113162477D01*
X154321767Y-113160154D01*
X154321762Y-113160151D01*
X154124225Y-113068039D01*
X154124224Y-113068039D01*
X154119243Y-113065716D01*
X154113935Y-113064294D01*
X154113933Y-113064293D01*
X153903402Y-113007881D01*
X153903400Y-113007881D01*
X153898087Y-113006457D01*
X153670000Y-112986502D01*
X153441913Y-113006457D01*
X153436600Y-113007881D01*
X153436598Y-113007881D01*
X153226067Y-113064293D01*
X153226065Y-113064294D01*
X153220757Y-113065716D01*
X153215776Y-113068039D01*
X153215775Y-113068039D01*
X153018238Y-113160151D01*
X153018233Y-113160154D01*
X153013251Y-113162477D01*
X152936970Y-113215890D01*
X152830211Y-113290643D01*
X152830210Y-113290644D01*
X152825700Y-113293802D01*
X152663802Y-113455700D01*
X152532477Y-113643251D01*
X152530154Y-113648233D01*
X152530151Y-113648238D01*
X152513919Y-113683049D01*
X152467002Y-113736334D01*
X152398725Y-113755795D01*
X152330765Y-113735253D01*
X152285529Y-113683049D01*
X152269414Y-113648489D01*
X152263931Y-113638993D01*
X152138972Y-113460533D01*
X152131916Y-113452125D01*
X151977875Y-113298084D01*
X151969467Y-113291028D01*
X151791007Y-113166069D01*
X151781511Y-113160586D01*
X151584053Y-113068510D01*
X151573761Y-113064764D01*
X151401497Y-113018606D01*
X151387401Y-113018942D01*
X151384000Y-113026884D01*
X151384000Y-114428000D01*
X151363998Y-114496121D01*
X151310342Y-114542614D01*
X151258000Y-114554000D01*
X148462000Y-114554000D01*
X148393879Y-114533998D01*
X148347386Y-114480342D01*
X148336000Y-114428000D01*
X148336000Y-114027885D01*
X148844000Y-114027885D01*
X148848475Y-114043124D01*
X148849865Y-114044329D01*
X148857548Y-114046000D01*
X150857885Y-114046000D01*
X150873124Y-114041525D01*
X150874329Y-114040135D01*
X150876000Y-114032452D01*
X150876000Y-113032033D01*
X150872027Y-113018502D01*
X150863478Y-113017273D01*
X150686239Y-113064764D01*
X150675947Y-113068510D01*
X150478489Y-113160586D01*
X150468993Y-113166069D01*
X150290533Y-113291028D01*
X150282125Y-113298084D01*
X150128084Y-113452125D01*
X150121028Y-113460533D01*
X149996069Y-113638993D01*
X149990586Y-113648489D01*
X149974195Y-113683641D01*
X149927278Y-113736926D01*
X149859001Y-113756387D01*
X149791041Y-113735845D01*
X149745805Y-113683641D01*
X149729414Y-113648489D01*
X149723931Y-113638993D01*
X149598972Y-113460533D01*
X149591916Y-113452125D01*
X149437875Y-113298084D01*
X149429467Y-113291028D01*
X149251007Y-113166069D01*
X149241511Y-113160586D01*
X149044053Y-113068510D01*
X149033761Y-113064764D01*
X148861497Y-113018606D01*
X148847401Y-113018942D01*
X148844000Y-113026884D01*
X148844000Y-114027885D01*
X148336000Y-114027885D01*
X148336000Y-113032033D01*
X148332027Y-113018502D01*
X148323478Y-113017273D01*
X148146239Y-113064764D01*
X148135947Y-113068510D01*
X147938489Y-113160586D01*
X147928993Y-113166069D01*
X147750533Y-113291028D01*
X147742125Y-113298084D01*
X147588084Y-113452125D01*
X147581028Y-113460533D01*
X147456069Y-113638993D01*
X147450586Y-113648489D01*
X147434471Y-113683049D01*
X147387554Y-113736334D01*
X147319277Y-113755795D01*
X147251317Y-113735253D01*
X147206081Y-113683049D01*
X147189849Y-113648238D01*
X147189846Y-113648233D01*
X147187523Y-113643251D01*
X147056198Y-113455700D01*
X146894300Y-113293802D01*
X146876015Y-113280999D01*
X146831686Y-113225544D01*
X146824375Y-113154925D01*
X146859189Y-113088690D01*
X154676907Y-105270972D01*
X154739219Y-105236946D01*
X154810034Y-105242011D01*
G37*
%TD.AperFunction*%
%TA.AperFunction,Conductor*%
G36*
X172271304Y-63901502D02*
G01*
X172292278Y-63918405D01*
X173571595Y-65197723D01*
X173605621Y-65260035D01*
X173608500Y-65286818D01*
X173608500Y-76382928D01*
X173607145Y-76395058D01*
X173607627Y-76395097D01*
X173606907Y-76404044D01*
X173604926Y-76412800D01*
X173605482Y-76421760D01*
X173608258Y-76466508D01*
X173608500Y-76474310D01*
X173608500Y-76490513D01*
X173609136Y-76494953D01*
X173609984Y-76500878D01*
X173611013Y-76510928D01*
X173613945Y-76558177D01*
X173616994Y-76566623D01*
X173617593Y-76569514D01*
X173621822Y-76586480D01*
X173622648Y-76589305D01*
X173623920Y-76598187D01*
X173643522Y-76641298D01*
X173647327Y-76650647D01*
X173663404Y-76695181D01*
X173668699Y-76702429D01*
X173670080Y-76705027D01*
X173678915Y-76720145D01*
X173680494Y-76722614D01*
X173684208Y-76730782D01*
X173715115Y-76766652D01*
X173721401Y-76774569D01*
X173726548Y-76781615D01*
X173726553Y-76781620D01*
X173729425Y-76785552D01*
X173740400Y-76796527D01*
X173746758Y-76803374D01*
X173779287Y-76841127D01*
X173786822Y-76846011D01*
X173793066Y-76851458D01*
X173804931Y-76861058D01*
X176111595Y-79167723D01*
X176145621Y-79230035D01*
X176148500Y-79256818D01*
X176148500Y-111624182D01*
X176128498Y-111692303D01*
X176111595Y-111713277D01*
X174979500Y-112845373D01*
X173916795Y-113908078D01*
X173854483Y-113942103D01*
X173783668Y-113937039D01*
X173726832Y-113894492D01*
X173702021Y-113827972D01*
X173701700Y-113818983D01*
X173701700Y-113137164D01*
X173703133Y-113118214D01*
X173705299Y-113103979D01*
X173705299Y-113103975D01*
X173706399Y-113096745D01*
X173705479Y-113085428D01*
X173702115Y-113044076D01*
X173701700Y-113033861D01*
X173701700Y-113025801D01*
X173701002Y-113019808D01*
X173698780Y-113000755D01*
X173698409Y-112997574D01*
X173697978Y-112993215D01*
X173697454Y-112986766D01*
X173692060Y-112920458D01*
X173689804Y-112913494D01*
X173688617Y-112907555D01*
X173687230Y-112901684D01*
X173686382Y-112894413D01*
X173683886Y-112887537D01*
X173683884Y-112887528D01*
X173661475Y-112825796D01*
X173660065Y-112821692D01*
X173637552Y-112752195D01*
X173633756Y-112745940D01*
X173631257Y-112740481D01*
X173628529Y-112735033D01*
X173626033Y-112728157D01*
X173586005Y-112667104D01*
X173583681Y-112663421D01*
X173548700Y-112605774D01*
X173548699Y-112605773D01*
X173545795Y-112600987D01*
X173538398Y-112592611D01*
X173538425Y-112592587D01*
X173535770Y-112589593D01*
X173533068Y-112586362D01*
X173529056Y-112580242D01*
X173472817Y-112526966D01*
X173470375Y-112524588D01*
X172838015Y-111892228D01*
X172803989Y-111829916D01*
X172801110Y-111803133D01*
X172801110Y-101048913D01*
X172801253Y-101044317D01*
X172801216Y-101044316D01*
X172801234Y-101043723D01*
X172801311Y-101042433D01*
X172801352Y-101041114D01*
X172801400Y-101040340D01*
X172801436Y-101040342D01*
X172801675Y-101036343D01*
X172802049Y-101032154D01*
X172803540Y-101024985D01*
X172801446Y-100947579D01*
X172801400Y-100944172D01*
X172801400Y-97882445D01*
X172821402Y-97814324D01*
X172875058Y-97767831D01*
X172945332Y-97757727D01*
X173009912Y-97787221D01*
X173021032Y-97798130D01*
X173138747Y-97928866D01*
X173293248Y-98041118D01*
X173299276Y-98043802D01*
X173299278Y-98043803D01*
X173461681Y-98116109D01*
X173467712Y-98118794D01*
X173561112Y-98138647D01*
X173648056Y-98157128D01*
X173648061Y-98157128D01*
X173654513Y-98158500D01*
X173845487Y-98158500D01*
X173851939Y-98157128D01*
X173851944Y-98157128D01*
X173938888Y-98138647D01*
X174032288Y-98118794D01*
X174038319Y-98116109D01*
X174200722Y-98043803D01*
X174200724Y-98043802D01*
X174206752Y-98041118D01*
X174361253Y-97928866D01*
X174464387Y-97814324D01*
X174484621Y-97791852D01*
X174484622Y-97791851D01*
X174489040Y-97786944D01*
X174584527Y-97621556D01*
X174643542Y-97439928D01*
X174646321Y-97413488D01*
X174657482Y-97373310D01*
X174670641Y-97345154D01*
X174672573Y-97341202D01*
X174702440Y-97282711D01*
X174705769Y-97276192D01*
X174707508Y-97269084D01*
X174709607Y-97263441D01*
X174711524Y-97257678D01*
X174714622Y-97251050D01*
X174729487Y-97179583D01*
X174730457Y-97175299D01*
X174746473Y-97109845D01*
X174747808Y-97104390D01*
X174748500Y-97093236D01*
X174748536Y-97093238D01*
X174748775Y-97089245D01*
X174749149Y-97085053D01*
X174750640Y-97077885D01*
X174748546Y-97000479D01*
X174748500Y-96997072D01*
X174748500Y-85780070D01*
X174749933Y-85761120D01*
X174752099Y-85746885D01*
X174752099Y-85746881D01*
X174753199Y-85739651D01*
X174748915Y-85686982D01*
X174748500Y-85676767D01*
X174748500Y-85668707D01*
X174745209Y-85640480D01*
X174744778Y-85636121D01*
X174742624Y-85609637D01*
X174738860Y-85563364D01*
X174736605Y-85556403D01*
X174735418Y-85550463D01*
X174734029Y-85544588D01*
X174733182Y-85537319D01*
X174708264Y-85468670D01*
X174706847Y-85464542D01*
X174686607Y-85402064D01*
X174686606Y-85402062D01*
X174684351Y-85395101D01*
X174680555Y-85388846D01*
X174678049Y-85383372D01*
X174675330Y-85377942D01*
X174672833Y-85371063D01*
X174632814Y-85310024D01*
X174630467Y-85306305D01*
X174592595Y-85243893D01*
X174585197Y-85235516D01*
X174585224Y-85235492D01*
X174582571Y-85232500D01*
X174579868Y-85229267D01*
X174575856Y-85223148D01*
X174519617Y-85169872D01*
X174517175Y-85167494D01*
X158969025Y-69619344D01*
X158938287Y-69569185D01*
X158914351Y-69495516D01*
X158883427Y-69400344D01*
X158787940Y-69234956D01*
X158728369Y-69168795D01*
X158664575Y-69097945D01*
X158664574Y-69097944D01*
X158660153Y-69093034D01*
X158505652Y-68980782D01*
X158499624Y-68978098D01*
X158499622Y-68978097D01*
X158337219Y-68905791D01*
X158337218Y-68905791D01*
X158331188Y-68903106D01*
X158237788Y-68883253D01*
X158150844Y-68864772D01*
X158150839Y-68864772D01*
X158144387Y-68863400D01*
X157953413Y-68863400D01*
X157946961Y-68864772D01*
X157946956Y-68864772D01*
X157860012Y-68883253D01*
X157766612Y-68903106D01*
X157760582Y-68905791D01*
X157760581Y-68905791D01*
X157598178Y-68978097D01*
X157598176Y-68978098D01*
X157592148Y-68980782D01*
X157437647Y-69093034D01*
X157433226Y-69097944D01*
X157433225Y-69097945D01*
X157369432Y-69168795D01*
X157309860Y-69234956D01*
X157214373Y-69400344D01*
X157155358Y-69581972D01*
X157154668Y-69588533D01*
X157154668Y-69588535D01*
X157147672Y-69655101D01*
X157135396Y-69771900D01*
X157136086Y-69778465D01*
X157153798Y-69946982D01*
X157155358Y-69961828D01*
X157214373Y-70143456D01*
X157309860Y-70308844D01*
X157437647Y-70450766D01*
X157592148Y-70563018D01*
X157598176Y-70565702D01*
X157598178Y-70565703D01*
X157760581Y-70638009D01*
X157766612Y-70640694D01*
X157773067Y-70642066D01*
X157773076Y-70642069D01*
X157829672Y-70654099D01*
X157892569Y-70688250D01*
X173194595Y-85990276D01*
X173228621Y-86052588D01*
X173231500Y-86079371D01*
X173231500Y-96439545D01*
X173211498Y-96507666D01*
X173179561Y-96541481D01*
X173138747Y-96571134D01*
X173021036Y-96701866D01*
X172960590Y-96739105D01*
X172889606Y-96737753D01*
X172830622Y-96698239D01*
X172802364Y-96633109D01*
X172801400Y-96617555D01*
X172801400Y-92039969D01*
X172802833Y-92021018D01*
X172804999Y-92006783D01*
X172804999Y-92006781D01*
X172806099Y-91999551D01*
X172801815Y-91946882D01*
X172801400Y-91936667D01*
X172801400Y-91928607D01*
X172798111Y-91900393D01*
X172797678Y-91896018D01*
X172792354Y-91830561D01*
X172792353Y-91830558D01*
X172791760Y-91823263D01*
X172789504Y-91816299D01*
X172788313Y-91810340D01*
X172786929Y-91804485D01*
X172786082Y-91797219D01*
X172761165Y-91728573D01*
X172759748Y-91724445D01*
X172739507Y-91661964D01*
X172739506Y-91661962D01*
X172737251Y-91655001D01*
X172733455Y-91648746D01*
X172730949Y-91643272D01*
X172728230Y-91637842D01*
X172725733Y-91630963D01*
X172685714Y-91569924D01*
X172683367Y-91566205D01*
X172664883Y-91535744D01*
X172645495Y-91503793D01*
X172638097Y-91495416D01*
X172638124Y-91495392D01*
X172635471Y-91492400D01*
X172632768Y-91489167D01*
X172628756Y-91483048D01*
X172572517Y-91429772D01*
X172570075Y-91427394D01*
X167749609Y-86606928D01*
X167715583Y-86544616D01*
X167713782Y-86501389D01*
X167731529Y-86366590D01*
X167733156Y-86300000D01*
X167714852Y-86077361D01*
X167660431Y-85860702D01*
X167571354Y-85655840D01*
X167450014Y-85468277D01*
X167299670Y-85303051D01*
X167295619Y-85299852D01*
X167295615Y-85299848D01*
X167128414Y-85167800D01*
X167128410Y-85167798D01*
X167124359Y-85164598D01*
X166928789Y-85056638D01*
X166923920Y-85054914D01*
X166923916Y-85054912D01*
X166723087Y-84983795D01*
X166723083Y-84983794D01*
X166718212Y-84982069D01*
X166713119Y-84981162D01*
X166713116Y-84981161D01*
X166503373Y-84943800D01*
X166503367Y-84943799D01*
X166498284Y-84942894D01*
X166424452Y-84941992D01*
X166280081Y-84940228D01*
X166280079Y-84940228D01*
X166274911Y-84940165D01*
X166054091Y-84973955D01*
X165841756Y-85043357D01*
X165643607Y-85146507D01*
X165639474Y-85149610D01*
X165639471Y-85149612D01*
X165469100Y-85277530D01*
X165464965Y-85280635D01*
X165310629Y-85442138D01*
X165307715Y-85446410D01*
X165307714Y-85446411D01*
X165227934Y-85563364D01*
X165184743Y-85626680D01*
X165137715Y-85727993D01*
X165103392Y-85801937D01*
X165090688Y-85829305D01*
X165030989Y-86044570D01*
X165007251Y-86266695D01*
X165007548Y-86271848D01*
X165007548Y-86271851D01*
X165013011Y-86366590D01*
X165020110Y-86489715D01*
X165021247Y-86494761D01*
X165021248Y-86494767D01*
X165036624Y-86562991D01*
X165069222Y-86707639D01*
X165153266Y-86914616D01*
X165269987Y-87105088D01*
X165416250Y-87273938D01*
X165588126Y-87416632D01*
X165658595Y-87457811D01*
X165661445Y-87459476D01*
X165710169Y-87511114D01*
X165723240Y-87580897D01*
X165696509Y-87646669D01*
X165656055Y-87680027D01*
X165643607Y-87686507D01*
X165639474Y-87689610D01*
X165639471Y-87689612D01*
X165469100Y-87817530D01*
X165464965Y-87820635D01*
X165310629Y-87982138D01*
X165184743Y-88166680D01*
X165090688Y-88369305D01*
X165030989Y-88584570D01*
X165007251Y-88806695D01*
X165007548Y-88811848D01*
X165007548Y-88811851D01*
X165013379Y-88912977D01*
X165020110Y-89029715D01*
X165021247Y-89034761D01*
X165021248Y-89034767D01*
X165036035Y-89100381D01*
X165069222Y-89247639D01*
X165153266Y-89454616D01*
X165269987Y-89645088D01*
X165416250Y-89813938D01*
X165588126Y-89956632D01*
X165661955Y-89999774D01*
X165710679Y-90051412D01*
X165723750Y-90121195D01*
X165697019Y-90186967D01*
X165656562Y-90220327D01*
X165648457Y-90224546D01*
X165639738Y-90230036D01*
X165469433Y-90357905D01*
X165461726Y-90364748D01*
X165314590Y-90518717D01*
X165308104Y-90526727D01*
X165188098Y-90702649D01*
X165183000Y-90711623D01*
X165093338Y-90904783D01*
X165089775Y-90914470D01*
X165034389Y-91114183D01*
X165035912Y-91122607D01*
X165048292Y-91126000D01*
X167688344Y-91126000D01*
X167701875Y-91122027D01*
X167703180Y-91112947D01*
X167661214Y-90945875D01*
X167657894Y-90936124D01*
X167572972Y-90740814D01*
X167568105Y-90731739D01*
X167452426Y-90552926D01*
X167446136Y-90544757D01*
X167302806Y-90387240D01*
X167295273Y-90380215D01*
X167128139Y-90248222D01*
X167119556Y-90242520D01*
X167082602Y-90222120D01*
X167032631Y-90171687D01*
X167017859Y-90102245D01*
X167042975Y-90035839D01*
X167070327Y-90009232D01*
X167093797Y-89992491D01*
X167249860Y-89881173D01*
X167262303Y-89868774D01*
X167338989Y-89792355D01*
X167401361Y-89758439D01*
X167472168Y-89763627D01*
X167517024Y-89792511D01*
X170347195Y-92622682D01*
X170381221Y-92684994D01*
X170384100Y-92711777D01*
X170384100Y-112475230D01*
X170382667Y-112494180D01*
X170380753Y-112506763D01*
X170379401Y-112515649D01*
X170379994Y-112522941D01*
X170379994Y-112522944D01*
X170383685Y-112568318D01*
X170384100Y-112578533D01*
X170384100Y-112586593D01*
X170384525Y-112590237D01*
X170387389Y-112614807D01*
X170387822Y-112619182D01*
X170391573Y-112665291D01*
X170393740Y-112691937D01*
X170395996Y-112698901D01*
X170397187Y-112704860D01*
X170398571Y-112710715D01*
X170399418Y-112717981D01*
X170424335Y-112786627D01*
X170425752Y-112790755D01*
X170439995Y-112834719D01*
X170448249Y-112860199D01*
X170452045Y-112866454D01*
X170454551Y-112871928D01*
X170457270Y-112877358D01*
X170459767Y-112884237D01*
X170463780Y-112890357D01*
X170463780Y-112890358D01*
X170499786Y-112945276D01*
X170502123Y-112948980D01*
X170540005Y-113011407D01*
X170543721Y-113015615D01*
X170543722Y-113015616D01*
X170547403Y-113019784D01*
X170547376Y-113019808D01*
X170550029Y-113022800D01*
X170552732Y-113026033D01*
X170556744Y-113032152D01*
X170579158Y-113053385D01*
X170612983Y-113085428D01*
X170615425Y-113087806D01*
X170626399Y-113098780D01*
X170660425Y-113161092D01*
X170655360Y-113231907D01*
X170613505Y-113286013D01*
X170614424Y-113287108D01*
X170610211Y-113290643D01*
X170605700Y-113293802D01*
X170443802Y-113455700D01*
X170312477Y-113643251D01*
X170310154Y-113648233D01*
X170310151Y-113648238D01*
X170294195Y-113682457D01*
X170247278Y-113735742D01*
X170179001Y-113755203D01*
X170111041Y-113734661D01*
X170065805Y-113682457D01*
X170049849Y-113648238D01*
X170049846Y-113648233D01*
X170047523Y-113643251D01*
X169916198Y-113455700D01*
X169754300Y-113293802D01*
X169749790Y-113290644D01*
X169749789Y-113290643D01*
X169643030Y-113215890D01*
X169566749Y-113162477D01*
X169561767Y-113160154D01*
X169561762Y-113160151D01*
X169364225Y-113068039D01*
X169364224Y-113068039D01*
X169359243Y-113065716D01*
X169353935Y-113064294D01*
X169353933Y-113064293D01*
X169143402Y-113007881D01*
X169143400Y-113007881D01*
X169138087Y-113006457D01*
X168910000Y-112986502D01*
X168681913Y-113006457D01*
X168676600Y-113007881D01*
X168676598Y-113007881D01*
X168466067Y-113064293D01*
X168466065Y-113064294D01*
X168460757Y-113065716D01*
X168455776Y-113068039D01*
X168455775Y-113068039D01*
X168258238Y-113160151D01*
X168258233Y-113160154D01*
X168253251Y-113162477D01*
X168176970Y-113215890D01*
X168070211Y-113290643D01*
X168070210Y-113290644D01*
X168065700Y-113293802D01*
X167903802Y-113455700D01*
X167772477Y-113643251D01*
X167770154Y-113648233D01*
X167770151Y-113648238D01*
X167754195Y-113682457D01*
X167707278Y-113735742D01*
X167639001Y-113755203D01*
X167571041Y-113734661D01*
X167525805Y-113682457D01*
X167509849Y-113648238D01*
X167509846Y-113648233D01*
X167507523Y-113643251D01*
X167376198Y-113455700D01*
X167214300Y-113293802D01*
X167209790Y-113290644D01*
X167209789Y-113290643D01*
X167103030Y-113215890D01*
X167026749Y-113162477D01*
X167021767Y-113160154D01*
X167021762Y-113160151D01*
X166824225Y-113068039D01*
X166824224Y-113068039D01*
X166819243Y-113065716D01*
X166813935Y-113064294D01*
X166813933Y-113064293D01*
X166603402Y-113007881D01*
X166603400Y-113007881D01*
X166598087Y-113006457D01*
X166370000Y-112986502D01*
X166141913Y-113006457D01*
X166136600Y-113007881D01*
X166136598Y-113007881D01*
X165926067Y-113064293D01*
X165926065Y-113064294D01*
X165920757Y-113065716D01*
X165915776Y-113068039D01*
X165915775Y-113068039D01*
X165718238Y-113160151D01*
X165718233Y-113160154D01*
X165713251Y-113162477D01*
X165636970Y-113215890D01*
X165530211Y-113290643D01*
X165530210Y-113290644D01*
X165525700Y-113293802D01*
X165363802Y-113455700D01*
X165232477Y-113643251D01*
X165230154Y-113648233D01*
X165230151Y-113648238D01*
X165214195Y-113682457D01*
X165167278Y-113735742D01*
X165099001Y-113755203D01*
X165031041Y-113734661D01*
X164985805Y-113682457D01*
X164969849Y-113648238D01*
X164969846Y-113648233D01*
X164967523Y-113643251D01*
X164836198Y-113455700D01*
X164674300Y-113293802D01*
X164669790Y-113290644D01*
X164669789Y-113290643D01*
X164563030Y-113215890D01*
X164486749Y-113162477D01*
X164481767Y-113160154D01*
X164481762Y-113160151D01*
X164284225Y-113068039D01*
X164284224Y-113068039D01*
X164279243Y-113065716D01*
X164273935Y-113064294D01*
X164273933Y-113064293D01*
X164063402Y-113007881D01*
X164063400Y-113007881D01*
X164058087Y-113006457D01*
X163830000Y-112986502D01*
X163601913Y-113006457D01*
X163596600Y-113007881D01*
X163596598Y-113007881D01*
X163386067Y-113064293D01*
X163386065Y-113064294D01*
X163380757Y-113065716D01*
X163375776Y-113068039D01*
X163375775Y-113068039D01*
X163178238Y-113160151D01*
X163178233Y-113160154D01*
X163173251Y-113162477D01*
X163096970Y-113215890D01*
X162990211Y-113290643D01*
X162990210Y-113290644D01*
X162985700Y-113293802D01*
X162823802Y-113455700D01*
X162692477Y-113643251D01*
X162690154Y-113648233D01*
X162690151Y-113648238D01*
X162674195Y-113682457D01*
X162627278Y-113735742D01*
X162559001Y-113755203D01*
X162491041Y-113734661D01*
X162445805Y-113682457D01*
X162429849Y-113648238D01*
X162429846Y-113648233D01*
X162427523Y-113643251D01*
X162296198Y-113455700D01*
X162134300Y-113293802D01*
X162129790Y-113290644D01*
X162129789Y-113290643D01*
X162023030Y-113215890D01*
X161946749Y-113162477D01*
X161941767Y-113160154D01*
X161941762Y-113160151D01*
X161744225Y-113068039D01*
X161744224Y-113068039D01*
X161739243Y-113065716D01*
X161733935Y-113064294D01*
X161733933Y-113064293D01*
X161523402Y-113007881D01*
X161523400Y-113007881D01*
X161518087Y-113006457D01*
X161290000Y-112986502D01*
X161284525Y-112986981D01*
X161127087Y-113000755D01*
X161057482Y-112986766D01*
X161027010Y-112964329D01*
X156503805Y-108441124D01*
X156469779Y-108378812D01*
X156466900Y-108352029D01*
X156466900Y-105507957D01*
X156483781Y-105444957D01*
X156551723Y-105327279D01*
X156551724Y-105327278D01*
X156555027Y-105321556D01*
X156614042Y-105139928D01*
X156634004Y-104950000D01*
X156633281Y-104943119D01*
X156614732Y-104766635D01*
X156614732Y-104766633D01*
X156614042Y-104760072D01*
X156555027Y-104578444D01*
X156459540Y-104413056D01*
X156423294Y-104372800D01*
X156336175Y-104276045D01*
X156336174Y-104276044D01*
X156331753Y-104271134D01*
X156177252Y-104158882D01*
X156171224Y-104156198D01*
X156171222Y-104156197D01*
X156076087Y-104113840D01*
X156021991Y-104067859D01*
X156001342Y-103999932D01*
X156020695Y-103931624D01*
X156038241Y-103909638D01*
X156113911Y-103833968D01*
X156128323Y-103821582D01*
X156139918Y-103813049D01*
X156139923Y-103813044D01*
X156145818Y-103808706D01*
X156150557Y-103803128D01*
X156150560Y-103803125D01*
X156180035Y-103768430D01*
X156186965Y-103760914D01*
X156192660Y-103755219D01*
X156210281Y-103732947D01*
X156213072Y-103729543D01*
X156255591Y-103679495D01*
X156255592Y-103679493D01*
X156260333Y-103673913D01*
X156263661Y-103667397D01*
X156267028Y-103662348D01*
X156270195Y-103657219D01*
X156274734Y-103651482D01*
X156305655Y-103585323D01*
X156307561Y-103581423D01*
X156340769Y-103516390D01*
X156342508Y-103509281D01*
X156344604Y-103503647D01*
X156346523Y-103497877D01*
X156349622Y-103491248D01*
X156364491Y-103419763D01*
X156365461Y-103415480D01*
X156381473Y-103350042D01*
X156382808Y-103344588D01*
X156383500Y-103333434D01*
X156383535Y-103333436D01*
X156383775Y-103329464D01*
X156384152Y-103325243D01*
X156385641Y-103318083D01*
X156383546Y-103240656D01*
X156383500Y-103237248D01*
X156383500Y-101944457D01*
X156403502Y-101876336D01*
X156420405Y-101855362D01*
X163560362Y-94715405D01*
X163622674Y-94681379D01*
X163649457Y-94678500D01*
X164885500Y-94678500D01*
X164953621Y-94698502D01*
X165000114Y-94752158D01*
X165011500Y-94804500D01*
X165011500Y-94818134D01*
X165018255Y-94880316D01*
X165069385Y-95016705D01*
X165156739Y-95133261D01*
X165273295Y-95220615D01*
X165409684Y-95271745D01*
X165471866Y-95278500D01*
X167268134Y-95278500D01*
X167330316Y-95271745D01*
X167466705Y-95220615D01*
X167583261Y-95133261D01*
X167670615Y-95016705D01*
X167721745Y-94880316D01*
X167728500Y-94818134D01*
X167728500Y-93021866D01*
X167721745Y-92959684D01*
X167670615Y-92823295D01*
X167583261Y-92706739D01*
X167466705Y-92619385D01*
X167347687Y-92574767D01*
X167290923Y-92532125D01*
X167266223Y-92465564D01*
X167281430Y-92396215D01*
X167302977Y-92367535D01*
X167404052Y-92266812D01*
X167410730Y-92258965D01*
X167535003Y-92086020D01*
X167540313Y-92077183D01*
X167634670Y-91886267D01*
X167638469Y-91876672D01*
X167700377Y-91672910D01*
X167702555Y-91662837D01*
X167703986Y-91651962D01*
X167701775Y-91637778D01*
X167688617Y-91634000D01*
X165053225Y-91634000D01*
X165039694Y-91637973D01*
X165038257Y-91647966D01*
X165068565Y-91782446D01*
X165071645Y-91792275D01*
X165151770Y-91989603D01*
X165156413Y-91998794D01*
X165267694Y-92180388D01*
X165273777Y-92188699D01*
X165413213Y-92349667D01*
X165420577Y-92356879D01*
X165425522Y-92360985D01*
X165465156Y-92419889D01*
X165466653Y-92490870D01*
X165429537Y-92551392D01*
X165389264Y-92575910D01*
X165281705Y-92616232D01*
X165281704Y-92616233D01*
X165273295Y-92619385D01*
X165156739Y-92706739D01*
X165069385Y-92823295D01*
X165018255Y-92959684D01*
X165011500Y-93021866D01*
X165011500Y-93035500D01*
X164991498Y-93103621D01*
X164937842Y-93150114D01*
X164885500Y-93161500D01*
X163350156Y-93161500D01*
X163331206Y-93160067D01*
X163316971Y-93157901D01*
X163316967Y-93157901D01*
X163309737Y-93156801D01*
X163302445Y-93157394D01*
X163302442Y-93157394D01*
X163257068Y-93161085D01*
X163246853Y-93161500D01*
X163238793Y-93161500D01*
X163225503Y-93163049D01*
X163210579Y-93164789D01*
X163206204Y-93165222D01*
X163140747Y-93170546D01*
X163140744Y-93170547D01*
X163133449Y-93171140D01*
X163126485Y-93173396D01*
X163120526Y-93174587D01*
X163114671Y-93175971D01*
X163107405Y-93176818D01*
X163038759Y-93201735D01*
X163034631Y-93203152D01*
X162972150Y-93223393D01*
X162972148Y-93223394D01*
X162965187Y-93225649D01*
X162958932Y-93229445D01*
X162953458Y-93231951D01*
X162948028Y-93234670D01*
X162941149Y-93237167D01*
X162935029Y-93241180D01*
X162935028Y-93241180D01*
X162880110Y-93277186D01*
X162876406Y-93279523D01*
X162813979Y-93317405D01*
X162805602Y-93324803D01*
X162805578Y-93324776D01*
X162802586Y-93327429D01*
X162799353Y-93330132D01*
X162793234Y-93334144D01*
X162788202Y-93339456D01*
X162739958Y-93390383D01*
X162737580Y-93392825D01*
X155690638Y-100439767D01*
X155628326Y-100473793D01*
X155557511Y-100468728D01*
X155512448Y-100439767D01*
X151507231Y-96434550D01*
X151473205Y-96372238D01*
X151478270Y-96301423D01*
X151522264Y-96243521D01*
X151611253Y-96178866D01*
X151632911Y-96154812D01*
X151734621Y-96041852D01*
X151734622Y-96041851D01*
X151739040Y-96036944D01*
X151810960Y-95912376D01*
X151831223Y-95877279D01*
X151831224Y-95877278D01*
X151834527Y-95871556D01*
X151893542Y-95689928D01*
X151911262Y-95521329D01*
X151938275Y-95455673D01*
X151996497Y-95415043D01*
X152036572Y-95408500D01*
X152117587Y-95408500D01*
X152124039Y-95407128D01*
X152124044Y-95407128D01*
X152210988Y-95388647D01*
X152304388Y-95368794D01*
X152310419Y-95366109D01*
X152472822Y-95293803D01*
X152472824Y-95293802D01*
X152478852Y-95291118D01*
X152504343Y-95272598D01*
X152571552Y-95223767D01*
X152633353Y-95178866D01*
X152761140Y-95036944D01*
X152847298Y-94887715D01*
X152853323Y-94877279D01*
X152853324Y-94877278D01*
X152856627Y-94871556D01*
X152911487Y-94702714D01*
X152942225Y-94652556D01*
X152988911Y-94605870D01*
X153003323Y-94593484D01*
X153014918Y-94584951D01*
X153014923Y-94584946D01*
X153020818Y-94580608D01*
X153025557Y-94575030D01*
X153025560Y-94575027D01*
X153055035Y-94540332D01*
X153061965Y-94532816D01*
X153067661Y-94527120D01*
X153069924Y-94524259D01*
X153069929Y-94524254D01*
X153085293Y-94504834D01*
X153088082Y-94501433D01*
X153089743Y-94499478D01*
X153135333Y-94445815D01*
X153138659Y-94439302D01*
X153142020Y-94434263D01*
X153145196Y-94429121D01*
X153149734Y-94423384D01*
X153180655Y-94357225D01*
X153182561Y-94353325D01*
X153215769Y-94288292D01*
X153217508Y-94281183D01*
X153219604Y-94275549D01*
X153221523Y-94269779D01*
X153224622Y-94263150D01*
X153239491Y-94191665D01*
X153240461Y-94187382D01*
X153256473Y-94121944D01*
X153257808Y-94116490D01*
X153258500Y-94105336D01*
X153258535Y-94105338D01*
X153258775Y-94101366D01*
X153259152Y-94097145D01*
X153260641Y-94089985D01*
X153259177Y-94035871D01*
X153277330Y-93967234D01*
X153329708Y-93919307D01*
X153398233Y-93907165D01*
X153404513Y-93908500D01*
X153595487Y-93908500D01*
X153601939Y-93907128D01*
X153601944Y-93907128D01*
X153688887Y-93888647D01*
X153782288Y-93868794D01*
X153918165Y-93808298D01*
X153950722Y-93793803D01*
X153950724Y-93793802D01*
X153956752Y-93791118D01*
X154111253Y-93678866D01*
X154115675Y-93673955D01*
X154234621Y-93541852D01*
X154234622Y-93541851D01*
X154239040Y-93536944D01*
X154334527Y-93371556D01*
X154393542Y-93189928D01*
X154395155Y-93174587D01*
X154412814Y-93006565D01*
X154413504Y-93000000D01*
X154408489Y-92952285D01*
X154394232Y-92816635D01*
X154394232Y-92816633D01*
X154393542Y-92810072D01*
X154334527Y-92628444D01*
X154318380Y-92600477D01*
X154301500Y-92537479D01*
X154301500Y-70040070D01*
X154302933Y-70021120D01*
X154305099Y-70006885D01*
X154305099Y-70006881D01*
X154306199Y-69999651D01*
X154301915Y-69946982D01*
X154301500Y-69936767D01*
X154301500Y-69928707D01*
X154298209Y-69900480D01*
X154297778Y-69896121D01*
X154291860Y-69823364D01*
X154289605Y-69816403D01*
X154288418Y-69810463D01*
X154287029Y-69804588D01*
X154286182Y-69797319D01*
X154261264Y-69728670D01*
X154259847Y-69724542D01*
X154239607Y-69662064D01*
X154239606Y-69662062D01*
X154237351Y-69655101D01*
X154233555Y-69648846D01*
X154231049Y-69643372D01*
X154228330Y-69637942D01*
X154225833Y-69631063D01*
X154185814Y-69570024D01*
X154183467Y-69566305D01*
X154145595Y-69503893D01*
X154138197Y-69495516D01*
X154138224Y-69495492D01*
X154135571Y-69492500D01*
X154132868Y-69489267D01*
X154128856Y-69483148D01*
X154072617Y-69429872D01*
X154070175Y-69427494D01*
X150945671Y-66302990D01*
X150911645Y-66240678D01*
X150909245Y-66202913D01*
X150923019Y-66045475D01*
X150923498Y-66040000D01*
X152356502Y-66040000D01*
X152376457Y-66268087D01*
X152377881Y-66273400D01*
X152377881Y-66273402D01*
X152424477Y-66447297D01*
X152435716Y-66489243D01*
X152438039Y-66494224D01*
X152438039Y-66494225D01*
X152530151Y-66691762D01*
X152530154Y-66691767D01*
X152532477Y-66696749D01*
X152589230Y-66777800D01*
X152657871Y-66875829D01*
X152663802Y-66884300D01*
X152825700Y-67046198D01*
X152830208Y-67049355D01*
X152830211Y-67049357D01*
X152842176Y-67057735D01*
X153013251Y-67177523D01*
X153018233Y-67179846D01*
X153018238Y-67179849D01*
X153215775Y-67271961D01*
X153220757Y-67274284D01*
X153226065Y-67275706D01*
X153226067Y-67275707D01*
X153436598Y-67332119D01*
X153436600Y-67332119D01*
X153441913Y-67333543D01*
X153670000Y-67353498D01*
X153898087Y-67333543D01*
X153903400Y-67332119D01*
X153903402Y-67332119D01*
X154113933Y-67275707D01*
X154113935Y-67275706D01*
X154119243Y-67274284D01*
X154124225Y-67271961D01*
X154321762Y-67179849D01*
X154321767Y-67179846D01*
X154326749Y-67177523D01*
X154497824Y-67057735D01*
X154509789Y-67049357D01*
X154509792Y-67049355D01*
X154514300Y-67046198D01*
X154676198Y-66884300D01*
X154682130Y-66875829D01*
X154750770Y-66777800D01*
X154807523Y-66696749D01*
X154809846Y-66691767D01*
X154809849Y-66691762D01*
X154825805Y-66657543D01*
X154872722Y-66604258D01*
X154940999Y-66584797D01*
X155008959Y-66605339D01*
X155054195Y-66657543D01*
X155070151Y-66691762D01*
X155070154Y-66691767D01*
X155072477Y-66696749D01*
X155129230Y-66777800D01*
X155197871Y-66875829D01*
X155203802Y-66884300D01*
X155365700Y-67046198D01*
X155370208Y-67049355D01*
X155370211Y-67049357D01*
X155382176Y-67057735D01*
X155553251Y-67177523D01*
X155558233Y-67179846D01*
X155558238Y-67179849D01*
X155755775Y-67271961D01*
X155760757Y-67274284D01*
X155766065Y-67275706D01*
X155766067Y-67275707D01*
X155976598Y-67332119D01*
X155976600Y-67332119D01*
X155981913Y-67333543D01*
X156210000Y-67353498D01*
X156438087Y-67333543D01*
X156443400Y-67332119D01*
X156443402Y-67332119D01*
X156653933Y-67275707D01*
X156653935Y-67275706D01*
X156659243Y-67274284D01*
X156664225Y-67271961D01*
X156861762Y-67179849D01*
X156861767Y-67179846D01*
X156866749Y-67177523D01*
X157037824Y-67057735D01*
X157049789Y-67049357D01*
X157049792Y-67049355D01*
X157054300Y-67046198D01*
X157216198Y-66884300D01*
X157222130Y-66875829D01*
X157290770Y-66777800D01*
X157347523Y-66696749D01*
X157349846Y-66691767D01*
X157349849Y-66691762D01*
X157365805Y-66657543D01*
X157412722Y-66604258D01*
X157480999Y-66584797D01*
X157548959Y-66605339D01*
X157594195Y-66657543D01*
X157610151Y-66691762D01*
X157610154Y-66691767D01*
X157612477Y-66696749D01*
X157669230Y-66777800D01*
X157737871Y-66875829D01*
X157743802Y-66884300D01*
X157905700Y-67046198D01*
X157910208Y-67049355D01*
X157910211Y-67049357D01*
X157922176Y-67057735D01*
X158093251Y-67177523D01*
X158098233Y-67179846D01*
X158098238Y-67179849D01*
X158295775Y-67271961D01*
X158300757Y-67274284D01*
X158306065Y-67275706D01*
X158306067Y-67275707D01*
X158516598Y-67332119D01*
X158516600Y-67332119D01*
X158521913Y-67333543D01*
X158750000Y-67353498D01*
X158978087Y-67333543D01*
X158983400Y-67332119D01*
X158983402Y-67332119D01*
X159193933Y-67275707D01*
X159193935Y-67275706D01*
X159199243Y-67274284D01*
X159204225Y-67271961D01*
X159401762Y-67179849D01*
X159401767Y-67179846D01*
X159406749Y-67177523D01*
X159577824Y-67057735D01*
X159589789Y-67049357D01*
X159589792Y-67049355D01*
X159594300Y-67046198D01*
X159756198Y-66884300D01*
X159762130Y-66875829D01*
X159830770Y-66777800D01*
X159887523Y-66696749D01*
X159889846Y-66691767D01*
X159889849Y-66691762D01*
X159905805Y-66657543D01*
X159952722Y-66604258D01*
X160020999Y-66584797D01*
X160088959Y-66605339D01*
X160134195Y-66657543D01*
X160150151Y-66691762D01*
X160150154Y-66691767D01*
X160152477Y-66696749D01*
X160209230Y-66777800D01*
X160277871Y-66875829D01*
X160283802Y-66884300D01*
X160445700Y-67046198D01*
X160450208Y-67049355D01*
X160450211Y-67049357D01*
X160462176Y-67057735D01*
X160633251Y-67177523D01*
X160638233Y-67179846D01*
X160638238Y-67179849D01*
X160835775Y-67271961D01*
X160840757Y-67274284D01*
X160846065Y-67275706D01*
X160846067Y-67275707D01*
X161056598Y-67332119D01*
X161056600Y-67332119D01*
X161061913Y-67333543D01*
X161290000Y-67353498D01*
X161518087Y-67333543D01*
X161523400Y-67332119D01*
X161523402Y-67332119D01*
X161733933Y-67275707D01*
X161733935Y-67275706D01*
X161739243Y-67274284D01*
X161744225Y-67271961D01*
X161941762Y-67179849D01*
X161941767Y-67179846D01*
X161946749Y-67177523D01*
X162117824Y-67057735D01*
X162129789Y-67049357D01*
X162129792Y-67049355D01*
X162134300Y-67046198D01*
X162296198Y-66884300D01*
X162302130Y-66875829D01*
X162370770Y-66777800D01*
X162427523Y-66696749D01*
X162429846Y-66691767D01*
X162429849Y-66691762D01*
X162445805Y-66657543D01*
X162492722Y-66604258D01*
X162560999Y-66584797D01*
X162628959Y-66605339D01*
X162674195Y-66657543D01*
X162690151Y-66691762D01*
X162690154Y-66691767D01*
X162692477Y-66696749D01*
X162749230Y-66777800D01*
X162817871Y-66875829D01*
X162823802Y-66884300D01*
X162985700Y-67046198D01*
X162990208Y-67049355D01*
X162990211Y-67049357D01*
X163002176Y-67057735D01*
X163173251Y-67177523D01*
X163178233Y-67179846D01*
X163178238Y-67179849D01*
X163375775Y-67271961D01*
X163380757Y-67274284D01*
X163386065Y-67275706D01*
X163386067Y-67275707D01*
X163596598Y-67332119D01*
X163596600Y-67332119D01*
X163601913Y-67333543D01*
X163830000Y-67353498D01*
X164058087Y-67333543D01*
X164063400Y-67332119D01*
X164063402Y-67332119D01*
X164273933Y-67275707D01*
X164273935Y-67275706D01*
X164279243Y-67274284D01*
X164284225Y-67271961D01*
X164481762Y-67179849D01*
X164481767Y-67179846D01*
X164486749Y-67177523D01*
X164657824Y-67057735D01*
X164669789Y-67049357D01*
X164669792Y-67049355D01*
X164674300Y-67046198D01*
X164836198Y-66884300D01*
X164842130Y-66875829D01*
X164910770Y-66777800D01*
X164967523Y-66696749D01*
X164969846Y-66691767D01*
X164969849Y-66691762D01*
X164985805Y-66657543D01*
X165032722Y-66604258D01*
X165100999Y-66584797D01*
X165168959Y-66605339D01*
X165214195Y-66657543D01*
X165230151Y-66691762D01*
X165230154Y-66691767D01*
X165232477Y-66696749D01*
X165289230Y-66777800D01*
X165357871Y-66875829D01*
X165363802Y-66884300D01*
X165525700Y-67046198D01*
X165530208Y-67049355D01*
X165530211Y-67049357D01*
X165542176Y-67057735D01*
X165713251Y-67177523D01*
X165718233Y-67179846D01*
X165718238Y-67179849D01*
X165915775Y-67271961D01*
X165920757Y-67274284D01*
X165926065Y-67275706D01*
X165926067Y-67275707D01*
X166136598Y-67332119D01*
X166136600Y-67332119D01*
X166141913Y-67333543D01*
X166370000Y-67353498D01*
X166598087Y-67333543D01*
X166603400Y-67332119D01*
X166603402Y-67332119D01*
X166813933Y-67275707D01*
X166813935Y-67275706D01*
X166819243Y-67274284D01*
X166824225Y-67271961D01*
X167021762Y-67179849D01*
X167021767Y-67179846D01*
X167026749Y-67177523D01*
X167197824Y-67057735D01*
X167209789Y-67049357D01*
X167209792Y-67049355D01*
X167214300Y-67046198D01*
X167376198Y-66884300D01*
X167382130Y-66875829D01*
X167450770Y-66777800D01*
X167507523Y-66696749D01*
X167509846Y-66691767D01*
X167509849Y-66691762D01*
X167525805Y-66657543D01*
X167572722Y-66604258D01*
X167640999Y-66584797D01*
X167708959Y-66605339D01*
X167754195Y-66657543D01*
X167770151Y-66691762D01*
X167770154Y-66691767D01*
X167772477Y-66696749D01*
X167829230Y-66777800D01*
X167897871Y-66875829D01*
X167903802Y-66884300D01*
X168065700Y-67046198D01*
X168070208Y-67049355D01*
X168070211Y-67049357D01*
X168082176Y-67057735D01*
X168253251Y-67177523D01*
X168258233Y-67179846D01*
X168258238Y-67179849D01*
X168455775Y-67271961D01*
X168460757Y-67274284D01*
X168466065Y-67275706D01*
X168466067Y-67275707D01*
X168676598Y-67332119D01*
X168676600Y-67332119D01*
X168681913Y-67333543D01*
X168910000Y-67353498D01*
X169138087Y-67333543D01*
X169143400Y-67332119D01*
X169143402Y-67332119D01*
X169353933Y-67275707D01*
X169353935Y-67275706D01*
X169359243Y-67274284D01*
X169364225Y-67271961D01*
X169561762Y-67179849D01*
X169561767Y-67179846D01*
X169566749Y-67177523D01*
X169737824Y-67057735D01*
X169749789Y-67049357D01*
X169749792Y-67049355D01*
X169754300Y-67046198D01*
X169916198Y-66884300D01*
X169922130Y-66875829D01*
X169990770Y-66777800D01*
X170047523Y-66696749D01*
X170049846Y-66691767D01*
X170049849Y-66691762D01*
X170065805Y-66657543D01*
X170112722Y-66604258D01*
X170180999Y-66584797D01*
X170248959Y-66605339D01*
X170294195Y-66657543D01*
X170310151Y-66691762D01*
X170310154Y-66691767D01*
X170312477Y-66696749D01*
X170369230Y-66777800D01*
X170437871Y-66875829D01*
X170443802Y-66884300D01*
X170605700Y-67046198D01*
X170610208Y-67049355D01*
X170610211Y-67049357D01*
X170622176Y-67057735D01*
X170793251Y-67177523D01*
X170798233Y-67179846D01*
X170798238Y-67179849D01*
X170995775Y-67271961D01*
X171000757Y-67274284D01*
X171006065Y-67275706D01*
X171006067Y-67275707D01*
X171216598Y-67332119D01*
X171216600Y-67332119D01*
X171221913Y-67333543D01*
X171450000Y-67353498D01*
X171678087Y-67333543D01*
X171683400Y-67332119D01*
X171683402Y-67332119D01*
X171893933Y-67275707D01*
X171893935Y-67275706D01*
X171899243Y-67274284D01*
X171904225Y-67271961D01*
X172101762Y-67179849D01*
X172101767Y-67179846D01*
X172106749Y-67177523D01*
X172277824Y-67057735D01*
X172289789Y-67049357D01*
X172289792Y-67049355D01*
X172294300Y-67046198D01*
X172456198Y-66884300D01*
X172462130Y-66875829D01*
X172530770Y-66777800D01*
X172587523Y-66696749D01*
X172589846Y-66691767D01*
X172589849Y-66691762D01*
X172681961Y-66494225D01*
X172681961Y-66494224D01*
X172684284Y-66489243D01*
X172695524Y-66447297D01*
X172742119Y-66273402D01*
X172742119Y-66273400D01*
X172743543Y-66268087D01*
X172763498Y-66040000D01*
X172743543Y-65811913D01*
X172684284Y-65590757D01*
X172630148Y-65474661D01*
X172589849Y-65388238D01*
X172589846Y-65388233D01*
X172587523Y-65383251D01*
X172456198Y-65195700D01*
X172294300Y-65033802D01*
X172289792Y-65030645D01*
X172289789Y-65030643D01*
X172206212Y-64972122D01*
X172106749Y-64902477D01*
X172101767Y-64900154D01*
X172101762Y-64900151D01*
X171904225Y-64808039D01*
X171904224Y-64808039D01*
X171899243Y-64805716D01*
X171893935Y-64804294D01*
X171893933Y-64804293D01*
X171683402Y-64747881D01*
X171683400Y-64747881D01*
X171678087Y-64746457D01*
X171450000Y-64726502D01*
X171221913Y-64746457D01*
X171216600Y-64747881D01*
X171216598Y-64747881D01*
X171006067Y-64804293D01*
X171006065Y-64804294D01*
X171000757Y-64805716D01*
X170995776Y-64808039D01*
X170995775Y-64808039D01*
X170798238Y-64900151D01*
X170798233Y-64900154D01*
X170793251Y-64902477D01*
X170693788Y-64972122D01*
X170610211Y-65030643D01*
X170610208Y-65030645D01*
X170605700Y-65033802D01*
X170443802Y-65195700D01*
X170312477Y-65383251D01*
X170310154Y-65388233D01*
X170310151Y-65388238D01*
X170294195Y-65422457D01*
X170247278Y-65475742D01*
X170179001Y-65495203D01*
X170111041Y-65474661D01*
X170065805Y-65422457D01*
X170049849Y-65388238D01*
X170049846Y-65388233D01*
X170047523Y-65383251D01*
X169916198Y-65195700D01*
X169754300Y-65033802D01*
X169749792Y-65030645D01*
X169749789Y-65030643D01*
X169666212Y-64972122D01*
X169566749Y-64902477D01*
X169561767Y-64900154D01*
X169561762Y-64900151D01*
X169364225Y-64808039D01*
X169364224Y-64808039D01*
X169359243Y-64805716D01*
X169353935Y-64804294D01*
X169353933Y-64804293D01*
X169143402Y-64747881D01*
X169143400Y-64747881D01*
X169138087Y-64746457D01*
X168910000Y-64726502D01*
X168681913Y-64746457D01*
X168676600Y-64747881D01*
X168676598Y-64747881D01*
X168466067Y-64804293D01*
X168466065Y-64804294D01*
X168460757Y-64805716D01*
X168455776Y-64808039D01*
X168455775Y-64808039D01*
X168258238Y-64900151D01*
X168258233Y-64900154D01*
X168253251Y-64902477D01*
X168153788Y-64972122D01*
X168070211Y-65030643D01*
X168070208Y-65030645D01*
X168065700Y-65033802D01*
X167903802Y-65195700D01*
X167772477Y-65383251D01*
X167770154Y-65388233D01*
X167770151Y-65388238D01*
X167754195Y-65422457D01*
X167707278Y-65475742D01*
X167639001Y-65495203D01*
X167571041Y-65474661D01*
X167525805Y-65422457D01*
X167509849Y-65388238D01*
X167509846Y-65388233D01*
X167507523Y-65383251D01*
X167376198Y-65195700D01*
X167214300Y-65033802D01*
X167209792Y-65030645D01*
X167209789Y-65030643D01*
X167126212Y-64972122D01*
X167026749Y-64902477D01*
X167021767Y-64900154D01*
X167021762Y-64900151D01*
X166824225Y-64808039D01*
X166824224Y-64808039D01*
X166819243Y-64805716D01*
X166813935Y-64804294D01*
X166813933Y-64804293D01*
X166603402Y-64747881D01*
X166603400Y-64747881D01*
X166598087Y-64746457D01*
X166370000Y-64726502D01*
X166141913Y-64746457D01*
X166136600Y-64747881D01*
X166136598Y-64747881D01*
X165926067Y-64804293D01*
X165926065Y-64804294D01*
X165920757Y-64805716D01*
X165915776Y-64808039D01*
X165915775Y-64808039D01*
X165718238Y-64900151D01*
X165718233Y-64900154D01*
X165713251Y-64902477D01*
X165613788Y-64972122D01*
X165530211Y-65030643D01*
X165530208Y-65030645D01*
X165525700Y-65033802D01*
X165363802Y-65195700D01*
X165232477Y-65383251D01*
X165230154Y-65388233D01*
X165230151Y-65388238D01*
X165214195Y-65422457D01*
X165167278Y-65475742D01*
X165099001Y-65495203D01*
X165031041Y-65474661D01*
X164985805Y-65422457D01*
X164969849Y-65388238D01*
X164969846Y-65388233D01*
X164967523Y-65383251D01*
X164836198Y-65195700D01*
X164674300Y-65033802D01*
X164669792Y-65030645D01*
X164669789Y-65030643D01*
X164586212Y-64972122D01*
X164486749Y-64902477D01*
X164481767Y-64900154D01*
X164481762Y-64900151D01*
X164284225Y-64808039D01*
X164284224Y-64808039D01*
X164279243Y-64805716D01*
X164273935Y-64804294D01*
X164273933Y-64804293D01*
X164063402Y-64747881D01*
X164063400Y-64747881D01*
X164058087Y-64746457D01*
X163830000Y-64726502D01*
X163601913Y-64746457D01*
X163596600Y-64747881D01*
X163596598Y-64747881D01*
X163386067Y-64804293D01*
X163386065Y-64804294D01*
X163380757Y-64805716D01*
X163375776Y-64808039D01*
X163375775Y-64808039D01*
X163178238Y-64900151D01*
X163178233Y-64900154D01*
X163173251Y-64902477D01*
X163073788Y-64972122D01*
X162990211Y-65030643D01*
X162990208Y-65030645D01*
X162985700Y-65033802D01*
X162823802Y-65195700D01*
X162692477Y-65383251D01*
X162690154Y-65388233D01*
X162690151Y-65388238D01*
X162674195Y-65422457D01*
X162627278Y-65475742D01*
X162559001Y-65495203D01*
X162491041Y-65474661D01*
X162445805Y-65422457D01*
X162429849Y-65388238D01*
X162429846Y-65388233D01*
X162427523Y-65383251D01*
X162296198Y-65195700D01*
X162134300Y-65033802D01*
X162129792Y-65030645D01*
X162129789Y-65030643D01*
X162046212Y-64972122D01*
X161946749Y-64902477D01*
X161941767Y-64900154D01*
X161941762Y-64900151D01*
X161744225Y-64808039D01*
X161744224Y-64808039D01*
X161739243Y-64805716D01*
X161733935Y-64804294D01*
X161733933Y-64804293D01*
X161523402Y-64747881D01*
X161523400Y-64747881D01*
X161518087Y-64746457D01*
X161290000Y-64726502D01*
X161061913Y-64746457D01*
X161056600Y-64747881D01*
X161056598Y-64747881D01*
X160846067Y-64804293D01*
X160846065Y-64804294D01*
X160840757Y-64805716D01*
X160835776Y-64808039D01*
X160835775Y-64808039D01*
X160638238Y-64900151D01*
X160638233Y-64900154D01*
X160633251Y-64902477D01*
X160533788Y-64972122D01*
X160450211Y-65030643D01*
X160450208Y-65030645D01*
X160445700Y-65033802D01*
X160283802Y-65195700D01*
X160152477Y-65383251D01*
X160150154Y-65388233D01*
X160150151Y-65388238D01*
X160134195Y-65422457D01*
X160087278Y-65475742D01*
X160019001Y-65495203D01*
X159951041Y-65474661D01*
X159905805Y-65422457D01*
X159889849Y-65388238D01*
X159889846Y-65388233D01*
X159887523Y-65383251D01*
X159756198Y-65195700D01*
X159594300Y-65033802D01*
X159589792Y-65030645D01*
X159589789Y-65030643D01*
X159506212Y-64972122D01*
X159406749Y-64902477D01*
X159401767Y-64900154D01*
X159401762Y-64900151D01*
X159204225Y-64808039D01*
X159204224Y-64808039D01*
X159199243Y-64805716D01*
X159193935Y-64804294D01*
X159193933Y-64804293D01*
X158983402Y-64747881D01*
X158983400Y-64747881D01*
X158978087Y-64746457D01*
X158750000Y-64726502D01*
X158521913Y-64746457D01*
X158516600Y-64747881D01*
X158516598Y-64747881D01*
X158306067Y-64804293D01*
X158306065Y-64804294D01*
X158300757Y-64805716D01*
X158295776Y-64808039D01*
X158295775Y-64808039D01*
X158098238Y-64900151D01*
X158098233Y-64900154D01*
X158093251Y-64902477D01*
X157993788Y-64972122D01*
X157910211Y-65030643D01*
X157910208Y-65030645D01*
X157905700Y-65033802D01*
X157743802Y-65195700D01*
X157612477Y-65383251D01*
X157610154Y-65388233D01*
X157610151Y-65388238D01*
X157594195Y-65422457D01*
X157547278Y-65475742D01*
X157479001Y-65495203D01*
X157411041Y-65474661D01*
X157365805Y-65422457D01*
X157349849Y-65388238D01*
X157349846Y-65388233D01*
X157347523Y-65383251D01*
X157216198Y-65195700D01*
X157054300Y-65033802D01*
X157049792Y-65030645D01*
X157049789Y-65030643D01*
X156966212Y-64972122D01*
X156866749Y-64902477D01*
X156861767Y-64900154D01*
X156861762Y-64900151D01*
X156664225Y-64808039D01*
X156664224Y-64808039D01*
X156659243Y-64805716D01*
X156653935Y-64804294D01*
X156653933Y-64804293D01*
X156443402Y-64747881D01*
X156443400Y-64747881D01*
X156438087Y-64746457D01*
X156210000Y-64726502D01*
X155981913Y-64746457D01*
X155976600Y-64747881D01*
X155976598Y-64747881D01*
X155766067Y-64804293D01*
X155766065Y-64804294D01*
X155760757Y-64805716D01*
X155755776Y-64808039D01*
X155755775Y-64808039D01*
X155558238Y-64900151D01*
X155558233Y-64900154D01*
X155553251Y-64902477D01*
X155453788Y-64972122D01*
X155370211Y-65030643D01*
X155370208Y-65030645D01*
X155365700Y-65033802D01*
X155203802Y-65195700D01*
X155072477Y-65383251D01*
X155070154Y-65388233D01*
X155070151Y-65388238D01*
X155054195Y-65422457D01*
X155007278Y-65475742D01*
X154939001Y-65495203D01*
X154871041Y-65474661D01*
X154825805Y-65422457D01*
X154809849Y-65388238D01*
X154809846Y-65388233D01*
X154807523Y-65383251D01*
X154676198Y-65195700D01*
X154514300Y-65033802D01*
X154509792Y-65030645D01*
X154509789Y-65030643D01*
X154426212Y-64972122D01*
X154326749Y-64902477D01*
X154321767Y-64900154D01*
X154321762Y-64900151D01*
X154124225Y-64808039D01*
X154124224Y-64808039D01*
X154119243Y-64805716D01*
X154113935Y-64804294D01*
X154113933Y-64804293D01*
X153903402Y-64747881D01*
X153903400Y-64747881D01*
X153898087Y-64746457D01*
X153670000Y-64726502D01*
X153441913Y-64746457D01*
X153436600Y-64747881D01*
X153436598Y-64747881D01*
X153226067Y-64804293D01*
X153226065Y-64804294D01*
X153220757Y-64805716D01*
X153215776Y-64808039D01*
X153215775Y-64808039D01*
X153018238Y-64900151D01*
X153018233Y-64900154D01*
X153013251Y-64902477D01*
X152913788Y-64972122D01*
X152830211Y-65030643D01*
X152830208Y-65030645D01*
X152825700Y-65033802D01*
X152663802Y-65195700D01*
X152532477Y-65383251D01*
X152530154Y-65388233D01*
X152530151Y-65388238D01*
X152489852Y-65474661D01*
X152435716Y-65590757D01*
X152376457Y-65811913D01*
X152356502Y-66040000D01*
X150923498Y-66040000D01*
X150903543Y-65811913D01*
X150844284Y-65590757D01*
X150790148Y-65474661D01*
X150749849Y-65388238D01*
X150749846Y-65388233D01*
X150747523Y-65383251D01*
X150616198Y-65195700D01*
X150454300Y-65033802D01*
X150449792Y-65030645D01*
X150449789Y-65030643D01*
X150366212Y-64972122D01*
X150266749Y-64902477D01*
X150261767Y-64900154D01*
X150261762Y-64900151D01*
X150064225Y-64808039D01*
X150064224Y-64808039D01*
X150059243Y-64805716D01*
X150053935Y-64804294D01*
X150053933Y-64804293D01*
X149843402Y-64747881D01*
X149843400Y-64747881D01*
X149838087Y-64746457D01*
X149610000Y-64726502D01*
X149381913Y-64746457D01*
X149376600Y-64747881D01*
X149376598Y-64747881D01*
X149166067Y-64804293D01*
X149166065Y-64804294D01*
X149160757Y-64805716D01*
X149155776Y-64808039D01*
X149155775Y-64808039D01*
X148958238Y-64900151D01*
X148958233Y-64900154D01*
X148953251Y-64902477D01*
X148853788Y-64972122D01*
X148770211Y-65030643D01*
X148770208Y-65030645D01*
X148765700Y-65033802D01*
X148603802Y-65195700D01*
X148472477Y-65383251D01*
X148470154Y-65388233D01*
X148470151Y-65388238D01*
X148454195Y-65422457D01*
X148407278Y-65475742D01*
X148339001Y-65495203D01*
X148271041Y-65474661D01*
X148225805Y-65422457D01*
X148209849Y-65388238D01*
X148209846Y-65388233D01*
X148207523Y-65383251D01*
X148076198Y-65195700D01*
X147914300Y-65033802D01*
X147909792Y-65030645D01*
X147909789Y-65030643D01*
X147826212Y-64972122D01*
X147726749Y-64902477D01*
X147721767Y-64900154D01*
X147721762Y-64900151D01*
X147524225Y-64808039D01*
X147524224Y-64808039D01*
X147519243Y-64805716D01*
X147513935Y-64804294D01*
X147513933Y-64804293D01*
X147303402Y-64747881D01*
X147303400Y-64747881D01*
X147298087Y-64746457D01*
X147070000Y-64726502D01*
X146841913Y-64746457D01*
X146836600Y-64747881D01*
X146836598Y-64747881D01*
X146626067Y-64804293D01*
X146626065Y-64804294D01*
X146620757Y-64805716D01*
X146615776Y-64808039D01*
X146615775Y-64808039D01*
X146418238Y-64900151D01*
X146418233Y-64900154D01*
X146413251Y-64902477D01*
X146313788Y-64972122D01*
X146230211Y-65030643D01*
X146230208Y-65030645D01*
X146225700Y-65033802D01*
X146063802Y-65195700D01*
X145932477Y-65383251D01*
X145930154Y-65388233D01*
X145930151Y-65388238D01*
X145914195Y-65422457D01*
X145867278Y-65475742D01*
X145799001Y-65495203D01*
X145731041Y-65474661D01*
X145685805Y-65422457D01*
X145669849Y-65388238D01*
X145669846Y-65388233D01*
X145667523Y-65383251D01*
X145536198Y-65195700D01*
X145374300Y-65033802D01*
X145369792Y-65030645D01*
X145369789Y-65030643D01*
X145286212Y-64972122D01*
X145186749Y-64902477D01*
X145181767Y-64900154D01*
X145181762Y-64900151D01*
X144984225Y-64808039D01*
X144984224Y-64808039D01*
X144979243Y-64805716D01*
X144973935Y-64804294D01*
X144973933Y-64804293D01*
X144763402Y-64747881D01*
X144763400Y-64747881D01*
X144758087Y-64746457D01*
X144530000Y-64726502D01*
X144301913Y-64746457D01*
X144296600Y-64747881D01*
X144296598Y-64747881D01*
X144086067Y-64804293D01*
X144086065Y-64804294D01*
X144080757Y-64805716D01*
X144075776Y-64808039D01*
X144075775Y-64808039D01*
X143878238Y-64900151D01*
X143878233Y-64900154D01*
X143873251Y-64902477D01*
X143773788Y-64972122D01*
X143690211Y-65030643D01*
X143690208Y-65030645D01*
X143685700Y-65033802D01*
X143523802Y-65195700D01*
X143392477Y-65383251D01*
X143390154Y-65388233D01*
X143390151Y-65388238D01*
X143374195Y-65422457D01*
X143327278Y-65475742D01*
X143259001Y-65495203D01*
X143191041Y-65474661D01*
X143145805Y-65422457D01*
X143129849Y-65388238D01*
X143129846Y-65388233D01*
X143127523Y-65383251D01*
X142996198Y-65195700D01*
X142834300Y-65033802D01*
X142829792Y-65030645D01*
X142829789Y-65030643D01*
X142746212Y-64972122D01*
X142646749Y-64902477D01*
X142641767Y-64900154D01*
X142641762Y-64900151D01*
X142444225Y-64808039D01*
X142444224Y-64808039D01*
X142439243Y-64805716D01*
X142433935Y-64804294D01*
X142433933Y-64804293D01*
X142223402Y-64747881D01*
X142223400Y-64747881D01*
X142218087Y-64746457D01*
X141990000Y-64726502D01*
X141761913Y-64746457D01*
X141756600Y-64747881D01*
X141756598Y-64747881D01*
X141546067Y-64804293D01*
X141546065Y-64804294D01*
X141540757Y-64805716D01*
X141535776Y-64808039D01*
X141535775Y-64808039D01*
X141338238Y-64900151D01*
X141338233Y-64900154D01*
X141333251Y-64902477D01*
X141233788Y-64972122D01*
X141150211Y-65030643D01*
X141150208Y-65030645D01*
X141145700Y-65033802D01*
X140983802Y-65195700D01*
X140852477Y-65383251D01*
X140850154Y-65388233D01*
X140850151Y-65388238D01*
X140834195Y-65422457D01*
X140787278Y-65475742D01*
X140719001Y-65495203D01*
X140651041Y-65474661D01*
X140605805Y-65422457D01*
X140589849Y-65388238D01*
X140589846Y-65388233D01*
X140587523Y-65383251D01*
X140456198Y-65195700D01*
X140294300Y-65033802D01*
X140289792Y-65030645D01*
X140289789Y-65030643D01*
X140206212Y-64972122D01*
X140106749Y-64902477D01*
X140101767Y-64900154D01*
X140101762Y-64900151D01*
X139904225Y-64808039D01*
X139904224Y-64808039D01*
X139899243Y-64805716D01*
X139893935Y-64804294D01*
X139893933Y-64804293D01*
X139683402Y-64747881D01*
X139683400Y-64747881D01*
X139678087Y-64746457D01*
X139450000Y-64726502D01*
X139221913Y-64746457D01*
X139216600Y-64747881D01*
X139216598Y-64747881D01*
X139006067Y-64804293D01*
X139006065Y-64804294D01*
X139000757Y-64805716D01*
X138995776Y-64808039D01*
X138995775Y-64808039D01*
X138798238Y-64900151D01*
X138798233Y-64900154D01*
X138793251Y-64902477D01*
X138693788Y-64972122D01*
X138610211Y-65030643D01*
X138610208Y-65030645D01*
X138605700Y-65033802D01*
X138443802Y-65195700D01*
X138312477Y-65383251D01*
X138310154Y-65388233D01*
X138310151Y-65388238D01*
X138294195Y-65422457D01*
X138247278Y-65475742D01*
X138179001Y-65495203D01*
X138111041Y-65474661D01*
X138065805Y-65422457D01*
X138049849Y-65388238D01*
X138049846Y-65388233D01*
X138047523Y-65383251D01*
X137916198Y-65195700D01*
X137754300Y-65033802D01*
X137749792Y-65030645D01*
X137749789Y-65030643D01*
X137666212Y-64972122D01*
X137566749Y-64902477D01*
X137561767Y-64900154D01*
X137561762Y-64900151D01*
X137364225Y-64808039D01*
X137364224Y-64808039D01*
X137359243Y-64805716D01*
X137353935Y-64804294D01*
X137353933Y-64804293D01*
X137143402Y-64747881D01*
X137143400Y-64747881D01*
X137138087Y-64746457D01*
X136910000Y-64726502D01*
X136904525Y-64726981D01*
X136747087Y-64740755D01*
X136677482Y-64726766D01*
X136647010Y-64704329D01*
X136039276Y-64096595D01*
X136005250Y-64034283D01*
X136010315Y-63963468D01*
X136052862Y-63906632D01*
X136119382Y-63881821D01*
X136128371Y-63881500D01*
X172203183Y-63881500D01*
X172271304Y-63901502D01*
G37*
%TD.AperFunction*%
%TA.AperFunction,Conductor*%
G36*
X111956121Y-70251002D02*
G01*
X112002614Y-70304658D01*
X112014000Y-70357000D01*
X112014000Y-71824884D01*
X112018475Y-71840123D01*
X112019865Y-71841328D01*
X112027548Y-71842999D01*
X112654669Y-71842999D01*
X112661490Y-71842629D01*
X112712352Y-71837105D01*
X112727604Y-71833479D01*
X112848054Y-71788324D01*
X112863649Y-71779786D01*
X112965724Y-71703285D01*
X112978285Y-71690724D01*
X113054786Y-71588649D01*
X113063324Y-71573054D01*
X113104225Y-71463952D01*
X113146867Y-71407188D01*
X113213428Y-71382488D01*
X113282777Y-71397696D01*
X113317444Y-71425684D01*
X113342865Y-71455031D01*
X113342869Y-71455035D01*
X113346250Y-71458938D01*
X113495668Y-71582987D01*
X113495985Y-71583250D01*
X113535620Y-71642152D01*
X113541500Y-71680194D01*
X113541500Y-71918230D01*
X113540067Y-71937180D01*
X113536801Y-71958649D01*
X113537394Y-71965941D01*
X113537394Y-71965944D01*
X113541085Y-72011318D01*
X113541500Y-72021533D01*
X113541500Y-72029593D01*
X113541925Y-72033237D01*
X113544789Y-72057807D01*
X113545222Y-72062182D01*
X113551140Y-72134937D01*
X113553396Y-72141901D01*
X113554587Y-72147860D01*
X113555971Y-72153715D01*
X113556818Y-72160981D01*
X113581735Y-72229627D01*
X113583152Y-72233755D01*
X113584886Y-72239106D01*
X113605649Y-72303199D01*
X113609445Y-72309454D01*
X113611951Y-72314928D01*
X113614670Y-72320358D01*
X113617167Y-72327237D01*
X113621180Y-72333357D01*
X113621180Y-72333358D01*
X113657186Y-72388276D01*
X113659523Y-72391980D01*
X113697405Y-72454407D01*
X113701121Y-72458615D01*
X113701122Y-72458616D01*
X113704803Y-72462784D01*
X113704776Y-72462808D01*
X113707429Y-72465800D01*
X113710132Y-72469033D01*
X113714144Y-72475152D01*
X113719456Y-72480184D01*
X113770383Y-72528428D01*
X113772825Y-72530806D01*
X121277295Y-80035276D01*
X121311321Y-80097588D01*
X121314200Y-80124371D01*
X121314200Y-104890929D01*
X121294198Y-104959050D01*
X121277295Y-104980024D01*
X116394146Y-109863173D01*
X116331834Y-109897199D01*
X116294070Y-109899599D01*
X116210475Y-109892286D01*
X116205000Y-109891807D01*
X115990858Y-109910542D01*
X115985545Y-109911966D01*
X115985543Y-109911966D01*
X115788533Y-109964755D01*
X115788531Y-109964756D01*
X115783223Y-109966178D01*
X115778243Y-109968500D01*
X115778241Y-109968501D01*
X115593385Y-110054701D01*
X115593382Y-110054703D01*
X115588404Y-110057024D01*
X115412319Y-110180319D01*
X115260319Y-110332319D01*
X115137024Y-110508404D01*
X115134703Y-110513382D01*
X115134701Y-110513385D01*
X115073695Y-110644213D01*
X115026778Y-110697498D01*
X114958500Y-110716959D01*
X114890540Y-110696417D01*
X114844475Y-110642394D01*
X114833500Y-110590963D01*
X114833500Y-98429930D01*
X115962725Y-98429930D01*
X115980572Y-98656699D01*
X115982115Y-98666446D01*
X116035217Y-98887627D01*
X116038266Y-98897012D01*
X116125313Y-99107163D01*
X116129795Y-99115958D01*
X116232432Y-99283445D01*
X116242890Y-99292907D01*
X116251666Y-99289124D01*
X117102978Y-98437812D01*
X117110592Y-98423868D01*
X117110461Y-98422035D01*
X117106210Y-98415420D01*
X116254710Y-97563920D01*
X116242330Y-97557160D01*
X116234680Y-97562887D01*
X116129795Y-97734042D01*
X116125313Y-97742837D01*
X116038266Y-97952988D01*
X116035217Y-97962373D01*
X115982115Y-98183554D01*
X115980572Y-98193301D01*
X115962725Y-98420070D01*
X115962725Y-98429930D01*
X114833500Y-98429930D01*
X114833500Y-97192890D01*
X116607093Y-97192890D01*
X116610876Y-97201666D01*
X117745115Y-98335905D01*
X117779141Y-98398217D01*
X117774076Y-98469032D01*
X117745115Y-98514095D01*
X116613920Y-99645290D01*
X116607160Y-99657670D01*
X116612887Y-99665320D01*
X116784042Y-99770205D01*
X116792837Y-99774687D01*
X117002988Y-99861734D01*
X117012373Y-99864783D01*
X117233554Y-99917885D01*
X117243301Y-99919428D01*
X117470070Y-99937275D01*
X117479930Y-99937275D01*
X117706699Y-99919428D01*
X117716446Y-99917885D01*
X117937627Y-99864783D01*
X117947012Y-99861734D01*
X118051782Y-99818337D01*
X118122372Y-99810748D01*
X118148218Y-99818337D01*
X118252988Y-99861734D01*
X118262373Y-99864783D01*
X118483554Y-99917885D01*
X118493301Y-99919428D01*
X118720070Y-99937275D01*
X118729930Y-99937275D01*
X118956699Y-99919428D01*
X118966446Y-99917885D01*
X119187627Y-99864783D01*
X119197012Y-99861734D01*
X119407163Y-99774687D01*
X119415958Y-99770205D01*
X119583445Y-99667568D01*
X119592907Y-99657110D01*
X119589124Y-99648334D01*
X118454885Y-98514095D01*
X118420859Y-98451783D01*
X118422694Y-98426132D01*
X119089408Y-98426132D01*
X119089539Y-98427965D01*
X119093790Y-98434580D01*
X119945290Y-99286080D01*
X119957670Y-99292840D01*
X119965320Y-99287113D01*
X120070205Y-99115958D01*
X120074687Y-99107163D01*
X120161734Y-98897012D01*
X120164783Y-98887627D01*
X120217885Y-98666446D01*
X120219428Y-98656699D01*
X120237275Y-98429930D01*
X120237275Y-98420070D01*
X120219428Y-98193301D01*
X120217885Y-98183554D01*
X120164783Y-97962373D01*
X120161734Y-97952988D01*
X120074687Y-97742837D01*
X120070205Y-97734042D01*
X119967568Y-97566555D01*
X119957110Y-97557093D01*
X119948334Y-97560876D01*
X119097022Y-98412188D01*
X119089408Y-98426132D01*
X118422694Y-98426132D01*
X118425924Y-98380968D01*
X118454885Y-98335905D01*
X119586080Y-97204710D01*
X119592840Y-97192330D01*
X119587113Y-97184680D01*
X119415958Y-97079795D01*
X119407163Y-97075313D01*
X119197012Y-96988266D01*
X119187627Y-96985217D01*
X118966446Y-96932115D01*
X118956699Y-96930572D01*
X118729930Y-96912725D01*
X118720070Y-96912725D01*
X118493301Y-96930572D01*
X118483554Y-96932115D01*
X118262373Y-96985217D01*
X118252988Y-96988266D01*
X118148218Y-97031663D01*
X118077628Y-97039252D01*
X118051782Y-97031663D01*
X117947012Y-96988266D01*
X117937627Y-96985217D01*
X117716446Y-96932115D01*
X117706699Y-96930572D01*
X117479930Y-96912725D01*
X117470070Y-96912725D01*
X117243301Y-96930572D01*
X117233554Y-96932115D01*
X117012373Y-96985217D01*
X117002988Y-96988266D01*
X116792837Y-97075313D01*
X116784042Y-97079795D01*
X116616555Y-97182432D01*
X116607093Y-97192890D01*
X114833500Y-97192890D01*
X114833500Y-90400000D01*
X118994496Y-90400000D01*
X118995186Y-90406565D01*
X119006974Y-90518717D01*
X119014458Y-90589928D01*
X119073473Y-90771556D01*
X119168960Y-90936944D01*
X119296747Y-91078866D01*
X119451248Y-91191118D01*
X119457276Y-91193802D01*
X119457278Y-91193803D01*
X119619681Y-91266109D01*
X119625712Y-91268794D01*
X119719113Y-91288647D01*
X119806056Y-91307128D01*
X119806061Y-91307128D01*
X119812513Y-91308500D01*
X120003487Y-91308500D01*
X120009939Y-91307128D01*
X120009944Y-91307128D01*
X120096887Y-91288647D01*
X120190288Y-91268794D01*
X120196319Y-91266109D01*
X120358722Y-91193803D01*
X120358724Y-91193802D01*
X120364752Y-91191118D01*
X120519253Y-91078866D01*
X120647040Y-90936944D01*
X120742527Y-90771556D01*
X120801542Y-90589928D01*
X120809027Y-90518717D01*
X120820814Y-90406565D01*
X120821504Y-90400000D01*
X120805552Y-90248222D01*
X120802232Y-90216635D01*
X120802232Y-90216633D01*
X120801542Y-90210072D01*
X120742527Y-90028444D01*
X120683381Y-89926000D01*
X120666500Y-89863001D01*
X120666500Y-82484099D01*
X120683381Y-82421099D01*
X120739223Y-82324379D01*
X120739224Y-82324378D01*
X120742527Y-82318656D01*
X120801542Y-82137028D01*
X120821504Y-81947100D01*
X120801542Y-81757172D01*
X120742527Y-81575544D01*
X120647040Y-81410156D01*
X120519253Y-81268234D01*
X120364752Y-81155982D01*
X120358724Y-81153298D01*
X120358722Y-81153297D01*
X120196319Y-81080991D01*
X120196318Y-81080991D01*
X120190288Y-81078306D01*
X120074969Y-81053794D01*
X120009944Y-81039972D01*
X120009939Y-81039972D01*
X120003487Y-81038600D01*
X119812513Y-81038600D01*
X119806061Y-81039972D01*
X119806056Y-81039972D01*
X119741031Y-81053794D01*
X119625712Y-81078306D01*
X119619682Y-81080991D01*
X119619681Y-81080991D01*
X119457278Y-81153297D01*
X119457276Y-81153298D01*
X119451248Y-81155982D01*
X119296747Y-81268234D01*
X119168960Y-81410156D01*
X119073473Y-81575544D01*
X119014458Y-81757172D01*
X118994496Y-81947100D01*
X119014458Y-82137028D01*
X119073473Y-82318656D01*
X119076776Y-82324378D01*
X119076777Y-82324379D01*
X119132619Y-82421099D01*
X119149500Y-82484099D01*
X119149500Y-89863001D01*
X119132619Y-89926000D01*
X119073473Y-90028444D01*
X119014458Y-90210072D01*
X119013768Y-90216633D01*
X119013768Y-90216635D01*
X119010448Y-90248222D01*
X118994496Y-90400000D01*
X114833500Y-90400000D01*
X114833500Y-89016263D01*
X114834933Y-88997314D01*
X114837097Y-88983086D01*
X114838198Y-88975851D01*
X114833915Y-88923190D01*
X114833500Y-88912977D01*
X114833500Y-88904907D01*
X114833078Y-88901287D01*
X114833077Y-88901269D01*
X114830208Y-88876661D01*
X114829775Y-88872286D01*
X114824454Y-88806861D01*
X114824453Y-88806858D01*
X114823860Y-88799563D01*
X114821604Y-88792599D01*
X114820413Y-88786640D01*
X114819029Y-88780785D01*
X114818182Y-88773519D01*
X114793265Y-88704873D01*
X114791848Y-88700745D01*
X114771607Y-88638264D01*
X114771606Y-88638262D01*
X114769351Y-88631301D01*
X114765555Y-88625046D01*
X114763049Y-88619572D01*
X114760330Y-88614142D01*
X114757833Y-88607263D01*
X114717809Y-88546216D01*
X114715472Y-88542512D01*
X114680509Y-88484893D01*
X114680505Y-88484888D01*
X114677595Y-88480092D01*
X114670197Y-88471716D01*
X114670223Y-88471693D01*
X114667574Y-88468703D01*
X114664866Y-88465464D01*
X114660856Y-88459348D01*
X114655549Y-88454321D01*
X114655546Y-88454317D01*
X114604617Y-88406072D01*
X114602175Y-88403694D01*
X111055005Y-84856524D01*
X111020979Y-84794212D01*
X111018100Y-84767429D01*
X111018100Y-71969000D01*
X111038102Y-71900879D01*
X111091758Y-71854386D01*
X111144100Y-71843000D01*
X111487885Y-71843000D01*
X111503124Y-71838525D01*
X111504329Y-71837135D01*
X111506000Y-71829452D01*
X111506000Y-70357000D01*
X111526002Y-70288879D01*
X111579658Y-70242386D01*
X111632000Y-70231000D01*
X111888000Y-70231000D01*
X111956121Y-70251002D01*
G37*
%TD.AperFunction*%
M02*
