%TF.GenerationSoftware,KiCad,Pcbnew,6.0.11-2627ca5db0~126~ubuntu20.04.1*%
%TF.CreationDate,2023-03-17T11:40:46+01:00*%
%TF.ProjectId,shield_a,73686965-6c64-45f6-912e-6b696361645f,2.0.1*%
%TF.SameCoordinates,Original*%
%TF.FileFunction,Drillmap*%
%TF.FilePolarity,Positive*%
%FSLAX45Y45*%
G04 Gerber Fmt 4.5, Leading zero omitted, Abs format (unit mm)*
G04 Created by KiCad (PCBNEW 6.0.11-2627ca5db0~126~ubuntu20.04.1) date 2023-03-17 11:40:46*
%MOMM*%
%LPD*%
G01*
G04 APERTURE LIST*
%ADD10C,0.150000*%
%ADD11C,0.200000*%
G04 APERTURE END LIST*
D10*
X10782300Y-6337300D02*
X10782300Y-11696700D01*
X17665700Y-7899400D02*
X17411700Y-7645400D01*
X10782300Y-11696700D02*
X17411700Y-11696700D01*
X17246600Y-6337300D02*
X10782300Y-6337300D01*
X17411700Y-7645400D02*
X17411700Y-6502400D01*
X17411700Y-11442700D02*
X17665700Y-11188700D01*
X17411700Y-11696700D02*
X17411700Y-11442700D01*
X17665700Y-11188700D02*
X17665700Y-7899400D01*
X17411700Y-6502400D02*
X17246600Y-6337300D01*
D11*
X11032419Y-12014676D02*
X11032419Y-11814676D01*
X11080038Y-11814676D01*
X11108610Y-11824200D01*
X11127657Y-11843248D01*
X11137181Y-11862295D01*
X11146705Y-11900390D01*
X11146705Y-11928962D01*
X11137181Y-11967057D01*
X11127657Y-11986105D01*
X11108610Y-12005152D01*
X11080038Y-12014676D01*
X11032419Y-12014676D01*
X11232419Y-12014676D02*
X11232419Y-11881343D01*
X11232419Y-11919438D02*
X11241943Y-11900390D01*
X11251467Y-11890867D01*
X11270514Y-11881343D01*
X11289562Y-11881343D01*
X11356228Y-12014676D02*
X11356228Y-11881343D01*
X11356228Y-11814676D02*
X11346705Y-11824200D01*
X11356228Y-11833724D01*
X11365752Y-11824200D01*
X11356228Y-11814676D01*
X11356228Y-11833724D01*
X11480038Y-12014676D02*
X11460990Y-12005152D01*
X11451467Y-11986105D01*
X11451467Y-11814676D01*
X11584800Y-12014676D02*
X11565752Y-12005152D01*
X11556228Y-11986105D01*
X11556228Y-11814676D01*
X11813371Y-12014676D02*
X11813371Y-11814676D01*
X11880038Y-11957533D01*
X11946705Y-11814676D01*
X11946705Y-12014676D01*
X12127657Y-12014676D02*
X12127657Y-11909914D01*
X12118133Y-11890867D01*
X12099086Y-11881343D01*
X12060990Y-11881343D01*
X12041943Y-11890867D01*
X12127657Y-12005152D02*
X12108609Y-12014676D01*
X12060990Y-12014676D01*
X12041943Y-12005152D01*
X12032419Y-11986105D01*
X12032419Y-11967057D01*
X12041943Y-11948009D01*
X12060990Y-11938486D01*
X12108609Y-11938486D01*
X12127657Y-11928962D01*
X12222895Y-11881343D02*
X12222895Y-12081343D01*
X12222895Y-11890867D02*
X12241943Y-11881343D01*
X12280038Y-11881343D01*
X12299086Y-11890867D01*
X12308609Y-11900390D01*
X12318133Y-11919438D01*
X12318133Y-11976581D01*
X12308609Y-11995628D01*
X12299086Y-12005152D01*
X12280038Y-12014676D01*
X12241943Y-12014676D01*
X12222895Y-12005152D01*
X12403848Y-11995628D02*
X12413371Y-12005152D01*
X12403848Y-12014676D01*
X12394324Y-12005152D01*
X12403848Y-11995628D01*
X12403848Y-12014676D01*
X12403848Y-11890867D02*
X12413371Y-11900390D01*
X12403848Y-11909914D01*
X12394324Y-11900390D01*
X12403848Y-11890867D01*
X12403848Y-11909914D01*
M02*
