%TF.GenerationSoftware,KiCad,Pcbnew,6.0.11-2627ca5db0~126~ubuntu20.04.1*%
%TF.CreationDate,2023-03-17T11:38:59+01:00*%
%TF.ProjectId,shield_a,73686965-6c64-45f6-912e-6b696361645f,2.0.1*%
%TF.SameCoordinates,Original*%
%TF.FileFunction,Paste,Top*%
%TF.FilePolarity,Positive*%
%FSLAX46Y46*%
G04 Gerber Fmt 4.6, Leading zero omitted, Abs format (unit mm)*
G04 Created by KiCad (PCBNEW 6.0.11-2627ca5db0~126~ubuntu20.04.1) date 2023-03-17 11:38:59*
%MOMM*%
%LPD*%
G01*
G04 APERTURE LIST*
G04 Aperture macros list*
%AMRoundRect*
0 Rectangle with rounded corners*
0 $1 Rounding radius*
0 $2 $3 $4 $5 $6 $7 $8 $9 X,Y pos of 4 corners*
0 Add a 4 corners polygon primitive as box body*
4,1,4,$2,$3,$4,$5,$6,$7,$8,$9,$2,$3,0*
0 Add four circle primitives for the rounded corners*
1,1,$1+$1,$2,$3*
1,1,$1+$1,$4,$5*
1,1,$1+$1,$6,$7*
1,1,$1+$1,$8,$9*
0 Add four rect primitives between the rounded corners*
20,1,$1+$1,$2,$3,$4,$5,0*
20,1,$1+$1,$4,$5,$6,$7,0*
20,1,$1+$1,$6,$7,$8,$9,0*
20,1,$1+$1,$8,$9,$2,$3,0*%
G04 Aperture macros list end*
%ADD10RoundRect,0.250000X-0.625000X0.312500X-0.625000X-0.312500X0.625000X-0.312500X0.625000X0.312500X0*%
%ADD11RoundRect,0.250000X0.625000X-0.312500X0.625000X0.312500X-0.625000X0.312500X-0.625000X-0.312500X0*%
%ADD12RoundRect,0.250000X-0.312500X-0.625000X0.312500X-0.625000X0.312500X0.625000X-0.312500X0.625000X0*%
%ADD13R,0.600000X1.200000*%
%ADD14RoundRect,0.116200X-1.183800X0.583800X-1.183800X-0.583800X1.183800X-0.583800X1.183800X0.583800X0*%
%ADD15R,1.500000X2.500000*%
%ADD16R,2.200000X1.200000*%
%ADD17RoundRect,0.150000X0.587500X0.150000X-0.587500X0.150000X-0.587500X-0.150000X0.587500X-0.150000X0*%
%ADD18RoundRect,0.150000X-0.587500X-0.150000X0.587500X-0.150000X0.587500X0.150000X-0.587500X0.150000X0*%
G04 APERTURE END LIST*
D10*
X118000000Y-77837500D03*
X118000000Y-80762500D03*
X146000000Y-107537500D03*
X146000000Y-110462500D03*
D11*
X172550000Y-109262500D03*
X172550000Y-106337500D03*
X168550000Y-109262500D03*
X168550000Y-106337500D03*
D12*
X153917500Y-70520000D03*
X156842500Y-70520000D03*
D11*
X168550000Y-103262500D03*
X168550000Y-100337500D03*
D10*
X112520000Y-85587500D03*
X112520000Y-88512500D03*
X122000000Y-77837500D03*
X122000000Y-80762500D03*
X126000000Y-77837500D03*
X126000000Y-80762500D03*
X146000000Y-102037500D03*
X146000000Y-104962500D03*
X130000000Y-77837500D03*
X130000000Y-80762500D03*
X134000000Y-77837500D03*
X134000000Y-80762500D03*
X138000000Y-77837500D03*
X138000000Y-80762500D03*
X142000000Y-77837500D03*
X142000000Y-80762500D03*
X146000000Y-77837500D03*
X146000000Y-80762500D03*
X150000000Y-77837500D03*
X150000000Y-80762500D03*
X154000000Y-77837500D03*
X154000000Y-80762500D03*
X158000000Y-77837500D03*
X158000000Y-80762500D03*
D13*
X134400000Y-94500000D03*
X135500000Y-94500000D03*
X136600000Y-94500000D03*
X136600000Y-91500000D03*
X135500000Y-91500000D03*
X134400000Y-91500000D03*
X154400000Y-94500000D03*
X155500000Y-94500000D03*
X156600000Y-94500000D03*
X156600000Y-91500000D03*
X155500000Y-91500000D03*
X154400000Y-91500000D03*
X124400000Y-94500000D03*
X125500000Y-94500000D03*
X126600000Y-94500000D03*
X126600000Y-91500000D03*
X125500000Y-91500000D03*
X124400000Y-91500000D03*
X144400000Y-94500000D03*
X145500000Y-94500000D03*
X146600000Y-94500000D03*
X146600000Y-91500000D03*
X145500000Y-91500000D03*
X144400000Y-91500000D03*
D14*
X158000000Y-88450000D03*
X158000000Y-85550000D03*
X128000000Y-88450000D03*
X128000000Y-85550000D03*
X153000000Y-88450000D03*
X153000000Y-85550000D03*
X148000000Y-88450000D03*
X148000000Y-85550000D03*
X138000000Y-88450000D03*
X138000000Y-85550000D03*
X133000000Y-88450000D03*
X133000000Y-85550000D03*
X123000000Y-88450000D03*
X123000000Y-85550000D03*
X143000000Y-88450000D03*
X143000000Y-85550000D03*
D15*
X136180000Y-110522000D03*
X136180000Y-101822000D03*
X140680000Y-101822000D03*
X140680000Y-110522000D03*
X156682000Y-101822000D03*
X156682000Y-110522000D03*
X152182000Y-101822000D03*
X152182000Y-110522000D03*
X164810000Y-110522000D03*
X164810000Y-101822000D03*
X160310000Y-101822000D03*
X160310000Y-110522000D03*
D16*
X171760000Y-80940000D03*
X171760000Y-78400000D03*
X162960000Y-78400000D03*
X162960000Y-80940000D03*
D17*
X174292500Y-102550000D03*
X174292500Y-100650000D03*
X172417500Y-101600000D03*
D18*
X116272500Y-85850000D03*
X116272500Y-87750000D03*
X118147500Y-86800000D03*
M02*
